<svg xmlns="http://www.w3.org/2000/svg" xmlns:xlink="http://www.w3.org/1999/xlink" fill="none" viewBox="0 0 431 252"><style><![CDATA[.B{stroke:#e3e3e3}.C{stroke-linecap:round}.D{opacity:.8}.E{stroke-width:3.111}.F{fill:#e3e3e3}.G{fill:#fff}.H{fill:#e62415}.I{stroke-width:1.555}.J{opacity:.4}.K{stroke:#17313b}.L{stroke-width:6.221}.M{color-interpolation-filters:sRGB}.N{flood-opacity:0}.O{stroke:#f5f3f3}.P{stroke-width:4.666}.Q{fill:#3e839e}.R{fill:#4a5255}.S{stroke-width:1.1}.T{stroke-width:.778}]]></style><g filter="url(#A)"><path d="M43.35 212.7h339.9v97.9H43.35z" class="G"/><path d="M293.554 224.355h76.714v25.64h-76.714z" class="H"/><g style="mix-blend-mode:multiply" class="D B C E"><path d="M95.653 247.274h11.052"/></g><g style="mix-blend-mode:multiply" class="D F"><use xlink:href="#E"/></g><g style="mix-blend-mode:multiply" class="D I O"><path d="M184.974 236.397h61.371"/></g><g style="mix-blend-mode:multiply" class="D B C P"><path d="M96.431 234.842H173.2"/></g><rect x="55.989" y="223.628" width="26.445" height="26.54" rx="1.555" class="Q"/><g style="mix-blend-mode:multiply" class="H"><path d="M121.415 244.423l2.607.383a.59.59 0 0 1 .473.401.54.54 0 0 1-.145.583l-1.896 1.878.456 2.66c.036.219-.055.438-.237.565-.182.146-.419.146-.62.055l-2.333-1.257-2.351 1.257c-.182.091-.437.091-.601-.055a.57.57 0 0 1-.237-.565l.437-2.66-1.895-1.878a.54.54 0 0 1-.146-.583c.073-.219.255-.365.474-.401l2.624-.383 1.167-2.424c.091-.2.291-.328.528-.328.219 0 .419.128.511.328l1.184 2.424zm10.498 0l2.607.383c.218.036.401.182.474.401.072.201.018.437-.146.583l-1.896 1.878.456 2.66c.036.219-.055.438-.237.565-.182.146-.419.146-.62.055l-2.333-1.257-2.351 1.257c-.182.091-.437.091-.601-.055a.57.57 0 0 1-.237-.565l.437-2.66-1.895-1.878a.54.54 0 0 1-.146-.583c.073-.219.255-.365.474-.401l2.624-.383 1.167-2.424c.091-.2.291-.328.528-.328a.56.56 0 0 1 .511.328l1.184 2.424zm10.499 0l2.606.383c.219.036.401.182.474.401a.54.54 0 0 1-.146.583l-1.896 1.878.456 2.66c.036.219-.055.438-.237.565-.182.146-.419.146-.62.055l-2.333-1.257-2.351 1.257c-.182.091-.437.091-.601-.055-.182-.127-.273-.346-.237-.565l.437-2.66-1.895-1.878a.54.54 0 0 1-.146-.583c.073-.219.255-.365.474-.401l2.624-.383 1.167-2.424c.091-.2.292-.328.528-.328a.56.56 0 0 1 .511.328l1.185 2.424zm10.498 0l2.606.383c.219.036.401.182.474.401a.54.54 0 0 1-.146.583l-1.896 1.878.456 2.66a.57.57 0 0 1-.237.565c-.182.146-.419.146-.619.055l-2.333-1.257-2.352 1.257c-.182.091-.437.091-.601-.055-.182-.127-.273-.346-.237-.565l.438-2.66-1.896-1.878a.54.54 0 0 1-.146-.583c.073-.219.255-.365.474-.401l2.625-.383 1.166-2.424a.57.57 0 0 1 .529-.328.56.56 0 0 1 .51.328l1.185 2.424zm10.498 0l2.606.383c.219.036.401.182.474.401a.54.54 0 0 1-.146.583l-1.895 1.878.455 2.66a.57.57 0 0 1-.237.565c-.182.146-.419.146-.619.055l-2.333-1.257-2.351 1.257c-.183.091-.438.091-.602-.055-.182-.127-.273-.346-.237-.565l.438-2.66-1.896-1.878a.54.54 0 0 1-.146-.583c.073-.219.255-.365.474-.401l2.625-.383 1.166-2.424a.57.57 0 0 1 .529-.328.56.56 0 0 1 .51.328l1.185 2.424z"/></g><path d="M275.47 237.753l-7.102 4.007v-16.538h14.968v16.538l-7.102-4.007-.382-.216-.382.216z" class="B I"/></g><g filter="url(#B)"><path d="M43.35 108.2h339.9v97.9H43.35z" class="G"/><path d="M293.554 119.855h76.714v25.64h-76.714z" class="H"/><path d="M123.604 171.522h122.741" class="J K L"/><path d="M123.604 171.522h101.498" class="J K L"/><path d="M123.604 171.522h67.271" class="J K L"/><g style="mix-blend-mode:multiply" class="B C E"><path d="M299.83 167.249h55.9"/></g><g style="mix-blend-mode:multiply" class="B C E"><path d="M125.16 183.566h32.295"/></g><g style="mix-blend-mode:multiply" class="D B C E"><path d="M95.653 142.774h11.052"/></g><g style="mix-blend-mode:multiply" class="D F"><use xlink:href="#E" y="-104.5"/></g><g style="mix-blend-mode:multiply" class="D I O"><path d="M184.974 131.897h61.371"/></g><g style="mix-blend-mode:multiply" class="D B C P"><path d="M96.431 130.342H173.2"/></g><g style="mix-blend-mode:multiply" class="B C E"><path d="M299.83 184.732h41.737"/></g><g style="mix-blend-mode:multiply" class="F"><path d="M56.333 165.292c-.859 0-1.555.696-1.555 1.555s.696 1.556 1.555 1.556v-3.111zm0 3.111h31.866v-3.111H56.333v3.111z"/></g><g style="mix-blend-mode:multiply" class="F"><path d="M56.333 174.616c-.859 0-1.555.696-1.555 1.555s.696 1.555 1.555 1.555v-3.11zm0 3.11h38.947v-3.11H56.333v3.11z"/></g><g style="mix-blend-mode:multiply" class="F"><path d="M56.333 183.94c-.859 0-1.555.696-1.555 1.555s.696 1.556 1.555 1.556v-3.111zm0 3.111h29.505v-3.111H56.333v3.111z"/></g><rect x="55.989" y="119.128" width="26.445" height="26.54" rx="1.555" class="Q"/><g style="mix-blend-mode:multiply" class="H"><path d="M121.415 139.923l2.607.383a.59.59 0 0 1 .473.401.54.54 0 0 1-.145.583l-1.896 1.877.456 2.661c.036.219-.055.438-.237.565-.182.146-.419.146-.62.055l-2.333-1.257-2.351 1.257c-.182.091-.437.091-.601-.055a.57.57 0 0 1-.237-.565l.437-2.661-1.895-1.877a.54.54 0 0 1-.146-.583c.073-.219.255-.365.474-.401l2.624-.383 1.167-2.424c.091-.2.291-.328.528-.328.219 0 .419.128.511.328l1.184 2.424zm10.498 0l2.607.383c.218.036.401.182.474.401.072.2.018.437-.146.583l-1.896 1.877.456 2.661c.036.219-.055.438-.237.565-.182.146-.419.146-.62.055l-2.333-1.257-2.351 1.257c-.182.091-.437.091-.601-.055a.57.57 0 0 1-.237-.565l.437-2.661-1.895-1.877a.54.54 0 0 1-.146-.583c.073-.219.255-.365.474-.401l2.624-.383 1.167-2.424c.091-.2.291-.328.528-.328a.56.56 0 0 1 .511.328l1.184 2.424zm10.499 0l2.606.383c.219.036.401.182.474.401a.54.54 0 0 1-.146.583l-1.896 1.877.456 2.661c.036.219-.055.438-.237.565-.182.146-.419.146-.62.055l-2.333-1.257-2.351 1.257c-.182.091-.437.091-.601-.055-.182-.127-.273-.346-.237-.565l.437-2.661-1.895-1.877a.54.54 0 0 1-.146-.583c.073-.219.255-.365.474-.401l2.624-.383 1.167-2.424c.091-.2.292-.328.528-.328a.56.56 0 0 1 .511.328l1.185 2.424zm10.498 0l2.606.383c.219.036.401.182.474.401a.54.54 0 0 1-.146.583l-1.896 1.877.456 2.661a.57.57 0 0 1-.237.565c-.182.146-.419.146-.619.055l-2.333-1.257-2.352 1.257c-.182.091-.437.091-.601-.055-.182-.127-.273-.346-.237-.565l.438-2.661-1.896-1.877a.54.54 0 0 1-.146-.583c.073-.219.255-.365.474-.401l2.625-.383 1.166-2.424a.57.57 0 0 1 .529-.328.56.56 0 0 1 .51.328l1.185 2.424zm10.498 0l2.606.383c.219.036.401.182.474.401a.54.54 0 0 1-.146.583l-1.895 1.877.455 2.661a.57.57 0 0 1-.237.565c-.182.146-.419.146-.619.055l-2.333-1.257-2.351 1.257c-.183.091-.438.091-.602-.055-.182-.127-.273-.346-.237-.565l.438-2.661-1.896-1.877a.54.54 0 0 1-.146-.583c.073-.219.255-.365.474-.401l2.625-.383 1.166-2.424a.57.57 0 0 1 .529-.328.56.56 0 0 1 .51.328l1.185 2.424z"/></g><g style="mix-blend-mode:multiply" class="B C T"><path d="M55.54 156.761h190.417"/></g><path d="M275.47 133.253l-7.102 4.007v-16.538h14.968v16.538l-7.102-4.007-.382-.216-.382.216z" class="B I"/></g><g filter="url(#C)"><path d="M43.35 4.8h339.9v97.9H43.35z" class="G"/><path d="M293.554 16.455h76.714v25.64h-76.714z" class="H"/><path d="M123.604 68.122h122.741" class="J K L"/><path d="M123.604 68.122h101.498" class="J K L"/><path d="M123.604 68.122h67.271" class="J K L"/><g style="mix-blend-mode:multiply" class="B C E"><path d="M299.83 63.849h55.9"/></g><g style="mix-blend-mode:multiply" class="B C E"><path d="M125.16 80.166h32.295"/></g><g style="mix-blend-mode:multiply" class="D B C E"><path d="M95.653 39.374h11.052"/></g><g style="mix-blend-mode:multiply" class="D F"><path d="M171.993 37.417c-.859 0-1.556.696-1.556 1.555s.697 1.555 1.556 1.555v-3.111zm0 3.111h37.766v-3.111h-37.766v3.111z"/></g><g style="mix-blend-mode:multiply" class="D I O"><path d="M184.974 28.497h61.371"/></g><g style="mix-blend-mode:multiply" class="D B C P"><path d="M96.431 26.942H173.2"/></g><g style="mix-blend-mode:multiply" class="B C E"><path d="M299.83 81.332h41.737"/></g><g style="mix-blend-mode:multiply" class="F"><path d="M56.333 61.892c-.859 0-1.555.696-1.555 1.555s.696 1.555 1.555 1.555v-3.111zm0 3.111h31.866v-3.111H56.333v3.111z"/></g><g style="mix-blend-mode:multiply" class="F"><path d="M56.333 71.216c-.859 0-1.555.696-1.555 1.555s.696 1.555 1.555 1.555v-3.111zm0 3.111h38.947v-3.111H56.333v3.111z"/></g><g style="mix-blend-mode:multiply" class="F"><path d="M56.333 80.54c-.859 0-1.555.696-1.555 1.555s.696 1.555 1.555 1.555V80.54zm0 3.111h29.505V80.54H56.333v3.111z"/></g><rect x="55.989" y="15.728" width="26.445" height="26.54" rx="1.555" class="Q"/><g style="mix-blend-mode:multiply" class="H"><path d="M121.415 36.523l2.607.383c.218.036.401.182.473.401a.54.54 0 0 1-.145.583l-1.896 1.877.456 2.661c.036.219-.055.437-.237.565-.182.146-.419.146-.62.055l-2.333-1.258-2.351 1.258c-.182.091-.437.091-.601-.055a.57.57 0 0 1-.237-.565l.437-2.661-1.895-1.877a.54.54 0 0 1-.146-.583c.073-.219.255-.364.474-.401l2.624-.383 1.167-2.424c.091-.2.291-.328.528-.328a.56.56 0 0 1 .511.328l1.184 2.424zm10.498 0l2.607.383c.218.036.401.182.474.401.072.2.018.437-.146.583l-1.896 1.877.456 2.661c.036.219-.055.437-.237.565-.182.146-.419.146-.62.055l-2.333-1.258-2.351 1.258c-.182.091-.437.091-.601-.055a.57.57 0 0 1-.237-.565l.437-2.661-1.895-1.877a.54.54 0 0 1-.146-.583c.073-.219.255-.364.474-.401l2.624-.383 1.167-2.424c.091-.2.291-.328.528-.328a.56.56 0 0 1 .511.328l1.184 2.424zm10.499 0l2.606.383c.219.036.401.182.474.401a.54.54 0 0 1-.146.583l-1.896 1.877.456 2.661c.036.219-.055.437-.237.565-.182.146-.419.146-.62.055l-2.333-1.258-2.351 1.258c-.182.091-.437.091-.601-.055-.182-.128-.273-.346-.237-.565l.437-2.661-1.895-1.877a.54.54 0 0 1-.146-.583c.073-.219.255-.364.474-.401l2.624-.383 1.167-2.424c.091-.2.292-.328.528-.328a.56.56 0 0 1 .511.328l1.185 2.424zm10.498 0l2.606.383c.219.036.401.182.474.401a.54.54 0 0 1-.146.583l-1.896 1.877.456 2.661a.57.57 0 0 1-.237.565c-.182.146-.419.146-.619.055l-2.333-1.258-2.352 1.258c-.182.091-.437.091-.601-.055-.182-.128-.273-.346-.237-.565l.438-2.661-1.896-1.877a.54.54 0 0 1-.146-.583c.073-.219.255-.364.474-.401l2.625-.383 1.166-2.424c.091-.2.292-.328.529-.328a.56.56 0 0 1 .51.328l1.185 2.424zm10.498 0l2.606.383c.219.036.401.182.474.401a.54.54 0 0 1-.146.583l-1.895 1.877.455 2.661a.57.57 0 0 1-.237.565c-.182.146-.419.146-.619.055l-2.333-1.258-2.351 1.258c-.183.091-.438.091-.602-.055-.182-.128-.273-.346-.237-.565l.438-2.661-1.896-1.877a.54.54 0 0 1-.146-.583c.073-.219.255-.364.474-.401l2.625-.383 1.166-2.424c.091-.2.292-.328.529-.328a.56.56 0 0 1 .51.328l1.185 2.424z"/></g><g style="mix-blend-mode:multiply" class="B C T"><path d="M55.54 53.362h190.417"/></g><path d="M275.47 29.853l-7.102 4.007V17.322h14.968V33.86l-7.102-4.007-.382-.216-.382.216z" class="B I"/></g><g filter="url(#D)"><rect x="116.375" y="189.05" width="117.5" height="22.7" rx="3.85" class="G"/><path d="M130.262 202.482a1.24 1.24 0 0 0-.076-.445c-.047-.135-.136-.258-.267-.368s-.315-.226-.552-.336a7.71 7.71 0 0 0-.921-.343c-.419-.136-.816-.288-1.193-.457s-.703-.366-.99-.591a2.65 2.65 0 0 1-.673-.793c-.161-.3-.241-.65-.241-1.047a2.16 2.16 0 0 1 .254-1.048 2.41 2.41 0 0 1 .71-.812c.305-.229.665-.404 1.08-.527s.878-.184 1.377-.184c.681 0 1.276.123 1.784.368a2.85 2.85 0 0 1 1.18 1.009 2.59 2.59 0 0 1 .426 1.467h-1.892c0-.271-.057-.508-.171-.711s-.28-.371-.508-.489-.508-.178-.851-.178c-.33 0-.605.051-.825.153s-.385.23-.495.399-.165.352-.165.559a.81.81 0 0 0 .114.425c.081.127.199.246.356.356s.349.213.577.311a8.42 8.42 0 0 0 .794.285c.503.153.946.324 1.326.515.386.19.707.404.965.641s.453.505.584.806.197.641.197 1.022a2.4 2.4 0 0 1-.235 1.079c-.156.317-.383.586-.679.806s-.65.387-1.06.502-.87.171-1.378.171c-.457 0-.907-.059-1.352-.178s-.848-.307-1.212-.552-.647-.559-.863-.939-.324-.832-.324-1.353h1.911a1.78 1.78 0 0 0 .133.73 1.23 1.23 0 0 0 .374.483c.165.123.36.211.584.266.229.055.479.083.749.083.331 0 .601-.047.813-.14s.374-.222.476-.387a1.01 1.01 0 0 0 .159-.558zm6.246 2.545c-.533 0-1.012-.085-1.435-.254a3.15 3.15 0 0 1-1.079-.717c-.292-.305-.516-.658-.673-1.06-.156-.407-.235-.838-.235-1.295v-.254c0-.521.074-.997.223-1.428a3.35 3.35 0 0 1 .634-1.124c.28-.317.618-.561 1.016-.73s.846-.26 1.346-.26c.486 0 .918.08 1.295.241s.692.389.945.686c.259.296.453.651.584 1.066s.197.868.197 1.371v.762h-5.459v-1.219h3.663v-.14c0-.253-.047-.48-.14-.679s-.224-.364-.406-.482-.415-.178-.698-.178c-.242 0-.449.053-.622.159a1.23 1.23 0 0 0-.426.444 2.42 2.42 0 0 0-.241.673c-.051.254-.076.533-.076.838v.254c0 .275.038.529.114.761.081.233.193.434.337.604a1.53 1.53 0 0 0 .533.393 1.76 1.76 0 0 0 .717.14c.33 0 .637-.064.92-.191a1.99 1.99 0 0 0 .743-.59l.889.965a2.7 2.7 0 0 1-.591.596c-.245.191-.541.347-.888.47s-.743.178-1.187.178zm5.687-5.497v5.37h-1.828v-6.868h1.72l.108 1.498zm2.07-1.543l-.032 1.695-.324-.032-.336-.019c-.258 0-.483.034-.673.102-.186.063-.343.159-.47.286s-.216.281-.279.463-.093.389-.102.622l-.368-.114c0-.444.045-.853.133-1.225s.218-.705.388-.984.385-.495.634-.648.536-.228.857-.228c.102 0 .206.008.311.025s.193.032.261.057zm3.313 5.58l1.524-5.535h1.91l-2.317 6.868h-1.155l.038-1.333zm-1.047-5.535l1.53 5.541.031 1.327h-1.161l-2.317-6.868h1.917zm7.23 0v6.868h-1.835v-6.868h1.835zm-1.949-1.79a.86.86 0 0 1 .279-.66c.187-.174.436-.261.749-.261s.557.087.743.261.286.393.286.66-.096.486-.286.66-.434.26-.743.26-.562-.087-.749-.26-.279-.394-.279-.66zm6.297 7.357c.224 0 .423-.043.597-.127a1.02 1.02 0 0 0 .406-.368c.101-.161.154-.35.159-.565h1.72a2.3 2.3 0 0 1-.387 1.288c-.254.373-.595.667-1.022.883a3.2 3.2 0 0 1-1.435.317c-.533 0-.999-.089-1.397-.267s-.721-.423-.983-.736-.46-.686-.591-1.104c-.131-.424-.197-.876-.197-1.359v-.184c0-.487.066-.939.197-1.358.131-.424.328-.792.591-1.105a2.7 2.7 0 0 1 .983-.743c.394-.177.855-.266 1.384-.266.563 0 1.056.108 1.479.324a2.4 2.4 0 0 1 1.003.926c.246.398.37.87.375 1.416h-1.72a1.44 1.44 0 0 0-.146-.622c-.089-.186-.221-.334-.394-.445s-.379-.171-.628-.171c-.267 0-.485.057-.654.171s-.301.263-.394.458a2.27 2.27 0 0 0-.197.653c-.033.242-.05.495-.05.762v.184a5.75 5.75 0 0 0 .05.768 2.15 2.15 0 0 0 .191.654c.097.19.23.341.4.451s.389.165.66.165zm7.103 1.428c-.533 0-1.011-.085-1.435-.254a3.15 3.15 0 0 1-1.079-.717c-.292-.305-.516-.658-.673-1.06-.156-.407-.234-.838-.234-1.295v-.254c0-.521.074-.997.222-1.428a3.35 3.35 0 0 1 .634-1.124c.28-.317.618-.561 1.016-.73s.846-.26 1.346-.26c.486 0 .918.08 1.295.241a2.54 2.54 0 0 1 .946.686 2.95 2.95 0 0 1 .583 1.066c.132.411.197.868.197 1.371v.762h-5.459v-1.219h3.663v-.14c0-.253-.047-.48-.14-.679s-.224-.364-.406-.482-.415-.178-.698-.178a1.17 1.17 0 0 0-.622.159 1.23 1.23 0 0 0-.426.444c-.105.191-.186.415-.241.673s-.076.533-.076.838v.254c0 .275.038.529.114.761s.193.434.337.604a1.54 1.54 0 0 0 .533.393c.211.093.451.14.717.14a2.23 2.23 0 0 0 .921-.191c.287-.131.535-.328.742-.59l.889.965c-.144.207-.341.406-.59.596s-.542.347-.889.47-.743.178-1.187.178zm6.805-3.491v-.134a4.32 4.32 0 0 1 .215-1.39c.144-.427.354-.797.629-1.111a2.82 2.82 0 0 1 1.015-.73c.402-.177.864-.266 1.384-.266s.984.089 1.39.266.747.417 1.022.73.491.684.635 1.111.216.887.216 1.39v.134a4.33 4.33 0 0 1-.216 1.39 3.24 3.24 0 0 1-.635 1.111 2.82 2.82 0 0 1-1.015.73c-.402.173-.864.26-1.384.26s-.984-.087-1.39-.26-.743-.417-1.022-.73a3.31 3.31 0 0 1-.629-1.111 4.36 4.36 0 0 1-.215-1.39zm1.828-.134v.134c0 .287.025.556.076.806s.131.47.241.66.262.332.444.438.405.159.667.159c.254 0 .472-.053.654-.159a1.21 1.21 0 0 0 .438-.438c.11-.19.19-.41.241-.66a3.75 3.75 0 0 0 .082-.806v-.134a3.6 3.6 0 0 0-.082-.787c-.051-.249-.133-.469-.248-.66s-.256-.347-.438-.457-.402-.165-.66-.165-.478.055-.66.165a1.3 1.3 0 0 0-.438.457c-.11.191-.19.411-.241.66a3.87 3.87 0 0 0-.076.787zm8.131 3.498h-1.841v-7.478c0-.52.102-.958.305-1.314a1.99 1.99 0 0 1 .87-.812c.376-.186.823-.279 1.339-.279a2.99 2.99 0 0 1 .489.038l.457.082-.019 1.378a1.68 1.68 0 0 0-.254-.045 3.53 3.53 0 0 0-.311-.012c-.22 0-.409.038-.565.114s-.269.18-.349.324-.121.319-.121.526v7.478zm1.371-6.868v1.295h-4.234v-1.295h4.234zm3.288 6.868h-1.841v-7.478c0-.52.102-.958.305-1.314a1.99 1.99 0 0 1 .87-.812c.376-.186.823-.279 1.339-.279a2.99 2.99 0 0 1 .489.038l.457.082-.019 1.378a1.68 1.68 0 0 0-.254-.045 3.53 3.53 0 0 0-.311-.012c-.22 0-.408.038-.565.114a.76.76 0 0 0-.349.324c-.081.143-.121.319-.121.526v7.478zm1.371-6.868v1.295h-4.234v-1.295h4.234zm3.968 6.995c-.534 0-1.012-.085-1.435-.254a3.15 3.15 0 0 1-1.079-.717c-.292-.305-.516-.658-.673-1.06-.156-.407-.235-.838-.235-1.295v-.254c0-.521.074-.997.222-1.428a3.37 3.37 0 0 1 .635-1.124c.279-.317.618-.561 1.016-.73s.846-.26 1.346-.26c.486 0 .918.08 1.294.241a2.53 2.53 0 0 1 .946.686 2.95 2.95 0 0 1 .584 1.066 4.5 4.5 0 0 1 .197 1.371v.762h-5.459v-1.219h3.663v-.14c0-.253-.047-.48-.14-.679s-.224-.364-.406-.482-.415-.178-.699-.178c-.241 0-.448.053-.622.159s-.315.254-.425.444a2.42 2.42 0 0 0-.241.673c-.051.254-.076.533-.076.838v.254c0 .275.038.529.114.761s.193.434.336.604a1.54 1.54 0 0 0 .534.393 1.76 1.76 0 0 0 .717.14c.33 0 .637-.064.92-.191a1.99 1.99 0 0 0 .743-.59l.889.965a2.7 2.7 0 0 1-.591.596c-.245.191-.541.347-.888.47s-.743.178-1.187.178zm5.687-5.497v5.37h-1.828v-6.868h1.72l.108 1.498zm2.069-1.543l-.031 1.695-.324-.032-.336-.019c-.259 0-.483.034-.673.102-.186.063-.343.159-.47.286s-.216.281-.279.463-.093.389-.102.622l-.368-.114a5.27 5.27 0 0 1 .133-1.225c.089-.377.218-.705.387-.984a1.96 1.96 0 0 1 .635-.648c.25-.152.536-.228.857-.228.102 0 .205.008.311.025a1.17 1.17 0 0 1 .26.057zm2.793.045v6.868h-1.834v-6.868h1.834zm-1.948-1.79a.86.86 0 0 1 .279-.66c.186-.174.436-.261.749-.261s.557.087.743.261.285.393.285.66-.095.486-.285.66-.434.26-.743.26-.563-.087-.749-.26-.279-.394-.279-.66zm5.249 3.256v5.402h-1.828v-6.868h1.714l.114 1.466zm-.266 1.727h-.496c0-.508.066-.965.197-1.371a3.12 3.12 0 0 1 .553-1.048c.237-.292.518-.514.844-.666s.698-.235 1.104-.235c.322 0 .616.046.883.14s.495.241.685.444.343.472.444.806.159.743.159 1.225v4.38h-1.841v-4.386c0-.305-.042-.542-.127-.711s-.209-.288-.374-.356-.36-.108-.597-.108c-.245 0-.459.049-.641.146a1.27 1.27 0 0 0-.444.407c-.115.169-.201.368-.261.596s-.088.474-.088.737zm10.111-3.193h1.657v6.639c0 .627-.139 1.158-.419 1.594a2.58 2.58 0 0 1-1.155.996c-.495.229-1.071.343-1.727.343-.287 0-.592-.038-.914-.114a3.65 3.65 0 0 1-.914-.356c-.287-.16-.529-.364-.723-.609l.806-1.079c.211.245.457.436.736.571.279.14.588.21.927.21.33 0 .609-.062.838-.184a1.23 1.23 0 0 0 .527-.527c.122-.229.184-.506.184-.832v-5.065l.177-1.587zm-4.621 3.516v-.133a5 5 0 0 1 .191-1.428c.131-.432.315-.802.552-1.111a2.5 2.5 0 0 1 .876-.717c.343-.169.73-.254 1.162-.254.457 0 .84.085 1.149.254a2.08 2.08 0 0 1 .761.723 3.76 3.76 0 0 1 .464 1.099c.114.419.203.878.266 1.377v.292c-.063.478-.158.923-.285 1.333s-.295.77-.502 1.079-.465.542-.774.711-.669.254-1.092.254-.806-.087-1.149-.26-.628-.417-.87-.73-.427-.682-.558-1.105-.191-.884-.191-1.384zm1.828-.133v.133a3.63 3.63 0 0 0 .083.794c.055.245.14.463.254.654.118.186.264.332.438.438a1.25 1.25 0 0 0 .628.152c.335 0 .608-.07.819-.209.212-.144.37-.341.476-.591a2.53 2.53 0 0 0 .184-.863v-.832a2.77 2.77 0 0 0-.108-.717c-.063-.216-.152-.4-.266-.552a1.16 1.16 0 0 0-.445-.356 1.53 1.53 0 0 0-.647-.127c-.241 0-.451.055-.628.165s-.32.252-.438.438-.201.407-.261.661a3.52 3.52 0 0 0-.089.812zm9.585 1.587a.59.59 0 0 0-.114-.355c-.076-.106-.218-.204-.425-.292-.203-.094-.497-.178-.882-.254-.347-.076-.671-.172-.972-.286a3.35 3.35 0 0 1-.774-.425c-.216-.165-.385-.36-.508-.584-.123-.229-.184-.489-.184-.781a1.84 1.84 0 0 1 .184-.813c.127-.253.307-.478.54-.672s.524-.354.863-.464a3.65 3.65 0 0 1 1.155-.171c.597 0 1.109.095 1.536.286.432.19.762.452.991.787.232.33.349.706.349 1.13h-1.828c0-.178-.038-.337-.115-.477-.072-.143-.186-.256-.342-.336s-.352-.127-.597-.127c-.203 0-.379.036-.527.108s-.262.161-.343.279c-.076.115-.114.241-.114.381 0 .106.021.201.063.286.047.08.121.154.223.222a1.85 1.85 0 0 0 .393.19c.165.055.368.106.61.153.495.101.937.235 1.326.4a2.29 2.29 0 0 1 .927.66c.229.275.343.637.343 1.085 0 .305-.068.584-.203.838s-.33.476-.584.667c-.254.186-.559.332-.914.438s-.747.152-1.187.152c-.639 0-1.181-.114-1.625-.343s-.775-.518-1.003-.869a2.02 2.02 0 0 1-.337-1.092h1.733c.009.249.072.45.191.603a1.04 1.04 0 0 0 .463.33c.19.068.396.101.616.101.237 0 .433-.031.59-.095s.275-.156.355-.266.127-.246.127-.394z" class="R"/><rect x="116.375" y="189.05" width="117.5" height="22.7" rx="3.85" stroke="#aaa" class="S"/><rect x="302.425" y="85.55" width="107.9" height="37.7" rx="3.85" class="G"/><path d="M316.521 100.029l2.501 1.98-1.2 1.041-2.462-1.98 1.161-1.041zm2.565-3.466v.438c0 .702-.096 1.333-.286 1.892s-.455 1.035-.806 1.428a3.57 3.57 0 0 1-1.244.895c-.478.207-1.01.311-1.594.311s-1.11-.104-1.593-.311-.899-.506-1.25-.895-.625-.87-.819-1.428-.286-1.189-.286-1.892v-.438c0-.707.095-1.337.286-1.892s.465-1.035.812-1.428a3.46 3.46 0 0 1 1.244-.901c.483-.207 1.014-.311 1.594-.311s1.115.104 1.593.311a3.52 3.52 0 0 1 1.25.901c.352.393.623.87.813 1.428s.286 1.185.286 1.892zm-1.924.438v-.451c0-.491-.046-.922-.139-1.295a2.8 2.8 0 0 0-.394-.939c-.169-.254-.379-.444-.628-.571s-.536-.197-.857-.197-.608.066-.857.197-.459.317-.629.571-.298.567-.387.939-.133.804-.133 1.295v.451c0 .487.044.918.133 1.295a2.98 2.98 0 0 0 .387.946c.174.254.385.446.635.578s.542.197.863.197.606-.065.851-.197.459-.324.628-.578c.174-.258.305-.573.394-.946s.133-.808.133-1.295zm7.249 2.755v-5.224h1.828v6.868h-1.72l-.108-1.644zm.203-1.409l.54-.013c0 .457-.053.882-.159 1.276s-.264.728-.476 1.016c-.211.283-.478.505-.8.666s-.7.235-1.136.235c-.334 0-.643-.047-.927-.14a1.88 1.88 0 0 1-.723-.45c-.199-.208-.356-.472-.47-.794s-.165-.717-.165-1.174v-4.437h1.828v4.45c0 .203.023.374.07.514s.121.254.209.343a.77.77 0 0 0 .311.191c.123.038.259.057.407.057.376 0 .673-.076.888-.228s.375-.36.464-.622.139-.563.139-.889zm4.952-3.815v6.868h-1.835v-6.868h1.835zm-1.949-1.79c0-.267.093-.487.279-.66s.436-.26.749-.26.557.087.743.26.286.394.286.66-.096.487-.286.66-.434.26-.743.26-.563-.087-.749-.26-.279-.394-.279-.66zm6.297 7.357c.224 0 .423-.043.596-.127a1.01 1.01 0 0 0 .407-.368 1.08 1.08 0 0 0 .158-.565h1.721c-.005.482-.134.912-.388 1.288s-.594.667-1.022.883-.905.317-1.434.317-.999-.089-1.397-.267a2.73 2.73 0 0 1-.984-.736c-.262-.317-.459-.686-.59-1.105a4.57 4.57 0 0 1-.197-1.358v-.184a4.53 4.53 0 0 1 .197-1.358c.131-.423.328-.791.59-1.104s.591-.565.984-.743.855-.267 1.384-.267c.563 0 1.056.108 1.479.324s.762.525 1.003.927.37.87.375 1.415h-1.721a1.43 1.43 0 0 0-.146-.622 1.05 1.05 0 0 0-.393-.444c-.169-.114-.379-.171-.629-.171-.266 0-.484.057-.653.171a1.09 1.09 0 0 0-.394.457c-.093.19-.159.408-.197.654s-.051.495-.051.762v.184c0 .267.017.523.051.768s.098.463.191.654a1.14 1.14 0 0 0 .4.451c.169.11.389.165.66.165zm5.77-8.455v9.756h-1.828v-9.756h1.828zm4.329 2.888l-2.984 3.402-1.599 1.619-.667-1.32 1.27-1.612 1.784-2.088h2.196zm-1.898 6.868l-2.031-3.174 1.263-1.105 2.875 4.278h-2.107zm7.852-9.75v9.75h-1.834v-9.75h1.834zm3.44 2.882v6.868h-1.834v-6.868h1.834zm-1.948-1.79c0-.267.093-.487.279-.66s.436-.26.749-.26.556.087.743.26.285.394.285.66-.095.487-.285.66-.434.26-.743.26-.563-.087-.749-.26-.279-.394-.279-.66zm5.249 3.256v5.402h-1.828v-6.868h1.714l.114 1.466zm-.266 1.727h-.496c0-.508.066-.965.197-1.371s.316-.76.552-1.047.519-.514.845-.666.698-.235 1.104-.235c.322 0 .616.047.883.14s.495.241.685.444.343.472.444.806.159.743.159 1.225v4.38h-1.841v-4.386c0-.305-.042-.542-.127-.711a.71.71 0 0 0-.374-.355c-.161-.072-.36-.108-.597-.108a1.34 1.34 0 0 0-.641.146c-.178.097-.326.233-.444.406a1.92 1.92 0 0 0-.261.597c-.059.228-.088.474-.088.736zm7.591-6.081v9.756h-1.828v-9.756h1.828zm4.329 2.888l-2.983 3.402-1.6 1.619-.666-1.32 1.27-1.612 1.783-2.088h2.196zm-1.897 6.868l-2.032-3.174 1.263-1.105 2.876 4.278h-2.107zm6.398-1.898c0-.131-.038-.25-.114-.355s-.218-.203-.426-.292c-.203-.093-.497-.178-.882-.254a6.86 6.86 0 0 1-.971-.286c-.296-.118-.554-.26-.775-.425-.215-.165-.385-.36-.507-.584a1.62 1.62 0 0 1-.184-.781 1.84 1.84 0 0 1 .184-.812 2.09 2.09 0 0 1 .539-.673c.237-.199.525-.353.864-.463s.727-.171 1.155-.171c.596 0 1.109.095 1.536.286.432.191.762.453.99.787a1.91 1.91 0 0 1 .349 1.13h-1.828a.98.98 0 0 0-.114-.476c-.072-.144-.186-.256-.343-.336s-.351-.127-.597-.127a1.19 1.19 0 0 0-.526.108.8.8 0 0 0-.343.279c-.076.114-.114.241-.114.381 0 .106.021.201.063.286s.121.154.222.222.233.131.394.191a4.89 4.89 0 0 0 .609.152 7.04 7.04 0 0 1 1.327.4c.389.161.698.381.927.66s.342.637.342 1.085c0 .305-.067.584-.203.838s-.33.476-.584.667-.558.332-.914.438-.747.152-1.187.152c-.639 0-1.181-.114-1.625-.343s-.774-.518-1.003-.869-.336-.72-.336-1.092h1.733c.008.25.072.451.19.603s.277.262.463.33a1.82 1.82 0 0 0 .616.101c.237 0 .434-.031.591-.095s.275-.156.355-.266a.64.64 0 0 0 .127-.394zm9.566-4.97v1.295h-3.999v-1.295h3.999zm-3.009-1.695h1.828v6.494c0 .199.026.351.076.457a.46.46 0 0 0 .242.222c.105.038.239.057.4.057l.304-.013.235-.038.006 1.346c-.156.051-.325.091-.507.121s-.383.044-.603.044c-.402 0-.754-.066-1.054-.197a1.45 1.45 0 0 1-.686-.647c-.16-.297-.241-.686-.241-1.168v-6.678zm3.593 5.199v-.133c0-.504.072-.967.216-1.39s.353-.798.628-1.111.614-.556 1.016-.73a3.39 3.39 0 0 1 1.384-.267c.52 0 .983.089 1.39.267s.747.417 1.022.73a3.15 3.15 0 0 1 .634 1.111c.144.423.216.887.216 1.39v.133c0 .499-.072.963-.216 1.39s-.355.793-.634 1.111c-.275.313-.614.556-1.016.73s-.863.26-1.384.26-.984-.087-1.39-.26-.743-.417-1.022-.73c-.275-.318-.484-.688-.628-1.111s-.216-.891-.216-1.39zm1.828-.133v.133a4.03 4.03 0 0 0 .076.806c.051.25.131.47.241.66s.263.332.445.438.404.159.666.159c.254 0 .472-.053.654-.159s.328-.252.438-.438.19-.41.241-.66.083-.518.083-.806v-.133c0-.279-.028-.542-.083-.787a2.09 2.09 0 0 0-.247-.66 1.23 1.23 0 0 0-.438-.457c-.182-.11-.402-.165-.66-.165s-.479.055-.661.165-.323.262-.438.457-.19.41-.241.66-.076.508-.076.787zm-70.294 18.625c-.533 0-1.011-.085-1.435-.254a3.16 3.16 0 0 1-1.079-.717 3.18 3.18 0 0 1-.672-1.06c-.157-.407-.235-.838-.235-1.295v-.254c0-.521.074-.997.222-1.428s.36-.807.635-1.124.617-.561 1.015-.73.847-.26 1.346-.26c.487 0 .918.08 1.295.241a2.54 2.54 0 0 1 .946.686c.258.296.452.651.584 1.066a4.5 4.5 0 0 1 .196 1.371v.762h-5.459v-1.219h3.663v-.14c0-.253-.047-.48-.14-.679a1.07 1.07 0 0 0-.406-.482c-.182-.119-.415-.178-.698-.178a1.17 1.17 0 0 0-.622.159c-.174.106-.315.254-.425.444a2.42 2.42 0 0 0-.242.673 4.34 4.34 0 0 0-.076.838v.254c0 .275.038.529.114.761s.193.434.337.604a1.54 1.54 0 0 0 .533.393c.212.093.451.14.717.14a2.23 2.23 0 0 0 .921-.191c.287-.131.535-.328.742-.59l.889.965c-.144.207-.341.406-.59.596s-.542.347-.889.47-.743.178-1.187.178zm6.107-1.46l1.523-5.535h1.911l-2.317 6.868h-1.156l.039-1.333zm-1.048-5.535l1.53 5.541.032 1.327h-1.162l-2.317-6.868h1.917zm8.373 6.995c-.534 0-1.012-.085-1.435-.254a3.15 3.15 0 0 1-1.079-.717c-.292-.305-.516-.658-.673-1.06s-.235-.838-.235-1.295v-.254c0-.521.074-.997.222-1.428a3.37 3.37 0 0 1 .635-1.124c.28-.317.618-.561 1.016-.73s.846-.26 1.346-.26c.486 0 .918.08 1.294.241a2.53 2.53 0 0 1 .946.686 2.95 2.95 0 0 1 .584 1.066 4.5 4.5 0 0 1 .197 1.371v.762h-5.459v-1.219h3.663v-.14c0-.253-.047-.48-.14-.679s-.224-.364-.406-.482-.415-.178-.698-.178c-.242 0-.449.053-.623.159s-.315.254-.425.444a2.42 2.42 0 0 0-.241.673c-.051.254-.076.533-.076.838v.254c0 .275.038.529.114.761s.193.434.336.604a1.54 1.54 0 0 0 .534.393 1.76 1.76 0 0 0 .717.14c.33 0 .637-.064.92-.191a1.99 1.99 0 0 0 .743-.59l.889.965a2.7 2.7 0 0 1-.591.596c-.245.191-.541.347-.888.47s-.743.178-1.187.178zm5.649-5.529v5.402H331.8v-6.868h1.714l.114 1.466zm-.266 1.727h-.496c0-.508.066-.965.197-1.371s.315-.76.552-1.048a2.37 2.37 0 0 1 .845-.666c.33-.157.698-.235 1.104-.235.322 0 .616.046.882.14s.496.241.686.444.343.472.444.806.159.743.159 1.225v4.38h-1.841v-4.386c0-.305-.042-.542-.127-.711s-.209-.288-.374-.356-.36-.108-.597-.108c-.245 0-.459.049-.641.146a1.27 1.27 0 0 0-.444.407c-.115.169-.201.368-.261.596s-.088.474-.088.737zm10.829-1.771v5.446h-1.835v-6.868h1.72l.115 1.422zm-.254 1.771h-.508c0-.478.057-.919.171-1.321s.29-.757.514-1.053a2.36 2.36 0 0 1 .845-.699c.334-.165.721-.247 1.161-.247.305 0 .584.046.838.14.254.088.472.23.654.425s.33.44.432.749.152.671.152 1.098v4.583h-1.828v-4.38c0-.313-.042-.554-.127-.724a.72.72 0 0 0-.362-.355c-.152-.068-.336-.102-.552-.102a1.28 1.28 0 0 0-.622.146c-.174.098-.318.233-.432.407a1.82 1.82 0 0 0-.254.596c-.055.229-.082.474-.082.737zm4.088-.21l-.654.083c0-.449.055-.866.165-1.251a3.16 3.16 0 0 1 .501-1.015c.225-.292.502-.519.832-.68s.711-.247 1.142-.247c.33 0 .631.049.902.146a1.65 1.65 0 0 1 .692.451c.194.203.342.469.444.799s.159.735.159 1.213v4.386h-1.835v-4.386c0-.318-.042-.559-.127-.724-.08-.169-.199-.286-.355-.349s-.335-.102-.546-.102a1.2 1.2 0 0 0-.578.134c-.165.084-.302.203-.412.355s-.193.33-.248.533a2.45 2.45 0 0 0-.082.654zm5.306.521v-.134c0-.503.072-.967.216-1.39a3.23 3.23 0 0 1 .628-1.111c.276-.313.614-.556 1.016-.73s.863-.266 1.384-.266.984.089 1.39.266.747.417 1.022.73a3.18 3.18 0 0 1 .635 1.111c.144.423.216.887.216 1.39v.134a4.33 4.33 0 0 1-.216 1.39c-.144.423-.356.793-.635 1.111-.275.313-.614.556-1.016.73s-.863.26-1.383.26-.984-.087-1.391-.26a2.89 2.89 0 0 1-1.022-.73c-.275-.318-.484-.688-.628-1.111a4.33 4.33 0 0 1-.216-1.39zm1.828-.134v.134a4.03 4.03 0 0 0 .077.806 2.15 2.15 0 0 0 .241.66c.114.186.262.332.444.438s.404.159.667.159c.253 0 .471-.053.653-.159a1.21 1.21 0 0 0 .438-.438c.11-.19.191-.41.242-.66a3.75 3.75 0 0 0 .082-.806v-.134a3.6 3.6 0 0 0-.082-.787 2.1 2.1 0 0 0-.248-.66c-.11-.194-.256-.347-.438-.457s-.402-.165-.66-.165-.478.055-.66.165a1.3 1.3 0 0 0-.438.457 2.17 2.17 0 0 0-.241.66 3.87 3.87 0 0 0-.077.787zm7.63-1.872v5.37h-1.828v-6.868h1.72l.108 1.498zm2.07-1.543l-.032 1.695-.324-.032-.336-.019c-.258 0-.483.034-.673.102s-.343.159-.47.286-.216.281-.279.463-.093.389-.102.622l-.368-.114c0-.444.045-.853.133-1.225s.218-.705.388-.984.385-.495.634-.648.536-.228.857-.228c.102 0 .206.008.311.025s.193.032.261.057zm3.897 7.04c-.533 0-1.011-.085-1.435-.254a3.16 3.16 0 0 1-1.079-.717 3.18 3.18 0 0 1-.672-1.06c-.157-.407-.235-.838-.235-1.295v-.254c0-.521.074-.997.222-1.428s.36-.807.635-1.124.617-.561 1.015-.73.847-.26 1.346-.26c.487 0 .918.08 1.295.241a2.54 2.54 0 0 1 .946.686c.258.296.452.651.584 1.066a4.5 4.5 0 0 1 .196 1.371v.762h-5.459v-1.219h3.663v-.14c0-.253-.047-.48-.14-.679s-.224-.364-.406-.482-.415-.178-.698-.178a1.17 1.17 0 0 0-.622.159c-.174.106-.315.254-.425.444a2.42 2.42 0 0 0-.242.673 4.34 4.34 0 0 0-.076.838v.254c0 .275.038.529.114.761s.193.434.337.604a1.54 1.54 0 0 0 .533.393c.212.093.451.14.717.14a2.23 2.23 0 0 0 .921-.191c.287-.131.535-.328.742-.59l.889.965c-.144.207-.341.406-.59.596s-.542.347-.889.47-.743.178-1.187.178zm9.026-6.995v6.868h-1.834v-6.868h1.834zm-1.948-1.79a.86.86 0 0 1 .279-.66c.186-.174.436-.261.749-.261s.556.087.743.261.285.393.285.66-.095.486-.285.66-.434.26-.743.26-.563-.087-.749-.26-.279-.394-.279-.66zm5.249 3.256v5.402h-1.828v-6.868h1.714l.114 1.466zm-.266 1.727h-.496c0-.508.066-.965.197-1.371s.316-.76.552-1.048a2.37 2.37 0 0 1 .845-.666c.33-.157.698-.235 1.104-.235.322 0 .616.046.883.14s.495.241.685.444.343.472.444.806.159.743.159 1.225v4.38h-1.841v-4.386c0-.305-.042-.542-.127-.711s-.209-.288-.374-.356-.36-.108-.597-.108c-.245 0-.459.049-.641.146a1.27 1.27 0 0 0-.444.407c-.115.169-.201.368-.261.596s-.088.474-.088.737zm8.093 3.675h-1.841v-7.478c0-.52.102-.958.305-1.314s.497-.63.869-.812.823-.279 1.34-.279a2.97 2.97 0 0 1 .488.038l.458.082-.02 1.378c-.08-.021-.165-.036-.253-.045a3.53 3.53 0 0 0-.311-.012c-.221 0-.409.038-.565.114s-.269.18-.35.324-.12.319-.12.526v7.478zm1.371-6.868v1.295h-4.234v-1.295h4.234zm.666 3.504v-.134c0-.503.072-.967.216-1.39s.354-.797.629-1.111a2.82 2.82 0 0 1 1.015-.73c.402-.177.864-.266 1.384-.266s.984.089 1.39.266.747.417 1.022.73.491.684.635 1.111.216.887.216 1.39v.134a4.33 4.33 0 0 1-.216 1.39 3.24 3.24 0 0 1-.635 1.111 2.82 2.82 0 0 1-1.015.73c-.402.173-.864.26-1.384.26s-.984-.087-1.39-.26-.743-.417-1.022-.73a3.31 3.31 0 0 1-.629-1.111 4.33 4.33 0 0 1-.216-1.39zm1.829-.134v.134c0 .287.025.556.076.806s.131.47.241.66.262.332.444.438.404.159.667.159c.254 0 .472-.053.654-.159a1.21 1.21 0 0 0 .438-.438c.11-.19.19-.41.241-.66a3.75 3.75 0 0 0 .082-.806v-.134a3.6 3.6 0 0 0-.082-.787c-.051-.249-.133-.469-.248-.66s-.256-.347-.438-.457-.402-.165-.66-.165-.478.055-.66.165a1.3 1.3 0 0 0-.438.457c-.11.191-.19.411-.241.66a3.87 3.87 0 0 0-.076.787z" class="R"/><rect x="302.425" y="85.55" width="107.9" height="37.7" rx="3.85" stroke="#aaa" class="S"/><rect x="20.675" y="39.55" width="145.9" height="22.7" rx="3.85" class="G"/><path d="M37.342 50.563v.438c0 .702-.095 1.333-.286 1.892s-.459 1.035-.806 1.428-.762.688-1.244.895-1.009.311-1.593.311-1.111-.104-1.593-.311a3.57 3.57 0 0 1-1.244-.895c-.351-.394-.624-.87-.819-1.428s-.286-1.189-.286-1.892v-.438c0-.707.095-1.337.286-1.892a4.16 4.16 0 0 1 .806-1.428c.351-.394.766-.694 1.244-.901s1.014-.311 1.593-.311 1.115.104 1.593.311a3.46 3.46 0 0 1 1.244.901c.351.394.622.87.813 1.428s.292 1.185.292 1.892zm-1.923.438v-.451c0-.491-.044-.923-.133-1.295s-.22-.686-.393-.939a1.7 1.7 0 0 0-.635-.571c-.25-.131-.535-.197-.857-.197s-.607.066-.857.197-.455.317-.628.571-.298.567-.387.939-.133.804-.133 1.295v.451c0 .487.044.918.133 1.295s.22.688.394.946.385.446.635.578.535.197.857.197.607-.066.857-.197.459-.324.628-.578.298-.573.387-.946.133-.808.133-1.295zm5.516 3.066l1.523-5.535h1.911L42.052 55.4h-1.155l.038-1.333zm-1.047-5.535l1.53 5.542.032 1.327h-1.162l-2.317-6.868h1.917zm8.373 6.995c-.533 0-1.011-.085-1.434-.254a3.15 3.15 0 0 1-1.079-.717 3.19 3.19 0 0 1-.673-1.06 3.57 3.57 0 0 1-.235-1.295v-.254c0-.52.074-.997.222-1.428s.36-.806.635-1.123a2.79 2.79 0 0 1 1.016-.73c.398-.174.846-.26 1.346-.26.487 0 .918.08 1.295.241s.692.389.946.686.453.652.584 1.066a4.49 4.49 0 0 1 .197 1.371v.762h-5.459v-1.219h3.663v-.14c0-.254-.047-.48-.14-.679a1.08 1.08 0 0 0-.406-.482c-.182-.119-.415-.178-.698-.178-.241 0-.449.053-.622.159s-.315.254-.425.444-.186.415-.241.673a4.28 4.28 0 0 0-.076.838v.254c0 .275.038.529.114.762s.192.434.336.603.326.3.533.394.451.14.717.14c.33 0 .637-.063.92-.19s.535-.328.743-.59l.889.965c-.144.207-.341.406-.59.597s-.542.347-.889.47-.743.178-1.187.178zm5.688-5.497v5.37h-1.828v-6.868h1.72l.108 1.498zm2.069-1.542l-.032 1.695-.324-.032-.336-.019a2.01 2.01 0 0 0-.673.102 1.2 1.2 0 0 0-.47.286 1.25 1.25 0 0 0-.279.463c-.059.182-.093.389-.102.622l-.368-.114c0-.444.044-.853.133-1.225s.218-.704.387-.984.385-.495.635-.648a1.61 1.61 0 0 1 .857-.229 1.96 1.96 0 0 1 .311.025c.106.013.193.032.26.057zm3.313 5.58l1.523-5.535h1.911L60.447 55.4h-1.155l.038-1.333zm-1.047-5.535l1.53 5.542.032 1.327h-1.162l-2.317-6.868h1.917zm7.23 0V55.4h-1.834v-6.868h1.834zm-1.949-1.79c0-.267.093-.487.279-.66s.436-.26.749-.26.556.087.743.26.286.394.286.66-.095.487-.286.66-.434.26-.743.26-.563-.087-.749-.26-.279-.393-.279-.66zm6.621 8.785c-.533 0-1.011-.085-1.435-.254a3.15 3.15 0 0 1-1.079-.717 3.19 3.19 0 0 1-.673-1.06 3.57 3.57 0 0 1-.235-1.295v-.254c0-.52.074-.997.222-1.428s.36-.806.635-1.123a2.79 2.79 0 0 1 1.016-.73c.398-.174.846-.26 1.346-.26.487 0 .918.08 1.295.241a2.54 2.54 0 0 1 .946.686c.258.296.453.652.584 1.066a4.49 4.49 0 0 1 .197 1.371v.762h-5.459v-1.219h3.663v-.14c0-.254-.046-.48-.14-.679a1.08 1.08 0 0 0-.406-.482c-.182-.119-.415-.178-.698-.178-.241 0-.449.053-.622.159s-.315.254-.425.444-.186.415-.241.673a4.28 4.28 0 0 0-.076.838v.254c0 .275.038.529.114.762s.192.434.336.603.326.3.533.394.451.14.717.14c.33 0 .637-.063.92-.19s.535-.328.743-.59l.889.965c-.144.207-.341.406-.59.597s-.542.347-.889.47-.743.178-1.187.178zm5.821-1.904l1.428-5.091h1.162l-.374 2-1.428 4.869h-.971l.184-1.777zm-.724-5.091l1.022 5.085.095 1.784h-1.143l-1.739-6.868h1.765zm4.621 5.002l.997-5.002h1.771L80.931 55.4h-1.136l.108-1.866zm-1.149-5.002l1.422 5.053.197 1.815h-.977l-1.428-4.862-.362-2.006h1.149zm9.528 1.923l1.777-1.149c.262-.173.438-.341.527-.501s.133-.341.133-.54-.074-.383-.222-.552-.355-.26-.622-.26a.84.84 0 0 0-.482.133.81.81 0 0 0-.298.343c-.063.144-.095.305-.095.482 0 .191.051.385.152.584s.239.402.412.622l.578.705 4.361 5.078h-2.076l-3.555-4.113-.787-1.022c-.224-.313-.4-.618-.527-.914s-.19-.601-.19-.914c0-.482.104-.904.311-1.263a2.13 2.13 0 0 1 .876-.844c.377-.203.819-.305 1.327-.305.478 0 .893.099 1.244.298s.622.453.813.774a2.01 2.01 0 0 1 .292 1.06 2 2 0 0 1-.159.8 2.52 2.52 0 0 1-.438.673c-.186.203-.4.391-.641.565l-2.025 1.441a1.84 1.84 0 0 0-.356.425c-.08.14-.135.273-.165.4a1.51 1.51 0 0 0-.044.355 1.36 1.36 0 0 0 .159.66c.106.195.254.347.444.457s.413.165.666.165c.347 0 .683-.076 1.009-.229a2.76 2.76 0 0 0 .876-.654 3.29 3.29 0 0 0 .616-1.022c.152-.394.229-.827.229-1.301h1.549a6.34 6.34 0 0 1-.14 1.352c-.093.423-.243.817-.451 1.181s-.482.679-.825.959l-.108.095-.108.089c-.406.326-.829.569-1.27.73a4.37 4.37 0 0 1-1.473.235c-.618 0-1.153-.112-1.606-.336s-.796-.533-1.041-.927-.362-.844-.362-1.352c0-.372.072-.696.216-.971s.351-.538.609-.774.554-.476.889-.717zm12.124-4.805v9.75h-1.828v-9.75h1.828zm-.26 6.075h-.502c.004-.478.068-.918.191-1.32a3.23 3.23 0 0 1 .527-1.054c.228-.301.501-.533.818-.698s.677-.248 1.067-.248c.338 0 .645.049.92.146s.519.245.717.457c.204.207.36.48.47.819s.165.749.165 1.231V55.4h-1.841v-4.355c0-.305-.044-.544-.133-.717s-.209-.303-.374-.375-.36-.114-.597-.114c-.262 0-.487.049-.673.146s-.328.233-.438.406-.19.368-.241.597-.076.474-.076.736zm7.693-3.193V55.4h-1.834v-6.868h1.834zm-1.949-1.79a.86.86 0 0 1 .28-.66c.186-.174.435-.26.749-.26s.556.087.742.26.286.394.286.66a.85.85 0 0 1-.286.66c-.186.174-.433.26-.742.26s-.563-.087-.749-.26a.86.86 0 0 1-.28-.66zm7.808 1.79h1.657v6.64c0 .626-.14 1.157-.419 1.593a2.58 2.58 0 0 1-1.156.997c-.495.229-1.07.343-1.726.343-.288 0-.593-.038-.914-.114s-.622-.195-.914-.355a2.42 2.42 0 0 1-.724-.609l.806-1.079c.212.245.457.436.737.571a2.04 2.04 0 0 0 .926.209c.33 0 .61-.061.838-.184s.404-.294.527-.527.184-.506.184-.832v-5.065l.178-1.587zm-4.621 3.517v-.133c0-.525.063-1.001.19-1.428s.316-.802.553-1.111a2.51 2.51 0 0 1 .875-.717 2.59 2.59 0 0 1 1.162-.254c.457 0 .84.085 1.149.254s.563.41.762.724.353.675.463 1.098a10.19 10.19 0 0 1 .267 1.377v.292a8.18 8.18 0 0 1-.286 1.333c-.127.411-.294.77-.501 1.079s-.466.542-.775.711-.668.254-1.092.254a2.51 2.51 0 0 1-1.149-.26c-.338-.173-.628-.417-.869-.73a3.48 3.48 0 0 1-.559-1.105c-.127-.423-.19-.884-.19-1.384zm1.828-.133v.133c0 .284.027.548.082.794s.14.463.254.654.265.332.438.438a1.25 1.25 0 0 0 .629.152c.334 0 .607-.07.819-.209a1.32 1.32 0 0 0 .476-.59c.106-.25.167-.537.184-.863v-.831c-.009-.267-.045-.506-.108-.717s-.152-.4-.267-.552-.262-.271-.444-.355-.398-.127-.648-.127a1.17 1.17 0 0 0-.628.165c-.173.106-.319.252-.438.438s-.201.406-.26.66a3.53 3.53 0 0 0-.089.813zm7.655-6.265v9.75h-1.828v-9.75h1.828zm-.26 6.075h-.501a4.63 4.63 0 0 1 .19-1.32c.123-.406.298-.758.527-1.054a2.42 2.42 0 0 1 .819-.698 2.3 2.3 0 0 1 1.066-.248 2.74 2.74 0 0 1 .92.146 1.71 1.71 0 0 1 .718.457c.203.207.359.48.469.819s.166.749.166 1.231V55.4h-1.841v-4.355c0-.305-.045-.544-.134-.717a.73.73 0 0 0-.374-.375c-.161-.076-.36-.114-.597-.114a1.44 1.44 0 0 0-.673.146c-.182.097-.328.233-.438.406s-.19.368-.241.597-.076.474-.076.736zm7.693-6.075v9.75h-1.834v-9.75h1.834zm3.441 2.882V55.4h-1.835v-6.868h1.835zm-1.949-1.79c0-.267.093-.487.279-.66s.436-.26.749-.26.557.087.743.26.286.394.286.66-.096.487-.286.66-.434.26-.743.26-.562-.087-.749-.26-.279-.393-.279-.66zm7.808 1.79h1.656v6.64c0 .626-.139 1.157-.419 1.593s-.66.772-1.155.997-1.07.343-1.726.343c-.288 0-.593-.038-.914-.114a3.65 3.65 0 0 1-.915-.355c-.287-.161-.528-.364-.723-.609l.806-1.079c.212.245.457.436.736.571s.589.209.927.209c.33 0 .609-.061.838-.184s.404-.294.527-.527.184-.506.184-.832v-5.065l.178-1.587zm-4.621 3.517v-.133c0-.525.063-1.001.19-1.428s.315-.802.552-1.111.533-.548.876-.717a2.59 2.59 0 0 1 1.162-.254c.457 0 .84.085 1.149.254s.563.41.761.724.354.675.464 1.098a10.04 10.04 0 0 1 .266 1.377v.292a8.08 8.08 0 0 1-.285 1.333c-.127.411-.294.77-.502 1.079s-.465.542-.774.711-.669.254-1.092.254a2.51 2.51 0 0 1-1.149-.26c-.338-.173-.628-.417-.869-.73s-.428-.681-.559-1.105-.19-.884-.19-1.384zm1.828-.133v.133c0 .284.027.548.082.794a2.2 2.2 0 0 0 .254.654c.119.186.265.332.438.438s.387.152.629.152c.334 0 .607-.07.818-.209a1.31 1.31 0 0 0 .476-.59c.106-.25.168-.537.185-.863v-.831c-.009-.267-.045-.506-.108-.717s-.153-.4-.267-.552-.262-.271-.444-.355-.398-.127-.648-.127a1.17 1.17 0 0 0-.628.165c-.174.106-.32.252-.438.438s-.201.406-.26.66-.089.52-.089.813zm7.655-6.265v9.75h-1.828v-9.75h1.828zm-.26 6.075h-.502a4.63 4.63 0 0 1 .191-1.32c.122-.406.298-.758.527-1.054s.501-.533.818-.698.677-.248 1.067-.248c.338 0 .645.049.92.146s.519.245.717.457c.204.207.36.48.47.819s.165.749.165 1.231V55.4h-1.841v-4.355c0-.305-.044-.544-.133-.717s-.209-.303-.374-.375-.36-.114-.597-.114c-.262 0-.487.049-.673.146s-.328.233-.438.406-.19.368-.241.597-.076.474-.076.736zm9.128-3.193v1.295h-3.999v-1.295h3.999zm-3.009-1.695h1.828v6.494c0 .199.025.351.076.457a.46.46 0 0 0 .241.222c.106.038.239.057.4.057l.305-.013.235-.038.006 1.346c-.156.051-.326.091-.508.121a3.77 3.77 0 0 1-.603.044 2.61 2.61 0 0 1-1.053-.197 1.45 1.45 0 0 1-.686-.648c-.161-.296-.241-.685-.241-1.168v-6.678zm7.763 6.665c0-.131-.038-.25-.114-.355s-.218-.203-.426-.292-.497-.178-.882-.254a6.86 6.86 0 0 1-.971-.286c-.296-.118-.554-.26-.774-.425a1.84 1.84 0 0 1-.508-.584 1.62 1.62 0 0 1-.184-.781 1.84 1.84 0 0 1 .184-.812c.127-.254.307-.478.539-.673s.525-.353.864-.463.727-.171 1.155-.171c.597 0 1.109.095 1.536.286s.762.453.99.787a1.91 1.91 0 0 1 .349 1.13h-1.828a.98.98 0 0 0-.114-.476c-.072-.144-.186-.256-.343-.336-.152-.085-.351-.127-.596-.127a1.19 1.19 0 0 0-.527.108c-.148.068-.263.161-.343.279s-.114.241-.114.381c0 .106.021.201.063.286s.121.154.222.222.233.131.394.191a4.89 4.89 0 0 0 .609.152c.495.102.938.235 1.327.4s.698.381.927.66.342.637.342 1.085c0 .305-.067.584-.203.838s-.33.476-.584.666-.558.332-.914.438a4.27 4.27 0 0 1-1.187.152c-.639 0-1.18-.114-1.625-.343s-.774-.518-1.003-.87-.336-.719-.336-1.092h1.733c.008.25.072.451.19.603a1.04 1.04 0 0 0 .464.33 1.82 1.82 0 0 0 .615.101c.237 0 .434-.032.591-.095s.275-.157.355-.267a.64.64 0 0 0 .127-.394z" class="R"/><rect x="20.675" y="39.55" width="145.9" height="22.7" rx="3.85" stroke="#aaa" class="S"/></g><defs><filter id="A" x="40.239" y="209.589" width="346.121" height="104.121" filterUnits="userSpaceOnUse" class="M"><feFlood result="A" class="N"/><feColorMatrix in="SourceAlpha" values="0 0 0 0 0 0 0 0 0 0 0 0 0 0 0 0 0 0 127 0"/><feOffset/><feGaussianBlur stdDeviation="1.555"/><feColorMatrix values="0 0 0 0 0 0 0 0 0 0 0 0 0 0 0 0 0 0 0.12 0"/><feBlend in2="A"/><feBlend in="SourceGraphic"/></filter><filter id="B" x="40.239" y="105.089" width="346.121" height="104.121" filterUnits="userSpaceOnUse" class="M"><feFlood result="A" class="N"/><feColorMatrix in="SourceAlpha" values="0 0 0 0 0 0 0 0 0 0 0 0 0 0 0 0 0 0 127 0"/><feOffset/><feGaussianBlur stdDeviation="1.555"/><feColorMatrix values="0 0 0 0 0 0 0 0 0 0 0 0 0 0 0 0 0 0 0.12 0"/><feBlend in2="A"/><feBlend in="SourceGraphic"/></filter><filter id="C" x="39.35" y=".8" width="347.9" height="105.9" filterUnits="userSpaceOnUse" class="M"><feFlood result="A" class="N"/><feColorMatrix in="SourceAlpha" values="0 0 0 0 0 0 0 0 0 0 0 0 0 0 0 0 0 0 127 0"/><feOffset/><feGaussianBlur stdDeviation="2"/><feColorMatrix values="0 0 0 0 0 0 0 0 0 0 0 0 0 0 0 0 0 0 0.12 0"/><feBlend in2="A"/><feBlend in="SourceGraphic"/></filter><filter id="D" x=".125" y="29" width="430.75" height="213.3" filterUnits="userSpaceOnUse" class="M"><feFlood result="A" class="N"/><feColorMatrix in="SourceAlpha" values="0 0 0 0 0 0 0 0 0 0 0 0 0 0 0 0 0 0 127 0"/><feOffset/><feGaussianBlur stdDeviation=".5"/><feColorMatrix values="0 0 0 0 0 0 0 0 0 0 0 0 0 0 0 0 0 0 0.08 0"/><feBlend in2="A" result="C"/><feColorMatrix in="SourceAlpha" values="0 0 0 0 0 0 0 0 0 0 0 0 0 0 0 0 0 0 127 0"/><feOffset dy="2"/><feGaussianBlur stdDeviation="3"/><feColorMatrix values="0 0 0 0 0 0 0 0 0 0 0 0 0 0 0 0 0 0 0.08 0"/><feBlend in2="C" result="D"/><feColorMatrix in="SourceAlpha" values="0 0 0 0 0 0 0 0 0 0 0 0 0 0 0 0 0 0 127 0"/><feOffset dy="10"/><feGaussianBlur stdDeviation="10"/><feColorMatrix values="0 0 0 0 0 0 0 0 0 0 0 0 0 0 0 0 0 0 0.08 0"/><feBlend in2="D"/><feBlend in="SourceGraphic"/></filter><path id="E" d="M171.993 245.317c-.859 0-1.556.696-1.556 1.555s.697 1.556 1.556 1.556v-3.111zm0 3.111h37.766v-3.111h-37.766v3.111z"/></defs></svg>