<svg xmlns="http://www.w3.org/2000/svg" fill="none" viewBox="0 0 405 291"><style><![CDATA[.B{fill:#fff}.C{color-interpolation-filters:sRGB}.D{flood-opacity:0}.E{fill:#4a5255}.F{stroke-width:1.1}.G{stroke-linecap:round}]]></style><g filter="url(#A)" class="B"><path d="M68.504 7h295.29v257.285H68.504z"/></g><g filter="url(#B)" class="B"><path d="M49.276 34.613h295.29v257.285H49.276z"/></g><g filter="url(#C)" class="B"><path d="M32.794 58.099h295.29v257.285H32.794z"/></g><g fill="#4a5255"><rect x="229.198" y="261.725" width="76.913" height="38.524" rx="2.3"/><rect x="141.296" y="261.725" width="76.913" height="38.524" rx="2.3"/><rect x="53.396" y="261.725" width="76.913" height="38.524" rx="2.3"/><rect x="229.198" y="214.946" width="76.913" height="38.524" rx="2.3"/><rect x="141.296" y="214.946" width="76.913" height="38.524" rx="2.3"/><rect x="53.396" y="214.946" width="76.913" height="38.524" rx="2.3"/></g><path d="M53.671 193.996a2.3 2.3 0 1 0 0 4.6v-4.6zm0 4.6H169.04v-4.6H53.671v4.6zm0-21.111a2.3 2.3 0 1 0 0 4.601v-4.601zm0 4.601h105.755v-4.601H53.671v4.601zm0-21.111a2.3 2.3 0 1 0 0 4.601v-4.601zm0 4.601h142.838v-4.601H53.671v4.601z" style="mix-blend-mode:multiply" fill="#e3e3e3"/><path d="M111.425 118.502l3.855.566a.88.88 0 0 1 .701.593.8.8 0 0 1-.216.863l-2.804 2.777.674 3.935a.85.85 0 0 1-.35.836c-.27.216-.62.216-.917.081l-3.45-1.86-3.478 1.86c-.269.135-.647.135-.89-.081a.85.85 0 0 1-.35-.836l.647-3.935-2.804-2.777a.8.8 0 0 1-.215-.863.88.88 0 0 1 .701-.593l3.882-.566 1.725-3.585a.84.84 0 0 1 .782-.486.83.83 0 0 1 .755.486l1.752 3.585zm15.528 0l3.855.566c.323.054.593.27.7.593a.8.8 0 0 1-.215.863l-2.804 2.777.674 3.935a.85.85 0 0 1-.35.836c-.27.216-.62.216-.917.081l-3.451-1.86-3.477 1.86c-.27.135-.647.135-.89-.081a.85.85 0 0 1-.35-.836l.647-3.935-2.804-2.777a.8.8 0 0 1-.215-.863c.107-.323.377-.539.7-.593l3.882-.566 1.726-3.585a.84.84 0 0 1 .781-.486.83.83 0 0 1 .755.486l1.753 3.585zm15.527 0l3.855.566a.88.88 0 0 1 .701.593.8.8 0 0 1-.215.863l-2.804 2.777.674 3.935c.054.324-.081.647-.351.836-.269.216-.62.216-.916.081l-3.451-1.86-3.477 1.86c-.27.135-.647.135-.89-.081a.85.85 0 0 1-.35-.836l.647-3.935-2.804-2.777c-.243-.216-.323-.566-.216-.863a.88.88 0 0 1 .701-.593l3.882-.566 1.726-3.585c.134-.297.431-.486.781-.486a.83.83 0 0 1 .755.486l1.752 3.585zm15.528 0l3.855.566a.88.88 0 0 1 .701.593.8.8 0 0 1-.216.863l-2.803 2.777.674 3.935c.054.324-.081.647-.351.836-.269.216-.62.216-.916.081l-3.451-1.86-3.477 1.86c-.27.135-.647.135-.89-.081a.85.85 0 0 1-.351-.836l.647-3.935-2.803-2.777a.8.8 0 0 1-.216-.863.88.88 0 0 1 .701-.593l3.882-.566 1.725-3.585a.84.84 0 0 1 .782-.486.83.83 0 0 1 .755.486l1.752 3.585zm15.528 0l3.855.566a.88.88 0 0 1 .701.593.8.8 0 0 1-.216.863l-2.803 2.777.674 3.935a.85.85 0 0 1-.351.836c-.269.216-.62.216-.916.081l-3.451-1.86-3.478 1.86c-.269.135-.647.135-.889-.081-.27-.189-.405-.512-.351-.836l.647-3.935-2.803-2.777a.8.8 0 0 1-.216-.863.88.88 0 0 1 .701-.593l3.882-.566 1.725-3.585a.84.84 0 0 1 .782-.486.83.83 0 0 1 .755.486l1.752 3.585z" fill="#e62415" style="mix-blend-mode:multiply"/><path d="M66.42 122.22v1.484H56.147v-1.064l6.367-9.854h1.475l-1.582 2.852-4.209 6.582h8.223zm-1.982-9.434v14.219h-1.807v-14.219h1.807zm3.848 13.262c0-.306.094-.563.283-.771.195-.215.475-.323.84-.323s.641.108.83.323c.195.208.293.465.293.771 0 .3-.098.553-.293.762-.189.208-.466.312-.83.312s-.645-.104-.84-.312c-.189-.209-.283-.462-.283-.762zm6.846-.557h.185c1.042 0 1.888-.146 2.539-.439s1.152-.687 1.504-1.182.592-1.051.723-1.67c.13-.625.195-1.266.195-1.923v-2.178c0-.645-.075-1.218-.225-1.719-.143-.501-.345-.921-.605-1.26-.254-.338-.544-.595-.869-.771s-.671-.264-1.035-.264a2.44 2.44 0 0 0-1.123.254c-.325.163-.602.394-.83.693-.221.3-.391.651-.508 1.055s-.176.843-.176 1.319c0 .423.052.833.156 1.23s.264.755.479 1.074.482.573.801.762c.325.182.706.273 1.143.273a2.76 2.76 0 0 0 1.133-.234c.358-.163.674-.381.947-.654a3.28 3.28 0 0 0 .664-.948c.169-.351.267-.719.293-1.103h.859a4.21 4.21 0 0 1-.322 1.601c-.208.521-.501.997-.879 1.426s-.82.775-1.328 1.035c-.508.254-1.061.381-1.66.381-.703 0-1.312-.136-1.826-.41a3.68 3.68 0 0 1-1.269-1.094c-.326-.455-.57-.963-.732-1.523a6.43 6.43 0 0 1-.234-1.719c0-.677.094-1.312.283-1.904a4.64 4.64 0 0 1 .84-1.563c.371-.455.83-.81 1.377-1.064.553-.254 1.191-.381 1.914-.381.814 0 1.507.163 2.08.488a4.02 4.02 0 0 1 1.396 1.309c.365.547.632 1.162.801 1.846s.254 1.386.254 2.109v.654a17.63 17.63 0 0 1-.147 2.246c-.091.756-.27 1.478-.537 2.168-.26.69-.641 1.309-1.142 1.856-.501.54-1.156.97-1.963 1.289-.801.312-1.79.469-2.969.469h-.185v-1.534z" class="E"/><g style="mix-blend-mode:multiply" opacity=".8" class="G"><path stroke="#4a5255" stroke-width="9.202" d="M89.587 92.022h92.434"/></g><rect x="53.396" y="80.112" width="21.975" height="22.014" rx="2.3" fill="#4a5255"/><path d="M320.762 59.31c-6.102-4.245-14.053-5.663-21.649-3.144-12.823 4.252-19.778 18.111-15.533 30.957s18.079 19.811 30.902 15.561c11.186-3.709 17.906-14.73 16.622-26.01m-33.792-1.333l12.524 12.547 24.901-31.181" stroke="#e62415" stroke-width="2.3" class="G"/><g filter="url(#D)"><rect x="20.282" y="131" width="158.6" height="23.8" rx="4.4" class="B"/><path d="M32.744 147.4h-2.012l.013-1.485h2c.499 0 .92-.112 1.263-.337s.601-.56.774-.996.267-.963.267-1.581v-.451c0-.474-.051-.89-.152-1.25s-.243-.662-.438-.908a1.84 1.84 0 0 0-.717-.552c-.283-.127-.609-.19-.977-.19h-2.069v-1.492h2.069c.618 0 1.183.106 1.695.317s.963.506 1.339.895.666.855.87 1.397.311 1.136.311 1.796v.438c0 .656-.104 1.255-.311 1.796s-.493 1.008-.87 1.397-.819.683-1.339.895-1.088.311-1.714.311zm-.933-9.242v9.242h-1.904v-9.242h1.904zm9.598 9.369c-.533 0-1.011-.085-1.435-.254a3.15 3.15 0 0 1-1.079-.717 3.19 3.19 0 0 1-.673-1.06c-.157-.407-.235-.838-.235-1.295v-.254c0-.521.074-.997.222-1.428s.36-.807.635-1.124a2.79 2.79 0 0 1 1.016-.73c.398-.173.846-.26 1.346-.26.487 0 .918.08 1.295.241s.692.389.946.686.453.651.584 1.066.197.868.197 1.371v.762h-5.459v-1.219h3.663v-.14c0-.253-.047-.48-.14-.679s-.224-.364-.406-.482-.415-.178-.698-.178a1.17 1.17 0 0 0-.622.159 1.23 1.23 0 0 0-.425.444 2.43 2.43 0 0 0-.241.673c-.051.254-.076.533-.076.838v.254a2.43 2.43 0 0 0 .114.761c.08.233.193.434.337.604s.326.3.533.393.451.14.717.14c.33 0 .637-.064.92-.191s.535-.328.743-.59l.889.965c-.144.207-.341.406-.59.596s-.542.347-.889.47-.743.178-1.187.178zm7.224-6.995v1.295h-3.999v-1.295h3.999zm-3.009-1.695h1.828v6.494c0 .199.025.351.076.457a.46.46 0 0 0 .241.222c.106.038.239.057.4.057l.305-.013.235-.038.006 1.346a3.45 3.45 0 0 1-.508.121 3.84 3.84 0 0 1-.603.044c-.402 0-.753-.066-1.054-.197a1.45 1.45 0 0 1-.686-.647c-.161-.297-.241-.686-.241-1.168v-6.678zm7.757 7.014v-3.059c0-.22-.036-.409-.108-.565s-.184-.286-.337-.375-.341-.133-.578-.133c-.203 0-.379.036-.527.108a.76.76 0 0 0-.343.298c-.08.127-.121.277-.121.451H49.54a1.79 1.79 0 0 1 .203-.832c.135-.262.332-.493.59-.692s.565-.361.92-.476.762-.171 1.206-.171c.533 0 1.007.089 1.422.266s.741.445.978.8.362.8.362 1.333v2.939c0 .377.023.686.07.927s.114.444.203.622v.108h-1.847a2.64 2.64 0 0 1-.203-.698 5.76 5.76 0 0 1-.063-.851zm.241-2.634l.013 1.035h-1.022c-.241 0-.451.027-.628.082s-.324.133-.438.235-.199.212-.254.343-.076.275-.076.431a.85.85 0 0 0 .108.426c.072.122.176.22.311.292a1.06 1.06 0 0 0 .476.101c.275 0 .514-.055.717-.165a1.31 1.31 0 0 0 .47-.406c.114-.161.174-.313.178-.457l.482.774c-.068.174-.161.354-.279.54a2.52 2.52 0 0 1-.438.527 2.26 2.26 0 0 1-.641.4c-.25.101-.546.152-.889.152-.436 0-.832-.087-1.187-.26s-.63-.421-.838-.73-.305-.669-.305-1.067a2.17 2.17 0 0 1 .203-.958c.135-.279.334-.514.597-.705s.599-.34.997-.438.859-.152 1.384-.152h1.06zm4.938-2.685v6.868h-1.834v-6.868h1.834zm-1.949-1.79a.86.86 0 0 1 .279-.66c.186-.174.436-.261.749-.261s.556.087.743.261a.85.85 0 0 1 .286.66c0 .266-.095.486-.286.66s-.434.26-.743.26-.563-.087-.749-.26-.279-.394-.279-.66zm5.389-1.092v9.75h-1.835v-9.75h1.835zm4.672 9.877c-.533 0-1.011-.085-1.435-.254a3.15 3.15 0 0 1-1.079-.717 3.19 3.19 0 0 1-.673-1.06c-.156-.407-.235-.838-.235-1.295v-.254c0-.521.074-.997.222-1.428s.36-.807.635-1.124a2.79 2.79 0 0 1 1.016-.73c.398-.173.846-.26 1.346-.26.487 0 .918.08 1.295.241s.692.389.946.686a2.95 2.95 0 0 1 .584 1.066c.131.411.197.868.197 1.371v.762h-5.459v-1.219h3.663v-.14c0-.253-.046-.48-.14-.679s-.224-.364-.406-.482-.415-.178-.698-.178a1.17 1.17 0 0 0-.622.159 1.23 1.23 0 0 0-.425.444c-.106.191-.186.415-.241.673s-.076.533-.076.838v.254c0 .275.038.529.114.761s.193.434.336.604.326.3.533.393.451.14.717.14c.33 0 .637-.064.92-.191s.535-.328.743-.59l.889.965a2.7 2.7 0 0 1-.59.596c-.245.191-.542.347-.889.47s-.743.178-1.187.178zm7.916-1.625v-8.252h1.841v9.75h-1.657l-.184-1.498zm-4.342-1.854v-.133c0-.525.059-1.001.178-1.428s.292-.802.52-1.111.51-.548.844-.717.715-.254 1.143-.254c.402 0 .753.085 1.054.254s.563.41.774.723.389.675.52 1.099.226.878.286 1.377v.292a7.33 7.33 0 0 1-.286 1.333c-.131.41-.305.77-.52 1.079s-.47.542-.774.711-.66.254-1.066.254a2.45 2.45 0 0 1-1.143-.26 2.43 2.43 0 0 1-.838-.73c-.224-.313-.396-.682-.514-1.105s-.178-.884-.178-1.384zm1.828-.133v.133c0 .284.021.548.063.794s.121.463.222.654c.106.186.241.332.406.438s.375.152.616.152c.313 0 .571-.07.774-.209a1.35 1.35 0 0 0 .463-.591c.11-.249.173-.537.191-.863v-.832a3 3 0 0 0-.114-.717c-.059-.216-.148-.4-.267-.552s-.258-.271-.432-.356-.37-.127-.603-.127-.44.055-.609.165-.307.252-.413.438a2.34 2.34 0 0 0-.229.661 4.43 4.43 0 0 0-.07.812zm10.848-2.063v8.189h-1.828v-9.509h1.695l.133 1.32zm4.348 2.038v.133c0 .499-.059.963-.178 1.39a3.46 3.46 0 0 1-.508 1.117c-.224.314-.504.559-.838.737s-.711.26-1.143.26c-.419 0-.783-.085-1.092-.254a2.27 2.27 0 0 1-.781-.711c-.207-.309-.374-.666-.501-1.073a8.46 8.46 0 0 1-.292-1.307v-.349a8.63 8.63 0 0 1 .292-1.371c.127-.419.294-.781.501-1.086s.47-.548.774-.717.671-.254 1.086-.254c.436 0 .819.082 1.149.247a2.26 2.26 0 0 1 .838.711c.229.309.4.677.514 1.105s.178.901.178 1.422zm-1.834.133v-.133c0-.292-.025-.561-.076-.806s-.123-.468-.229-.654-.237-.33-.406-.432-.366-.159-.603-.159c-.25 0-.463.041-.641.121a1.07 1.07 0 0 0-.425.349 1.62 1.62 0 0 0-.248.546c-.055.212-.089.451-.102.717v.883c.021.313.08.594.178.844s.248.44.451.584.47.216.8.216c.241 0 .444-.053.609-.159s.298-.26.4-.451a2.05 2.05 0 0 0 .222-.66c.047-.249.07-.518.07-.806zm4.799-1.993v5.37h-1.828v-6.868h1.72l.108 1.498zm2.069-1.543l-.032 1.695-.324-.032-.336-.019c-.258 0-.482.034-.673.102-.186.063-.343.159-.47.286s-.216.281-.279.463-.093.389-.102.622l-.368-.114c0-.444.044-.853.133-1.225s.218-.705.387-.984.385-.495.635-.648.535-.228.857-.228c.102 0 .205.008.311.025s.193.032.26.057zm.381 3.549v-.134c0-.503.072-.967.216-1.39s.353-.797.628-1.111.614-.556 1.016-.73.863-.266 1.384-.266.984.089 1.39.266a2.81 2.81 0 0 1 1.022.73c.279.314.491.684.635 1.111s.216.887.216 1.39v.134c0 .499-.072.962-.216 1.39s-.356.793-.635 1.111c-.275.313-.614.556-1.016.73s-.863.26-1.384.26-.984-.087-1.39-.26-.743-.417-1.022-.73c-.275-.318-.485-.688-.628-1.111s-.216-.891-.216-1.39zm1.828-.134v.134a4.05 4.05 0 0 0 .076.806c.051.25.131.47.241.66a1.26 1.26 0 0 0 .444.438c.182.106.404.159.666.159.254 0 .472-.053.654-.159a1.21 1.21 0 0 0 .438-.438 2.17 2.17 0 0 0 .241-.66 3.75 3.75 0 0 0 .082-.806v-.134a3.6 3.6 0 0 0-.082-.787 2.09 2.09 0 0 0-.248-.66c-.11-.194-.256-.347-.438-.457s-.402-.165-.66-.165-.478.055-.66.165-.324.263-.438.457-.191.411-.241.66-.076.508-.076.787zm5.904-3.37h1.834v7.281c0 .507-.093.937-.279 1.288a1.87 1.87 0 0 1-.806.8c-.352.182-.777.273-1.276.273a4.25 4.25 0 0 1-.457-.025 3.95 3.95 0 0 1-.47-.083l.006-1.403.298.038c.093.013.188.019.286.019a1.05 1.05 0 0 0 .476-.095c.127-.063.222-.163.286-.298s.102-.303.102-.514v-7.281zm-.146-1.79a.86.86 0 0 1 .279-.66c.19-.174.44-.261.749-.261s.563.087.749.261a.86.86 0 0 1 .279.66c0 .266-.093.486-.279.66s-.436.26-.749.26-.559-.087-.749-.26-.279-.394-.279-.66zm6.595 8.785c-.533 0-1.012-.085-1.435-.254a3.15 3.15 0 0 1-1.079-.717c-.292-.305-.516-.658-.673-1.06-.156-.407-.235-.838-.235-1.295v-.254c0-.521.074-.997.223-1.428a3.35 3.35 0 0 1 .634-1.124c.28-.317.618-.561 1.016-.73s.846-.26 1.346-.26c.486 0 .918.08 1.295.241s.691.389.945.686a2.95 2.95 0 0 1 .584 1.066 4.5 4.5 0 0 1 .197 1.371v.762h-5.459v-1.219h3.663v-.14c0-.253-.047-.48-.14-.679s-.224-.364-.406-.482-.415-.178-.698-.178c-.242 0-.449.053-.623.159s-.315.254-.425.444a2.42 2.42 0 0 0-.241.673c-.051.254-.076.533-.076.838v.254c0 .275.038.529.114.761s.193.434.336.604a1.54 1.54 0 0 0 .534.393 1.76 1.76 0 0 0 .717.14c.33 0 .637-.064.92-.191a1.99 1.99 0 0 0 .743-.59l.889.965a2.7 2.7 0 0 1-.591.596c-.245.191-.541.347-.888.47s-.743.178-1.187.178zm6.696-1.428a1.35 1.35 0 0 0 .597-.127c.174-.089.309-.212.406-.368.102-.161.155-.35.159-.565h1.72c-.004.482-.133.912-.387 1.288s-.594.667-1.022.883c-.427.211-.905.317-1.434.317-.534 0-.999-.089-1.397-.267a2.73 2.73 0 0 1-.984-.736 3.23 3.23 0 0 1-.59-1.104c-.131-.424-.197-.876-.197-1.359v-.184c0-.487.066-.939.197-1.358.131-.424.328-.792.59-1.105s.591-.565.984-.743.855-.266 1.384-.266c.563 0 1.056.108 1.479.324s.762.524 1.003.926.37.87.374 1.416h-1.72c-.004-.229-.053-.436-.146-.622s-.22-.334-.393-.445-.379-.171-.629-.171c-.266 0-.484.057-.654.171a1.1 1.1 0 0 0-.393.458 2.27 2.27 0 0 0-.197.653c-.034.242-.051.495-.051.762v.184c0 .267.017.523.051.768a2.15 2.15 0 0 0 .19.654 1.16 1.16 0 0 0 .4.451c.17.11.39.165.66.165zm7.307-5.567v1.295h-3.999v-1.295h3.999zm-3.009-1.695h1.828v6.494c0 .199.025.351.076.457a.46.46 0 0 0 .241.222c.106.038.239.057.4.057l.305-.013.235-.038.006 1.346a3.44 3.44 0 0 1-.508.121c-.182.029-.383.044-.603.044-.402 0-.753-.066-1.053-.197s-.525-.351-.686-.647-.241-.686-.241-1.168v-6.678zm9.115 3.193v5.37h-1.828v-6.868h1.72l.108 1.498zm2.069-1.543l-.031 1.695-.324-.032-.336-.019c-.259 0-.483.034-.673.102a1.19 1.19 0 0 0-.47.286c-.123.127-.216.281-.279.463s-.093.389-.102.622l-.368-.114a5.27 5.27 0 0 1 .133-1.225c.089-.377.218-.705.387-.984a1.96 1.96 0 0 1 .635-.648c.25-.152.536-.228.857-.228.102 0 .205.008.311.025a1.17 1.17 0 0 1 .26.057zm3.898 7.04c-.533 0-1.011-.085-1.435-.254a3.15 3.15 0 0 1-1.079-.717c-.292-.305-.516-.658-.673-1.06-.156-.407-.234-.838-.234-1.295v-.254c0-.521.074-.997.222-1.428a3.35 3.35 0 0 1 .634-1.124c.28-.317.618-.561 1.016-.73s.846-.26 1.346-.26c.486 0 .918.08 1.295.241s.692.389.945.686c.259.296.453.651.584 1.066s.197.868.197 1.371v.762h-5.459v-1.219h3.663v-.14c0-.253-.047-.48-.14-.679s-.224-.364-.406-.482-.415-.178-.698-.178a1.17 1.17 0 0 0-.622.159 1.23 1.23 0 0 0-.426.444c-.105.191-.186.415-.241.673s-.076.533-.076.838v.254c0 .275.038.529.114.761.081.233.193.434.337.604a1.54 1.54 0 0 0 .533.393c.211.093.451.14.717.14a2.23 2.23 0 0 0 .921-.191c.287-.131.535-.328.742-.59l.889.965c-.144.207-.341.406-.59.596s-.542.347-.889.47-.743.178-1.187.178zm6.106-1.46l1.524-5.535h1.91l-2.316 6.868h-1.156l.038-1.333zm-1.047-5.535l1.53 5.541.031 1.327h-1.161l-2.317-6.868h1.917zm7.23 0v6.868h-1.835v-6.868h1.835zm-1.949-1.79a.86.86 0 0 1 .28-.66c.186-.174.435-.261.749-.261.308 0 .556.087.742.261a.85.85 0 0 1 .286.66c0 .266-.095.486-.286.66s-.434.26-.742.26c-.314 0-.563-.087-.749-.26a.86.86 0 0 1-.28-.66zm6.621 8.785c-.533 0-1.012-.085-1.435-.254a3.15 3.15 0 0 1-1.079-.717c-.292-.305-.516-.658-.673-1.06-.156-.407-.235-.838-.235-1.295v-.254c0-.521.075-.997.223-1.428a3.35 3.35 0 0 1 .634-1.124c.28-.317.618-.561 1.016-.73s.846-.26 1.346-.26c.486 0 .918.08 1.295.241s.692.389.945.686c.259.296.453.651.584 1.066s.197.868.197 1.371v.762h-5.459v-1.219h3.663v-.14c0-.253-.047-.48-.14-.679s-.224-.364-.406-.482-.415-.178-.698-.178c-.242 0-.449.053-.622.159a1.23 1.23 0 0 0-.426.444c-.105.191-.186.415-.241.673s-.076.533-.076.838v.254c0 .275.038.529.114.761s.193.434.337.604a1.53 1.53 0 0 0 .533.393 1.76 1.76 0 0 0 .717.14 2.23 2.23 0 0 0 .921-.191c.287-.131.535-.328.742-.59l.889.965c-.144.207-.341.406-.59.596s-.542.347-.889.47-.743.178-1.187.178zm5.821-1.904l1.428-5.091h1.161l-.374 1.999-1.428 4.869h-.971l.184-1.777zm-.724-5.091l1.022 5.084.095 1.784h-1.142l-1.74-6.868H155zm4.621 5.002l.997-5.002h1.771l-1.74 6.868h-1.136l.108-1.866zm-1.149-5.002l1.422 5.053.197 1.815h-.978l-1.428-4.862-.362-2.006h1.149zm8.55 4.97a.59.59 0 0 0-.114-.355c-.076-.106-.218-.204-.425-.292-.203-.094-.497-.178-.882-.254-.347-.076-.671-.172-.972-.286a3.35 3.35 0 0 1-.774-.425c-.216-.165-.385-.36-.508-.584-.123-.229-.184-.489-.184-.781a1.84 1.84 0 0 1 .184-.813c.127-.253.307-.478.54-.672s.524-.354.863-.464a3.65 3.65 0 0 1 1.155-.171c.597 0 1.109.095 1.536.286s.762.452.991.787c.232.33.349.706.349 1.13h-1.828c0-.178-.038-.337-.115-.477s-.186-.256-.342-.336-.352-.127-.597-.127c-.203 0-.379.036-.527.108s-.262.161-.343.279c-.076.115-.114.241-.114.381 0 .106.021.201.064.286a.69.69 0 0 0 .222.222 1.85 1.85 0 0 0 .393.19c.165.055.368.106.61.153.495.101.937.235 1.326.4.39.16.699.38.927.66s.343.637.343 1.085c0 .305-.068.584-.203.838s-.33.476-.584.667c-.254.186-.559.332-.914.438s-.747.152-1.187.152c-.639 0-1.181-.114-1.625-.343s-.775-.518-1.003-.869a2.02 2.02 0 0 1-.337-1.092h1.733c.009.249.072.45.191.603a1.04 1.04 0 0 0 .463.33c.19.068.396.101.616.101.237 0 .433-.031.59-.095s.275-.156.356-.266a.65.65 0 0 0 .126-.394z" class="E"/><rect x="20.832" y="131.55" width="157.5" height="22.7" rx="3.85" stroke="#aaa" class="F"/></g><g filter="url(#E)"><rect x="116.118" y="241" width="128.6" height="23.8" rx="4.4" class="B"/><path d="M129.343 254.106h-2.355v-1.486h2.355c.364 0 .66-.059.888-.178s.396-.292.502-.507.159-.459.159-.73a1.86 1.86 0 0 0-.159-.768c-.106-.237-.273-.428-.502-.572s-.524-.215-.888-.215h-1.695v7.75h-1.904v-9.242h3.599c.723 0 1.343.131 1.86.393s.918.616 1.193 1.073.413.98.413 1.568c0 .597-.138 1.113-.413 1.549s-.673.772-1.193 1.009-1.137.356-1.86.356zm4.284-.07v-.134c0-.503.072-.967.216-1.39s.354-.797.629-1.111a2.82 2.82 0 0 1 1.015-.73c.402-.177.864-.266 1.384-.266s.984.089 1.39.266.747.417 1.022.73a3.18 3.18 0 0 1 .635 1.111c.144.423.216.887.216 1.39v.134a4.33 4.33 0 0 1-.216 1.39c-.144.423-.356.793-.635 1.111a2.82 2.82 0 0 1-1.015.73c-.402.173-.864.26-1.384.26s-.984-.087-1.39-.26-.743-.417-1.022-.73a3.31 3.31 0 0 1-.629-1.111 4.33 4.33 0 0 1-.216-1.39zm1.829-.134v.134c0 .288.025.556.076.806s.131.47.241.66.262.332.444.438.404.159.667.159c.254 0 .472-.053.654-.159a1.21 1.21 0 0 0 .438-.438c.11-.19.19-.41.241-.66s.082-.518.082-.806v-.134a3.6 3.6 0 0 0-.082-.787 2.1 2.1 0 0 0-.248-.66c-.11-.194-.256-.347-.438-.457s-.402-.165-.66-.165-.478.055-.66.165a1.3 1.3 0 0 0-.438.457c-.11.191-.19.411-.241.66a3.87 3.87 0 0 0-.076.787zm7.629-1.872v5.37h-1.828v-6.868h1.721l.107 1.498zm2.07-1.543l-.032 1.695-.324-.032-.336-.019c-.258 0-.483.034-.673.102-.186.063-.343.159-.47.286a1.25 1.25 0 0 0-.279.463c-.059.182-.093.389-.102.622l-.368-.114c0-.444.045-.853.134-1.225s.218-.705.387-.984a1.94 1.94 0 0 1 .635-.648 1.61 1.61 0 0 1 .856-.228c.102 0 .206.008.312.025s.192.032.26.057zm4.545.045v1.295h-3.999v-1.295h3.999zm-3.009-1.695h1.828v6.494c0 .199.025.351.076.457a.46.46 0 0 0 .241.222c.106.038.24.057.4.057l.305-.013.235-.038.006 1.346a3.44 3.44 0 0 1-.508.121c-.182.029-.383.044-.603.044-.402 0-.753-.066-1.053-.197s-.525-.351-.686-.647-.241-.686-.241-1.168v-6.678zm6.379 8.563h-1.841v-7.478c0-.52.102-.958.305-1.314s.497-.63.87-.812.823-.279 1.339-.279a2.99 2.99 0 0 1 .489.038l.457.082-.019 1.378a1.66 1.66 0 0 0-.254-.045 3.53 3.53 0 0 0-.311-.012c-.22 0-.408.038-.565.114a.76.76 0 0 0-.349.324c-.08.143-.121.319-.121.526v7.478zm1.371-6.868v1.295h-4.233v-1.295h4.233zm.667 3.504v-.134c0-.503.072-.967.216-1.39a3.23 3.23 0 0 1 .628-1.111c.275-.313.614-.556 1.016-.73s.863-.266 1.384-.266.983.089 1.39.266.747.417 1.022.73.491.684.634 1.111.216.887.216 1.39v.134a4.33 4.33 0 0 1-.216 1.39c-.143.423-.355.793-.634 1.111s-.614.556-1.016.73-.863.26-1.384.26-.984-.087-1.39-.26-.743-.417-1.022-.73-.484-.688-.628-1.111a4.33 4.33 0 0 1-.216-1.39zm1.828-.134v.134c0 .288.025.556.076.806s.131.47.241.66a1.27 1.27 0 0 0 .445.438c.182.106.404.159.666.159.254 0 .472-.053.654-.159a1.21 1.21 0 0 0 .438-.438c.11-.19.19-.41.241-.66a3.74 3.74 0 0 0 .083-.806v-.134a3.6 3.6 0 0 0-.083-.787 2.1 2.1 0 0 0-.247-.66c-.11-.194-.256-.347-.438-.457s-.402-.165-.66-.165-.479.055-.661.165-.323.263-.438.457c-.11.191-.19.411-.241.66a3.87 3.87 0 0 0-.076.787zm7.731-6.252v9.75h-1.834v-9.75h1.834zm3.441 2.882v6.868h-1.835v-6.868h1.835zm-1.949-1.79a.86.86 0 0 1 .279-.66c.187-.174.436-.261.75-.261.308 0 .556.087.742.261a.85.85 0 0 1 .286.66c0 .266-.095.486-.286.66s-.434.26-.742.26c-.314 0-.563-.087-.75-.26s-.279-.394-.279-.66zm3.168 5.294v-.134a4.32 4.32 0 0 1 .215-1.39c.144-.427.354-.797.629-1.111s.614-.556 1.016-.73.863-.266 1.383-.266.984.089 1.39.266.747.417 1.022.73.491.684.635 1.111.216.887.216 1.39v.134a4.33 4.33 0 0 1-.216 1.39 3.24 3.24 0 0 1-.635 1.111 2.82 2.82 0 0 1-1.015.73c-.402.173-.863.26-1.384.26s-.984-.087-1.39-.26-.743-.417-1.022-.73a3.31 3.31 0 0 1-.629-1.111 4.36 4.36 0 0 1-.215-1.39zm1.828-.134v.134c0 .288.025.556.076.806s.131.47.241.66a1.26 1.26 0 0 0 .445.438 1.3 1.3 0 0 0 .666.159c.254 0 .472-.053.654-.159a1.21 1.21 0 0 0 .438-.438c.11-.19.19-.41.241-.66a3.74 3.74 0 0 0 .083-.806v-.134a3.6 3.6 0 0 0-.083-.787c-.051-.249-.133-.469-.248-.66s-.256-.347-.438-.457a1.25 1.25 0 0 0-.66-.165c-.258 0-.478.055-.66.165a1.3 1.3 0 0 0-.438.457c-.11.191-.19.411-.241.66a3.87 3.87 0 0 0-.076.787zm12.2 3.625c-.533 0-1.011-.085-1.435-.254a3.16 3.16 0 0 1-1.079-.717c-.292-.305-.516-.658-.673-1.06-.156-.407-.234-.838-.234-1.295v-.254c0-.521.074-.997.222-1.428s.359-.806.635-1.124.617-.561 1.015-.73.847-.26 1.346-.26c.487 0 .918.08 1.295.241a2.54 2.54 0 0 1 .946.686c.258.296.452.651.584 1.066a4.5 4.5 0 0 1 .196 1.371v.762h-5.459v-1.219h3.663v-.14c0-.253-.047-.48-.14-.679s-.224-.364-.406-.482-.415-.178-.698-.178a1.17 1.17 0 0 0-.622.159 1.23 1.23 0 0 0-.426.444c-.105.191-.186.415-.241.673s-.076.533-.076.838v.254c0 .275.038.529.114.762a1.88 1.88 0 0 0 .337.603 1.54 1.54 0 0 0 .533.393c.212.093.451.14.717.14a2.23 2.23 0 0 0 .921-.191c.287-.131.535-.328.742-.59l.889.965c-.144.207-.341.406-.59.596s-.542.347-.889.47-.743.178-1.187.178zm5.332-6.995l1.136 2.088 1.168-2.088h1.949l-1.942 3.358 2.031 3.51h-1.955l-1.238-2.209-1.238 2.209h-1.955l2.031-3.51-1.942-3.358h1.955zm8.849 5.319v-3.059c0-.22-.036-.409-.108-.565a.8.8 0 0 0-.337-.375c-.148-.089-.34-.133-.577-.133-.203 0-.379.036-.527.108s-.263.167-.343.298-.121.277-.121.451h-1.828c0-.292.068-.569.203-.832a2.09 2.09 0 0 1 .591-.692c.258-.203.565-.361.92-.476.36-.114.762-.171 1.206-.171.533 0 1.007.089 1.422.266s.741.445.978.8.361.8.361 1.333v2.939c0 .377.024.686.07.927s.115.444.203.622v.108h-1.847c-.089-.186-.156-.419-.203-.698s-.063-.567-.063-.851zm.241-2.634l.013 1.035h-1.022c-.242 0-.451.027-.629.082a1.16 1.16 0 0 0-.438.235.91.91 0 0 0-.254.343 1.18 1.18 0 0 0-.076.431.85.85 0 0 0 .108.426c.072.122.176.22.311.292a1.06 1.06 0 0 0 .476.101c.275 0 .514-.055.717-.165s.36-.245.47-.406.174-.313.178-.457l.482.774c-.067.174-.161.354-.279.54a2.51 2.51 0 0 1-.438.527c-.178.161-.391.294-.641.4s-.546.152-.889.152c-.436 0-.831-.087-1.187-.26s-.63-.421-.838-.73-.304-.669-.304-1.067c0-.359.067-.679.203-.958s.334-.514.596-.705.599-.34.997-.438.859-.152 1.384-.152h1.06zm4.837-1.263v5.446h-1.835v-6.868h1.721l.114 1.422zm-.254 1.771h-.508c0-.478.057-.919.171-1.321s.29-.757.515-1.053.51-.534.844-.699.721-.247 1.161-.247c.305 0 .584.046.838.14.254.088.472.23.654.425s.33.44.432.749.152.671.152 1.098v4.583h-1.828v-4.38c0-.313-.042-.554-.127-.724a.72.72 0 0 0-.362-.355c-.152-.068-.336-.102-.552-.102a1.28 1.28 0 0 0-.622.146c-.174.098-.317.233-.432.407a1.82 1.82 0 0 0-.254.596c-.055.229-.082.474-.082.737zm4.088-.21l-.654.083c0-.449.055-.866.165-1.251a3.16 3.16 0 0 1 .501-1.015c.225-.292.502-.519.832-.68s.711-.247 1.143-.247c.33 0 .63.049.901.146a1.65 1.65 0 0 1 .692.451c.194.203.343.469.444.799s.159.735.159 1.213v4.386h-1.835v-4.386c0-.318-.042-.559-.127-.724a.66.66 0 0 0-.355-.349 1.33 1.33 0 0 0-.546-.102 1.2 1.2 0 0 0-.578.134c-.165.084-.302.203-.412.355s-.193.33-.248.533a2.45 2.45 0 0 0-.082.654zm7.427-1.663v8.189h-1.829v-9.509h1.695l.134 1.32zm4.348 2.038v.133c0 .499-.06.963-.178 1.39a3.46 3.46 0 0 1-.508 1.117 2.4 2.4 0 0 1-.838.737c-.33.173-.711.26-1.142.26-.419 0-.783-.085-1.092-.254s-.569-.406-.781-.711a4.12 4.12 0 0 1-.501-1.073 8.38 8.38 0 0 1-.292-1.307v-.349c.067-.5.165-.957.292-1.371s.294-.781.501-1.086.47-.548.774-.717.671-.254 1.086-.254c.436 0 .819.082 1.149.247s.613.402.838.711.4.677.514 1.105.178.901.178 1.422zm-1.835.133v-.133c0-.292-.025-.561-.076-.806s-.123-.468-.229-.654-.236-.33-.406-.432c-.165-.106-.366-.159-.603-.159-.249 0-.463.041-.641.121a1.07 1.07 0 0 0-.425.349 1.62 1.62 0 0 0-.248.546 3.49 3.49 0 0 0-.101.717v.883a2.85 2.85 0 0 0 .177.844 1.28 1.28 0 0 0 .451.584c.203.144.47.216.8.216.241 0 .444-.053.609-.159a1.21 1.21 0 0 0 .4-.451c.106-.19.18-.41.222-.66a4.35 4.35 0 0 0 .07-.806zm4.901-6.373v9.75h-1.835v-9.75h1.835zm4.671 9.877c-.533 0-1.011-.085-1.434-.254a3.15 3.15 0 0 1-1.079-.717c-.292-.305-.516-.658-.673-1.06-.157-.407-.235-.838-.235-1.295v-.254c0-.521.074-.997.222-1.428s.36-.806.635-1.124.618-.561 1.016-.73.846-.26 1.345-.26c.487 0 .919.08 1.295.241a2.53 2.53 0 0 1 .946.686 2.95 2.95 0 0 1 .584 1.066 4.5 4.5 0 0 1 .197 1.371v.762h-5.459v-1.219h3.662v-.14c0-.253-.046-.48-.139-.679a1.08 1.08 0 0 0-.406-.482c-.182-.119-.415-.178-.699-.178-.241 0-.448.053-.622.159s-.315.254-.425.444a2.42 2.42 0 0 0-.241.673c-.051.254-.076.533-.076.838v.254c0 .275.038.529.114.762a1.86 1.86 0 0 0 .336.603 1.54 1.54 0 0 0 .533.393 1.77 1.77 0 0 0 .718.14c.33 0 .637-.064.92-.191s.535-.328.743-.59l.888.965c-.143.207-.34.406-.59.596s-.542.347-.889.47-.742.178-1.187.178zm7.573-2.025a.59.59 0 0 0-.114-.355c-.076-.106-.218-.204-.425-.292-.203-.094-.498-.178-.883-.254a6.91 6.91 0 0 1-.971-.286 3.35 3.35 0 0 1-.774-.425c-.216-.165-.385-.36-.508-.584-.123-.229-.184-.489-.184-.781s.061-.559.184-.812.307-.479.539-.673.525-.354.864-.464a3.65 3.65 0 0 1 1.155-.171c.597 0 1.109.095 1.536.286s.762.452.99.787a1.91 1.91 0 0 1 .35 1.13h-1.829c0-.178-.038-.337-.114-.477s-.186-.256-.343-.336c-.152-.085-.351-.127-.596-.127-.203 0-.379.036-.527.108s-.263.161-.343.279-.114.241-.114.381c0 .106.021.201.063.286a.71.71 0 0 0 .222.222c.102.068.233.131.394.19a4.97 4.97 0 0 0 .609.153c.495.101.938.235 1.327.4.389.16.698.38.927.66s.343.637.343 1.085c0 .305-.068.584-.204.838s-.33.476-.584.667c-.253.186-.558.332-.914.438s-.747.152-1.187.152c-.639 0-1.18-.114-1.625-.343s-.774-.518-1.003-.869-.336-.72-.336-1.092h1.733c.008.249.072.45.19.603a1.05 1.05 0 0 0 .464.33 1.81 1.81 0 0 0 .615.101c.237 0 .434-.031.591-.095s.275-.156.355-.266.127-.246.127-.394z" class="E"/><rect x="116.668" y="241.55" width="127.5" height="22.7" rx="3.85" stroke="#aaa" class="F"/></g><g filter="url(#F)"><rect x="223.118" y="110" width="161.6" height="23.8" rx="4.4" class="B"/><path d="M238.101 123.334h1.898c-.038.622-.209 1.174-.514 1.657s-.722.859-1.263 1.13-1.185.406-1.943.406c-.592 0-1.123-.102-1.593-.305a3.38 3.38 0 0 1-1.206-.888 3.96 3.96 0 0 1-.755-1.397c-.174-.546-.261-1.157-.261-1.834v-.641c0-.678.089-1.289.267-1.835s.44-1.018.774-1.403a3.45 3.45 0 0 1 1.213-.888c.47-.208.994-.311 1.574-.311.77 0 1.42.139 1.949.418a3.06 3.06 0 0 1 1.238 1.156c.296.491.473 1.049.533 1.676h-1.905c-.021-.373-.095-.688-.222-.946a1.26 1.26 0 0 0-.577-.591c-.254-.135-.593-.203-1.016-.203-.317 0-.595.059-.832.178s-.435.298-.596.54-.282.545-.362.914-.114.791-.114 1.282v.654c0 .478.036.899.108 1.263s.182.664.33.914a1.53 1.53 0 0 0 .584.558c.241.123.531.185.869.185.398 0 .726-.064.984-.191a1.32 1.32 0 0 0 .591-.565c.139-.249.222-.561.247-.933zm4.964-6.684v9.75h-1.835v-9.75h1.835zm5.573 8.106v-5.224h1.828v6.868h-1.72l-.108-1.644zm.203-1.409l.54-.013c0 .457-.053.882-.159 1.276-.106.389-.264.728-.476 1.016-.211.283-.478.505-.8.666s-.7.235-1.136.235c-.334 0-.643-.047-.927-.14a1.88 1.88 0 0 1-.723-.45c-.199-.208-.356-.472-.47-.794s-.165-.717-.165-1.174v-4.437h1.828v4.45c0 .203.023.374.07.514s.12.254.209.342a.77.77 0 0 0 .311.191 1.37 1.37 0 0 0 .407.057c.376 0 .672-.076.888-.228a1.21 1.21 0 0 0 .464-.623c.093-.266.139-.562.139-.888zm6.386-3.815v1.295h-3.999v-1.295h3.999zm-3.009-1.695h1.828v6.494c0 .199.026.351.077.457s.135.18.241.222.239.057.4.057l.304-.013.235-.038.007 1.346a3.47 3.47 0 0 1-.508.121c-.182.029-.383.044-.603.044-.402 0-.754-.066-1.054-.197a1.45 1.45 0 0 1-.686-.647c-.16-.297-.241-.686-.241-1.168v-6.678zm6.887 7.262a1.35 1.35 0 0 0 .597-.127c.174-.089.309-.212.406-.368s.155-.35.159-.565h1.72c-.004.482-.133.912-.387 1.288s-.594.667-1.022.883-.905.317-1.434.317-.999-.089-1.397-.267a2.73 2.73 0 0 1-.984-.736 3.23 3.23 0 0 1-.59-1.104c-.131-.424-.197-.876-.197-1.359v-.184c0-.487.066-.939.197-1.358.131-.424.328-.792.59-1.105s.591-.565.984-.743.855-.266 1.384-.266c.563 0 1.056.108 1.479.324s.762.524 1.003.926.37.87.374 1.416h-1.72c-.004-.229-.053-.436-.146-.622s-.22-.334-.393-.445-.379-.171-.629-.171c-.266 0-.484.057-.654.171a1.1 1.1 0 0 0-.393.458 2.27 2.27 0 0 0-.197.653c-.034.242-.051.495-.051.762v.184c0 .267.017.523.051.768a2.15 2.15 0 0 0 .19.654 1.16 1.16 0 0 0 .4.451c.17.11.39.165.66.165zm5.726-8.449v9.75h-1.828v-9.75h1.828zm-.26 6.075h-.502a4.67 4.67 0 0 1 .191-1.321c.122-.406.298-.757.527-1.053s.501-.534.818-.699.678-.247 1.067-.247c.338 0 .645.049.92.146.28.093.519.245.718.457s.359.48.469.819.165.749.165 1.231v4.342h-1.84v-4.354c0-.305-.045-.544-.134-.718a.73.73 0 0 0-.374-.374c-.161-.076-.36-.115-.597-.115-.262 0-.487.049-.673.146a1.16 1.16 0 0 0-.438.407c-.11.169-.19.368-.241.596s-.076.474-.076.737zm11.337 2.342l1.523-5.535h1.911l-2.317 6.868h-1.155l.038-1.333zm-1.048-5.535l1.53 5.541.032 1.327h-1.162l-2.317-6.868h1.917zm8.373 6.995c-.533 0-1.011-.085-1.435-.254a3.15 3.15 0 0 1-1.079-.717c-.292-.305-.516-.658-.673-1.06s-.234-.838-.234-1.295v-.254c0-.521.074-.997.222-1.428a3.35 3.35 0 0 1 .634-1.124c.28-.317.618-.561 1.016-.73s.846-.26 1.346-.26c.486 0 .918.08 1.295.241a2.54 2.54 0 0 1 .946.686 2.95 2.95 0 0 1 .583 1.066c.132.411.197.868.197 1.371v.762h-5.459v-1.219h3.663v-.14c0-.253-.047-.48-.14-.679s-.224-.364-.406-.482-.415-.178-.698-.178a1.17 1.17 0 0 0-.622.159 1.23 1.23 0 0 0-.426.444c-.105.191-.186.415-.241.673s-.076.533-.076.838v.254c0 .275.038.529.114.761.081.233.193.434.337.604a1.54 1.54 0 0 0 .533.393c.211.093.451.14.717.14a2.23 2.23 0 0 0 .921-.191c.287-.131.535-.328.742-.59l.889.965c-.144.207-.341.406-.59.596s-.542.347-.889.47-.743.178-1.187.178zm5.687-5.497v5.37h-1.828v-6.868h1.72l.108 1.498zm2.07-1.543l-.032 1.695-.324-.032-.336-.019c-.258 0-.483.034-.673.102s-.343.159-.47.286a1.25 1.25 0 0 0-.279.463c-.059.182-.093.389-.102.622l-.368-.114c0-.444.045-.853.134-1.225s.217-.705.387-.984a1.94 1.94 0 0 1 .635-.648 1.61 1.61 0 0 1 .856-.228c.102 0 .206.008.311.025s.193.032.261.057zm2.793.045v6.868h-1.835v-6.868h1.835zm-1.949-1.79a.86.86 0 0 1 .279-.66c.186-.174.436-.261.749-.261s.557.087.743.261.286.393.286.66-.096.486-.286.66-.434.26-.743.26-.563-.087-.749-.26-.279-.394-.279-.66zm5.745 8.658h-1.835v-7.179c0-.584.119-1.077.356-1.479a2.3 2.3 0 0 1 1.028-.914c.448-.208.99-.311 1.625-.311a5.01 5.01 0 0 1 1.047.108c.339.067.688.156 1.048.266l-.267 1.467-.749-.204c-.267-.063-.588-.095-.965-.095-.423 0-.745.1-.965.299-.215.194-.323.482-.323.863v7.179zm1.364-6.868v1.295h-4.221v-1.295h4.221zm2.755 0v6.868h-1.834v-6.868h1.834zm4.691 6.995c-.533 0-1.011-.085-1.434-.254s-.783-.413-1.08-.717a3.18 3.18 0 0 1-.672-1.06c-.157-.407-.235-.838-.235-1.295v-.254c0-.521.074-.997.222-1.428s.36-.807.635-1.124a2.79 2.79 0 0 1 1.015-.73c.398-.173.847-.26 1.346-.26.487 0 .918.08 1.295.241a2.53 2.53 0 0 1 .946.686 2.95 2.95 0 0 1 .584 1.066 4.5 4.5 0 0 1 .197 1.371v.762h-5.459v-1.219h3.662v-.14c0-.253-.046-.48-.14-.679a1.07 1.07 0 0 0-.406-.482c-.182-.119-.414-.178-.698-.178a1.17 1.17 0 0 0-.622.159c-.174.106-.315.254-.425.444a2.42 2.42 0 0 0-.242.673 4.34 4.34 0 0 0-.076.838v.254c0 .275.038.529.115.761s.192.434.336.604a1.54 1.54 0 0 0 .533.393c.212.093.451.14.717.14a2.23 2.23 0 0 0 .921-.191c.288-.131.535-.328.743-.59l.888.965c-.144.207-.34.406-.59.596s-.542.347-.889.47-.743.178-1.187.178zm7.916-1.625v-8.252h1.841v9.75h-1.657l-.184-1.498zm-4.342-1.854v-.133c0-.525.059-1.001.178-1.428s.292-.802.52-1.111.51-.548.844-.717.716-.254 1.143-.254c.402 0 .753.085 1.054.254s.562.41.774.723.389.675.521 1.099.226.878.285 1.377v.292a7.33 7.33 0 0 1-.285 1.333 4.02 4.02 0 0 1-.521 1.079c-.212.305-.47.542-.774.711s-.66.254-1.067.254c-.427 0-.808-.087-1.142-.26a2.43 2.43 0 0 1-.838-.73c-.224-.313-.396-.682-.514-1.105s-.178-.884-.178-1.384zm1.828-.133v.133c0 .284.021.548.063.794a2.3 2.3 0 0 0 .223.654c.105.186.241.332.406.438a1.18 1.18 0 0 0 .616.152c.313 0 .571-.07.774-.209s.358-.341.463-.591.174-.537.191-.863v-.832a3.04 3.04 0 0 0-.114-.717c-.06-.216-.149-.4-.267-.552a1.18 1.18 0 0 0-.432-.356 1.34 1.34 0 0 0-.603-.127c-.237 0-.44.055-.609.165s-.307.252-.413.438-.177.407-.228.661-.07.52-.07.812zm10.848-2.063v8.189h-1.828v-9.509h1.695l.133 1.32zm4.348 2.038v.133c0 .499-.059.963-.177 1.39a3.48 3.48 0 0 1-.508 1.117c-.225.314-.504.559-.838.737s-.711.26-1.143.26c-.419 0-.783-.085-1.092-.254a2.27 2.27 0 0 1-.78-.711c-.208-.309-.375-.666-.502-1.073s-.224-.842-.292-1.307v-.349c.068-.5.165-.957.292-1.371s.294-.781.502-1.086.469-.548.774-.717.671-.254 1.086-.254c.435 0 .818.082 1.149.247s.613.402.837.711a3.25 3.25 0 0 1 .515 1.105c.118.427.177.901.177 1.422zm-1.834.133v-.133c0-.292-.026-.561-.076-.806-.047-.25-.123-.468-.229-.654s-.237-.33-.406-.432-.366-.159-.603-.159a1.55 1.55 0 0 0-.641.121 1.07 1.07 0 0 0-.426.349 1.62 1.62 0 0 0-.247.546c-.055.212-.089.451-.102.717v.883a2.85 2.85 0 0 0 .178.844c.097.245.248.44.451.584s.469.216.8.216c.241 0 .444-.053.609-.159a1.22 1.22 0 0 0 .4-.451c.106-.19.18-.41.222-.66a4.35 4.35 0 0 0 .07-.806zm4.799-1.993v5.37h-1.828v-6.868h1.72l.108 1.498zm2.069-1.543l-.032 1.695-.323-.032-.337-.019c-.258 0-.482.034-.673.102s-.343.159-.469.286a1.25 1.25 0 0 0-.28.463c-.059.182-.093.389-.101.622l-.368-.114a5.27 5.27 0 0 1 .133-1.225c.089-.377.218-.705.387-.984a1.95 1.95 0 0 1 .635-.648c.249-.152.535-.228.857-.228.101 0 .205.008.311.025a1.18 1.18 0 0 1 .26.057zm.381 3.549v-.134c0-.503.072-.967.216-1.39a3.23 3.23 0 0 1 .628-1.111c.275-.313.614-.556 1.016-.73s.863-.266 1.384-.266.983.089 1.39.266.747.417 1.022.73.491.684.634 1.111.216.887.216 1.39v.134a4.33 4.33 0 0 1-.216 1.39c-.143.423-.355.793-.634 1.111-.275.313-.614.556-1.016.73s-.863.26-1.384.26-.984-.087-1.39-.26-.743-.417-1.022-.73c-.275-.318-.484-.688-.628-1.111a4.33 4.33 0 0 1-.216-1.39zm1.828-.134v.134c0 .287.025.556.076.806s.131.47.241.66a1.27 1.27 0 0 0 .445.438c.182.106.404.159.666.159.254 0 .472-.053.654-.159a1.21 1.21 0 0 0 .438-.438c.11-.19.19-.41.241-.66a3.75 3.75 0 0 0 .083-.806v-.134a3.6 3.6 0 0 0-.083-.787 2.1 2.1 0 0 0-.247-.66c-.11-.194-.256-.347-.438-.457s-.402-.165-.66-.165-.479.055-.661.165-.323.263-.438.457-.19.411-.241.66a3.87 3.87 0 0 0-.076.787zm8.036 2.165l1.524-5.535h1.91l-2.317 6.868h-1.155l.038-1.333zm-1.047-5.535l1.53 5.541.031 1.327h-1.161l-2.317-6.868h1.917zm7.23 0v6.868h-1.835v-6.868h1.835zm-1.949-1.79a.86.86 0 0 1 .279-.66c.186-.174.436-.261.749-.261s.557.087.743.261.286.393.286.66-.096.486-.286.66-.434.26-.743.26-.563-.087-.749-.26-.279-.394-.279-.66zm7.516 7.16v-8.252h1.84v9.75H354.2l-.184-1.498zm-4.342-1.854v-.133c0-.525.059-1.001.178-1.428s.292-.802.52-1.111.51-.548.844-.717a2.5 2.5 0 0 1 1.143-.254c.402 0 .753.085 1.054.254s.562.41.774.723.389.675.521 1.099.226.878.285 1.377v.292a7.33 7.33 0 0 1-.285 1.333 4.02 4.02 0 0 1-.521 1.079c-.212.305-.47.542-.774.711s-.661.254-1.067.254c-.427 0-.808-.087-1.142-.26a2.43 2.43 0 0 1-.838-.73c-.225-.313-.396-.682-.514-1.105s-.178-.884-.178-1.384zm1.828-.133v.133c0 .284.021.548.063.794a2.3 2.3 0 0 0 .223.654c.105.186.241.332.406.438a1.18 1.18 0 0 0 .616.152c.313 0 .571-.07.774-.209s.358-.341.463-.591.174-.537.191-.863v-.832a3.04 3.04 0 0 0-.114-.717c-.06-.216-.149-.4-.267-.552a1.18 1.18 0 0 0-.432-.356 1.34 1.34 0 0 0-.603-.127c-.237 0-.44.055-.609.165s-.307.252-.413.438-.177.407-.228.661-.07.52-.07.812zm8.944 3.612c-.533 0-1.012-.085-1.435-.254a3.15 3.15 0 0 1-1.079-.717c-.292-.305-.516-.658-.673-1.06s-.235-.838-.235-1.295v-.254c0-.521.074-.997.223-1.428a3.35 3.35 0 0 1 .634-1.124c.28-.317.618-.561 1.016-.73s.846-.26 1.346-.26c.486 0 .918.08 1.295.241s.691.389.945.686.453.651.584 1.066.197.868.197 1.371v.762h-5.459v-1.219h3.663v-.14c0-.253-.047-.48-.14-.679s-.224-.364-.406-.482-.415-.178-.698-.178c-.242 0-.449.053-.622.159a1.23 1.23 0 0 0-.426.444 2.42 2.42 0 0 0-.241.673c-.051.254-.076.533-.076.838v.254c0 .275.038.529.114.761s.193.434.337.604a1.53 1.53 0 0 0 .533.393 1.76 1.76 0 0 0 .717.14c.33 0 .637-.064.92-.191a1.99 1.99 0 0 0 .743-.59l.889.965a2.7 2.7 0 0 1-.591.596c-.245.191-.541.347-.888.47s-.743.178-1.187.178zm5.687-5.497v5.37h-1.828v-6.868h1.72l.108 1.498zm2.07-1.543l-.032 1.695-.324-.032-.336-.019c-.258 0-.483.034-.673.102s-.343.159-.47.286-.216.281-.279.463-.093.389-.102.622l-.368-.114c0-.444.045-.853.133-1.225s.218-.705.388-.984.385-.495.634-.648.536-.228.857-.228c.102 0 .206.008.311.025s.193.032.261.057zm4.576 5.015a.59.59 0 0 0-.114-.355c-.076-.106-.218-.204-.425-.292-.203-.094-.497-.178-.883-.254a6.91 6.91 0 0 1-.971-.286 3.35 3.35 0 0 1-.774-.425c-.216-.165-.385-.36-.508-.584s-.184-.489-.184-.781a1.84 1.84 0 0 1 .184-.813c.127-.253.307-.478.54-.672.237-.199.524-.354.863-.464a3.65 3.65 0 0 1 1.155-.171c.597 0 1.109.095 1.536.286.432.19.762.452.99.787a1.91 1.91 0 0 1 .35 1.13h-1.829c0-.178-.038-.337-.114-.477s-.186-.256-.343-.336c-.152-.085-.351-.127-.596-.127-.203 0-.379.036-.527.108s-.262.161-.343.279-.114.241-.114.381c0 .106.021.201.063.286s.121.154.223.222a1.85 1.85 0 0 0 .393.19 4.97 4.97 0 0 0 .609.153 6.95 6.95 0 0 1 1.327.4c.389.16.698.38.927.66s.343.637.343 1.085c0 .305-.068.584-.203.838s-.331.476-.584.667-.559.332-.915.438-.746.152-1.187.152c-.639 0-1.18-.114-1.625-.343s-.774-.518-1.002-.869a2.02 2.02 0 0 1-.337-1.092h1.733c.008.249.072.45.19.603a1.05 1.05 0 0 0 .464.33c.19.068.395.101.616.101.237 0 .433-.031.59-.095a.84.84 0 0 0 .355-.266c.085-.115.127-.246.127-.394z" class="E"/><rect x="223.668" y="110.55" width="160.5" height="22.7" rx="3.85" stroke="#aaa" class="F"/></g><defs><filter id="A" x="62.134" y=".63" width="308.031" height="270.025" filterUnits="userSpaceOnUse" class="C"><feFlood result="A" class="D"/><feColorMatrix in="SourceAlpha" values="0 0 0 0 0 0 0 0 0 0 0 0 0 0 0 0 0 0 127 0"/><feOffset/><feGaussianBlur stdDeviation="3.185"/><feColorMatrix values="0 0 0 0 0 0 0 0 0 0 0 0 0 0 0 0 0 0 0.16 0"/><feBlend in2="A"/><feBlend in="SourceGraphic"/></filter><filter id="B" x="42.906" y="28.243" width="308.031" height="270.025" filterUnits="userSpaceOnUse" class="C"><feFlood result="A" class="D"/><feColorMatrix in="SourceAlpha" values="0 0 0 0 0 0 0 0 0 0 0 0 0 0 0 0 0 0 127 0"/><feOffset/><feGaussianBlur stdDeviation="3.185"/><feColorMatrix values="0 0 0 0 0 0 0 0 0 0 0 0 0 0 0 0 0 0 0.16 0"/><feBlend in2="A"/><feBlend in="SourceGraphic"/></filter><filter id="C" x="26.424" y="51.729" width="308.031" height="270.025" filterUnits="userSpaceOnUse" class="C"><feFlood result="A" class="D"/><feColorMatrix in="SourceAlpha" values="0 0 0 0 0 0 0 0 0 0 0 0 0 0 0 0 0 0 127 0"/><feOffset/><feGaussianBlur stdDeviation="3.185"/><feColorMatrix values="0 0 0 0 0 0 0 0 0 0 0 0 0 0 0 0 0 0 0.16 0"/><feBlend in2="A"/><feBlend in="SourceGraphic"/></filter><filter id="D" x=".282" y="121" width="198.6" height="63.8" filterUnits="userSpaceOnUse" class="C"><feFlood result="A" class="D"/><feColorMatrix in="SourceAlpha" values="0 0 0 0 0 0 0 0 0 0 0 0 0 0 0 0 0 0 127 0"/><feOffset/><feGaussianBlur stdDeviation=".5"/><feColorMatrix values="0 0 0 0 0 0 0 0 0 0 0 0 0 0 0 0 0 0 0.08 0"/><feBlend in2="A" result="C"/><feColorMatrix in="SourceAlpha" values="0 0 0 0 0 0 0 0 0 0 0 0 0 0 0 0 0 0 127 0"/><feOffset dy="2"/><feGaussianBlur stdDeviation="3"/><feColorMatrix values="0 0 0 0 0 0 0 0 0 0 0 0 0 0 0 0 0 0 0.08 0"/><feBlend in2="C" result="D"/><feColorMatrix in="SourceAlpha" values="0 0 0 0 0 0 0 0 0 0 0 0 0 0 0 0 0 0 127 0"/><feOffset dy="10"/><feGaussianBlur stdDeviation="10"/><feColorMatrix values="0 0 0 0 0 0 0 0 0 0 0 0 0 0 0 0 0 0 0.08 0"/><feBlend in2="D"/><feBlend in="SourceGraphic"/></filter><filter id="E" x="96.119" y="231" width="168.6" height="63.8" filterUnits="userSpaceOnUse" class="C"><feFlood result="A" class="D"/><feColorMatrix in="SourceAlpha" values="0 0 0 0 0 0 0 0 0 0 0 0 0 0 0 0 0 0 127 0"/><feOffset/><feGaussianBlur stdDeviation=".5"/><feColorMatrix values="0 0 0 0 0 0 0 0 0 0 0 0 0 0 0 0 0 0 0.08 0"/><feBlend in2="A" result="C"/><feColorMatrix in="SourceAlpha" values="0 0 0 0 0 0 0 0 0 0 0 0 0 0 0 0 0 0 127 0"/><feOffset dy="2"/><feGaussianBlur stdDeviation="3"/><feColorMatrix values="0 0 0 0 0 0 0 0 0 0 0 0 0 0 0 0 0 0 0.08 0"/><feBlend in2="C" result="D"/><feColorMatrix in="SourceAlpha" values="0 0 0 0 0 0 0 0 0 0 0 0 0 0 0 0 0 0 127 0"/><feOffset dy="10"/><feGaussianBlur stdDeviation="10"/><feColorMatrix values="0 0 0 0 0 0 0 0 0 0 0 0 0 0 0 0 0 0 0.08 0"/><feBlend in2="D"/><feBlend in="SourceGraphic"/></filter><filter id="F" x="203.118" y="100" width="201.6" height="63.8" filterUnits="userSpaceOnUse" class="C"><feFlood result="A" class="D"/><feColorMatrix in="SourceAlpha" values="0 0 0 0 0 0 0 0 0 0 0 0 0 0 0 0 0 0 127 0"/><feOffset/><feGaussianBlur stdDeviation=".5"/><feColorMatrix values="0 0 0 0 0 0 0 0 0 0 0 0 0 0 0 0 0 0 0.08 0"/><feBlend in2="A" result="C"/><feColorMatrix in="SourceAlpha" values="0 0 0 0 0 0 0 0 0 0 0 0 0 0 0 0 0 0 127 0"/><feOffset dy="2"/><feGaussianBlur stdDeviation="3"/><feColorMatrix values="0 0 0 0 0 0 0 0 0 0 0 0 0 0 0 0 0 0 0.08 0"/><feBlend in2="C" result="D"/><feColorMatrix in="SourceAlpha" values="0 0 0 0 0 0 0 0 0 0 0 0 0 0 0 0 0 0 127 0"/><feOffset dy="10"/><feGaussianBlur stdDeviation="10"/><feColorMatrix values="0 0 0 0 0 0 0 0 0 0 0 0 0 0 0 0 0 0 0.08 0"/><feBlend in2="D"/><feBlend in="SourceGraphic"/></filter></defs></svg>