<svg xmlns="http://www.w3.org/2000/svg" xmlns:xlink="http://www.w3.org/1999/xlink" fill="none" viewBox="0 0 396 258"><style><![CDATA[.B{fill:#fff}.C{color-interpolation-filters:sRGB}.D{flood-opacity:0}.E{stroke:#aaa}.F{fill:#4a5255}.G{fill:#d9d9d9}.H{stroke:#e3e3e3}.I{stroke-linecap:round}.J{stroke-width:1.1}.K{stroke-width:16.2}]]></style><g opacity=".8"><g filter="url(#F)"><rect x="50.925" y="22" width="293.4" height="55.35" rx="5.4" class="B"/><rect x="51.6" y="22.675" width="292.05" height="54" rx="4.725" stroke-width="1.35" class="E"/></g><mask id="A" maskUnits="userSpaceOnUse" x="301" y="35" width="28" height="28" mask-type="alpha"><path fill="#bdbdbd" d="M301.574 35.5h27v27h-27z"/></mask><g mask="url(#A)"><path d="M323.624 59.125l-7.087-7.087c-.563.45-1.209.806-1.941 1.069s-1.509.394-2.334.394c-2.044 0-3.773-.708-5.189-2.123s-2.124-3.145-2.124-5.189.708-3.773 2.124-5.189 3.145-2.123 5.189-2.123 3.773.708 5.189 2.123 2.123 3.145 2.123 5.189a6.87 6.87 0 0 1-.393 2.334c-.263.731-.619 1.378-1.069 1.941l7.087 7.087-1.575 1.575zm-11.362-7.875a4.88 4.88 0 0 0 3.586-1.477 4.88 4.88 0 0 0 1.476-3.586 4.88 4.88 0 0 0-1.476-3.586 4.88 4.88 0 0 0-3.586-1.477 4.88 4.88 0 0 0-3.586 1.477 4.88 4.88 0 0 0-1.477 3.586 4.88 4.88 0 0 0 1.477 3.586 4.88 4.88 0 0 0 3.586 1.477z" fill="#bdbdbd"/></g><path d="M81.219 55.73v2.07h-9.598v-2.07h9.598zm-9.097-17.126V57.8h-2.544V38.605h2.544zm10.995 12.221v-.303c0-1.028.149-1.982.448-2.861.299-.888.729-1.657 1.292-2.307.563-.659 1.244-1.169 2.044-1.529.8-.369 1.696-.554 2.689-.554 1.002 0 1.903.184 2.703.554.809.36 1.494.87 2.057 1.529.571.65 1.006 1.419 1.305 2.307.299.879.448 1.833.448 2.861v.303c0 1.028-.149 1.982-.448 2.861s-.734 1.648-1.305 2.307a5.98 5.98 0 0 1-2.044 1.529c-.791.36-1.687.541-2.689.541s-1.903-.18-2.703-.541c-.8-.369-1.485-.879-2.057-1.529-.562-.659-.993-1.428-1.292-2.307s-.448-1.833-.448-2.861zm2.439-.303v.303c0 .712.084 1.384.251 2.017a5.31 5.31 0 0 0 .752 1.661c.343.483.769.866 1.279 1.147.51.272 1.103.409 1.78.409.668 0 1.252-.136 1.753-.409a3.68 3.68 0 0 0 1.266-1.147 5.31 5.31 0 0 0 .752-1.661c.176-.633.264-1.305.264-2.017v-.303a7.31 7.31 0 0 0-.264-1.991c-.167-.633-.422-1.191-.765-1.674-.334-.492-.756-.879-1.266-1.16-.501-.281-1.09-.422-1.767-.422-.668 0-1.257.141-1.767.422-.501.281-.923.668-1.266 1.16-.334.483-.585 1.041-.752 1.674-.167.624-.251 1.288-.251 1.991zm19.314 5.537c.58 0 1.117-.119 1.609-.356a3.32 3.32 0 0 0 1.213-.976 2.72 2.72 0 0 0 .54-1.437h2.321c-.044.844-.33 1.63-.857 2.36-.519.721-1.2 1.305-2.044 1.753-.844.439-1.771.659-2.782.659-1.072 0-2.008-.189-2.808-.567a5.56 5.56 0 0 1-1.977-1.556c-.519-.659-.91-1.415-1.174-2.268-.255-.861-.382-1.771-.382-2.729v-.554c0-.958.127-1.863.382-2.716.264-.861.655-1.622 1.174-2.281a5.56 5.56 0 0 1 1.977-1.556c.8-.378 1.736-.567 2.808-.567 1.117 0 2.092.228 2.927.685.835.448 1.49 1.063 1.965 1.846.483.773.747 1.652.791 2.637h-2.321c-.044-.589-.211-1.121-.501-1.595-.281-.475-.668-.852-1.16-1.134-.483-.29-1.05-.435-1.701-.435-.747 0-1.375.149-1.885.448-.501.29-.901.686-1.2 1.187-.29.492-.501 1.041-.632 1.648-.123.598-.185 1.209-.185 1.832v.554a9.26 9.26 0 0 0 .185 1.846 5.29 5.29 0 0 0 .619 1.648c.299.492.699.888 1.2 1.186.51.29 1.143.435 1.898.435zm16.836-.699v-7.343c0-.562-.114-1.05-.343-1.463-.22-.422-.554-.747-1.002-.976s-1.002-.343-1.661-.343c-.615 0-1.156.106-1.622.316-.457.211-.817.488-1.081.831-.255.343-.382.712-.382 1.107h-2.439c0-.51.132-1.015.396-1.516s.641-.954 1.133-1.358c.501-.413 1.099-.738 1.793-.976.703-.246 1.486-.369 2.347-.369 1.037 0 1.951.176 2.742.527.8.352 1.424.883 1.872 1.595.457.703.686 1.587.686 2.65v6.645a10.42 10.42 0 0 0 .118 1.516c.088.536.216.998.383 1.384v.211h-2.545c-.123-.281-.219-.655-.29-1.121-.07-.475-.105-.914-.105-1.318zm.422-6.209l.026 1.714h-2.465c-.695 0-1.314.057-1.859.171-.545.105-1.002.268-1.371.488s-.651.497-.844.831c-.193.325-.29.707-.29 1.147a2.51 2.51 0 0 0 .303 1.226c.202.369.506.664.91.883.413.211.918.316 1.516.316.747 0 1.406-.158 1.978-.475s1.023-.703 1.357-1.16c.343-.457.528-.901.554-1.332l1.042 1.173c-.062.369-.229.778-.501 1.226s-.638.879-1.095 1.292c-.448.404-.984.743-1.608 1.015-.615.264-1.31.395-2.083.395-.967 0-1.815-.189-2.544-.567-.721-.378-1.284-.883-1.688-1.516-.395-.642-.593-1.358-.593-2.149 0-.765.149-1.437.448-2.017a3.9 3.9 0 0 1 1.292-1.463c.563-.396 1.239-.694 2.03-.897s1.675-.303 2.65-.303h2.835zm11.825-5.616v1.872h-7.712v-1.872h7.712zm-5.102-3.467h2.439v14.199c0 .483.075.848.224 1.094s.343.409.581.488a2.4 2.4 0 0 0 .764.119 4.01 4.01 0 0 0 .633-.053l.514-.105.013 1.991c-.193.062-.448.119-.764.171-.308.061-.681.092-1.121.092a3.8 3.8 0 0 1-1.648-.356c-.501-.237-.901-.633-1.2-1.187-.29-.562-.435-1.318-.435-2.268V40.068zm10.613 3.467V57.8h-2.452V43.535h2.452zm-2.637-3.784c0-.396.119-.729.356-1.002.246-.272.607-.409 1.081-.409.466 0 .822.136 1.068.409a1.41 1.41 0 0 1 .383 1.002 1.38 1.38 0 0 1-.383.976c-.246.264-.602.395-1.068.395-.474 0-.835-.132-1.081-.395-.237-.272-.356-.598-.356-.976zm5.907 11.074v-.303c0-1.028.149-1.982.448-2.861.299-.888.729-1.657 1.292-2.307.562-.659 1.244-1.169 2.043-1.529.8-.369 1.697-.554 2.69-.554 1.002 0 1.903.184 2.702.554.809.36 1.495.87 2.057 1.529.571.65 1.006 1.419 1.305 2.307.299.879.449 1.833.449 2.861v.303c0 1.028-.15 1.982-.449 2.861s-.734 1.648-1.305 2.307a5.98 5.98 0 0 1-2.043 1.529c-.791.36-1.688.541-2.69.541s-1.903-.18-2.702-.541a6.11 6.11 0 0 1-2.057-1.529c-.563-.659-.993-1.428-1.292-2.307s-.448-1.833-.448-2.861zm2.439-.303v.303c0 .712.083 1.384.25 2.017a5.31 5.31 0 0 0 .752 1.661 3.8 3.8 0 0 0 1.278 1.147c.51.272 1.103.409 1.78.409.668 0 1.253-.136 1.754-.409.509-.281.931-.664 1.265-1.147a5.31 5.31 0 0 0 .752-1.661c.175-.633.263-1.305.263-2.017v-.303c0-.703-.088-1.367-.263-1.991-.167-.633-.422-1.191-.765-1.674-.334-.492-.756-.879-1.266-1.16-.501-.281-1.089-.422-1.766-.422-.668 0-1.257.141-1.767.422-.501.281-.923.668-1.265 1.16-.334.483-.585 1.041-.752 1.674-.167.624-.25 1.288-.25 1.991zm16.044-3.942V57.8h-2.439V43.535h2.307l.132 3.045zm-.58 3.546l-1.015-.039c.009-.976.154-1.876.435-2.703.281-.835.677-1.56 1.186-2.175a5.29 5.29 0 0 1 1.82-1.424c.712-.343 1.498-.514 2.36-.514.703 0 1.336.097 1.898.29.563.185 1.042.483 1.437.896.404.413.712.949.923 1.608.211.65.316 1.446.316 2.386V57.8h-2.452v-9.373c0-.747-.11-1.345-.329-1.793-.22-.457-.541-.787-.963-.989-.422-.211-.94-.316-1.555-.316-.607 0-1.161.127-1.662.382a3.97 3.97 0 0 0-1.278 1.055c-.352.448-.629.962-.831 1.542-.193.571-.29 1.178-.29 1.819z" class="F"/></g><g filter="url(#G)"><rect x="51.126" y="71" width="293.4" height="55.35" rx="5.4" fill="#2c599d"/></g><mask id="B" maskUnits="userSpaceOnUse" x="301" y="84" width="28" height="28" mask-type="alpha"><path d="M301.776 84.5h27v27h-27z" class="G"/></mask><g mask="url(#B)" class="B"><use xlink:href="#O"/></g><path d="M72.508 87.605V106.8h-2.544V87.605h2.544zm6.697 7.976V106.8h-2.439V92.535h2.307l.132 3.045zm-.58 3.546l-1.015-.04c.009-.976.154-1.876.435-2.703.281-.835.677-1.56 1.187-2.175s1.116-1.09 1.819-1.424c.712-.343 1.498-.514 2.36-.514.703 0 1.336.097 1.898.29a3.44 3.44 0 0 1 1.437.897c.404.413.712.949.923 1.608.211.65.316 1.446.316 2.386v9.347h-2.452v-9.373c0-.747-.11-1.345-.33-1.793-.22-.457-.541-.787-.962-.989-.422-.211-.94-.316-1.556-.316a3.61 3.61 0 0 0-1.661.382c-.492.255-.918.606-1.279 1.055-.352.448-.628.962-.831 1.543-.193.571-.29 1.178-.29 1.819zm22.056 4.904V86.55h2.453v20.25h-2.242l-.211-2.769zm-9.597-4.205v-.277c0-1.09.132-2.079.395-2.966.273-.897.655-1.666 1.147-2.307.501-.642 1.094-1.134 1.78-1.477.694-.352 1.468-.527 2.32-.527.896 0 1.679.158 2.347.475.677.308 1.248.76 1.714 1.358.475.589.848 1.301 1.121 2.136s.461 1.78.566 2.834v1.213c-.096 1.046-.285 1.987-.566 2.822-.273.835-.646 1.546-1.121 2.135-.466.589-1.037 1.042-1.714 1.358-.677.308-1.468.462-2.373.462-.835 0-1.6-.181-2.294-.541-.686-.36-1.279-.866-1.78-1.516-.492-.65-.874-1.415-1.147-2.294a10.1 10.1 0 0 1-.395-2.887zm2.452-.277v.277c0 .712.07 1.38.211 2.004.149.624.378 1.173.686 1.648s.699.848 1.173 1.12c.475.264 1.041.396 1.701.396.809 0 1.472-.172 1.991-.514.527-.343.949-.796 1.266-1.358s.562-1.174.738-1.833v-3.177c-.105-.483-.259-.949-.461-1.397-.194-.457-.449-.861-.765-1.213-.308-.36-.69-.646-1.147-.857-.448-.211-.98-.316-1.595-.316-.668 0-1.244.141-1.727.422-.475.272-.866.65-1.173 1.134-.308.475-.536 1.028-.686 1.661-.141.624-.211 1.292-.211 2.004zm22.122 3.955V92.535h2.452V106.8h-2.333l-.119-3.296zm.461-3.006l1.016-.026c0 .949-.102 1.828-.304 2.637-.193.799-.509 1.494-.949 2.083s-1.015 1.05-1.727 1.384c-.712.325-1.578.488-2.597.488-.694 0-1.332-.101-1.912-.304-.571-.202-1.063-.514-1.476-.936s-.734-.971-.963-1.648c-.219-.676-.329-1.489-.329-2.438v-9.203h2.439v9.229c0 .641.07 1.173.211 1.595.149.413.347.743.593.989.255.237.536.404.844.501.316.097.641.145.975.145 1.037 0 1.859-.198 2.466-.593.606-.405 1.041-.945 1.305-1.622.272-.686.408-1.446.408-2.281zm14.015 2.518c0-.351-.08-.676-.238-.975-.149-.308-.461-.585-.936-.831-.466-.255-1.169-.474-2.109-.659-.791-.167-1.507-.365-2.149-.593-.633-.228-1.173-.505-1.622-.831-.439-.325-.777-.708-1.015-1.147s-.356-.954-.356-1.542a3.57 3.57 0 0 1 .369-1.595c.255-.501.611-.945 1.068-1.332.466-.387 1.024-.69 1.675-.91s1.375-.33 2.175-.33c1.142 0 2.118.202 2.927.606s1.428.945 1.859 1.622a4.03 4.03 0 0 1 .646 2.228h-2.439c0-.395-.119-.778-.356-1.147-.229-.378-.567-.69-1.016-.936-.439-.246-.98-.369-1.621-.369-.677 0-1.226.106-1.648.316-.413.202-.716.461-.91.778-.184.316-.277.65-.277 1.002 0 .264.044.501.132.712.097.202.264.391.501.567.238.167.572.325 1.002.475s.98.299 1.648.448c1.169.264 2.131.58 2.887.949s1.319.821 1.688 1.358.554 1.186.554 1.951c0 .624-.132 1.195-.396 1.714-.255.518-.628.966-1.121 1.344-.483.369-1.063.66-1.74.87-.668.203-1.419.304-2.254.304-1.257 0-2.32-.224-3.191-.673s-1.529-1.028-1.977-1.74-.673-1.463-.673-2.254h2.453c.035.668.228 1.199.58 1.595a2.95 2.95 0 0 0 1.292.83c.509.159 1.015.238 1.516.238.668 0 1.226-.088 1.674-.264.457-.176.804-.417 1.042-.725a1.68 1.68 0 0 0 .356-1.055zm11.614-10.481v1.872h-7.712v-1.872h7.712zm-5.102-3.467h2.439v14.199c0 .483.075.848.224 1.094s.343.409.58.488.493.118.765.118a4.03 4.03 0 0 0 .633-.052l.514-.106.013 1.991c-.193.062-.448.119-.764.171-.308.062-.682.093-1.121.093-.598 0-1.147-.119-1.648-.356s-.901-.633-1.2-1.187c-.29-.562-.435-1.318-.435-2.267V89.068zm10.402 5.709V106.8h-2.439V92.535h2.373l.066 2.241zm4.456-2.32l-.013 2.267a3.52 3.52 0 0 0-.58-.079 6.2 6.2 0 0 0-.607-.026c-.562 0-1.059.088-1.489.264s-.796.422-1.094.738-.537.694-.712 1.134a5.46 5.46 0 0 0-.33 1.424l-.686.396c0-.861.084-1.67.251-2.426.176-.756.444-1.424.804-2.004a3.94 3.94 0 0 1 1.371-1.371c.563-.334 1.231-.501 2.004-.501.176 0 .378.022.607.066.228.035.386.075.474.119zm6.5 12.867l3.968-12.788h2.61l-5.721 16.467c-.132.351-.308.729-.528 1.133-.211.414-.483.805-.817 1.174a3.88 3.88 0 0 1-1.213.896c-.466.238-1.024.356-1.674.356-.194 0-.44-.026-.739-.079l-.632-.132-.014-1.977.33.026.33.026c.553 0 1.024-.074 1.41-.224a2.13 2.13 0 0 0 .976-.725c.272-.334.505-.795.699-1.384l1.015-2.769zm-2.914-12.788l3.705 11.075.633 2.57-1.754.897-5.247-14.542h2.663z" class="B"/><g filter="url(#H)"><rect x="51.126" y="76" width="293.4" height="55.35" rx="5.4" fill="#3368b6"/></g><mask id="C" maskUnits="userSpaceOnUse" x="301" y="89" width="28" height="28" mask-type="alpha"><path d="M301.776 89.5h27v27h-27z" class="G"/></mask><g mask="url(#C)" class="B"><use xlink:href="#O" y="5"/></g><path d="M72.508 92.605V111.8h-2.544V92.605h2.544zm6.697 7.976V111.8h-2.439V97.535h2.307l.132 3.046zm-.58 3.546l-1.015-.039c.009-.976.154-1.877.435-2.703.281-.835.677-1.56 1.187-2.175s1.116-1.09 1.819-1.424c.712-.343 1.498-.514 2.36-.514.703 0 1.336.097 1.898.29a3.44 3.44 0 0 1 1.437.897c.404.413.712.949.923 1.609.211.65.316 1.445.316 2.386v9.347h-2.452v-9.374c0-.747-.11-1.344-.33-1.793-.22-.457-.541-.786-.962-.988-.422-.211-.94-.316-1.556-.316a3.61 3.61 0 0 0-1.661.382c-.492.255-.918.606-1.279 1.054a5.32 5.32 0 0 0-.831 1.543c-.193.571-.29 1.178-.29 1.819zm22.056 4.904V91.55h2.453v20.25h-2.242l-.211-2.769zm-9.597-4.205v-.277c0-1.09.132-2.079.395-2.966.273-.897.655-1.666 1.147-2.307.501-.642 1.094-1.134 1.78-1.477.694-.352 1.468-.527 2.32-.527.896 0 1.679.158 2.347.475.677.308 1.248.76 1.714 1.358.475.589.848 1.301 1.121 2.136s.461 1.78.566 2.834v1.213c-.096 1.046-.285 1.987-.566 2.822-.273.835-.646 1.546-1.121 2.135-.466.589-1.037 1.042-1.714 1.358-.677.308-1.468.462-2.373.462-.835 0-1.6-.181-2.294-.541-.686-.36-1.279-.866-1.78-1.516-.492-.65-.874-1.415-1.147-2.294-.264-.888-.395-1.85-.395-2.887zm2.452-.277v.277c0 .712.07 1.38.211 2.004.149.624.378 1.173.686 1.648s.699.848 1.173 1.12c.475.264 1.041.396 1.701.396.809 0 1.472-.172 1.991-.514.527-.343.949-.796 1.266-1.358s.562-1.174.738-1.833v-3.177c-.105-.483-.259-.949-.461-1.397a4.32 4.32 0 0 0-.765-1.213 3.3 3.3 0 0 0-1.147-.857c-.448-.211-.98-.316-1.595-.316-.668 0-1.244.141-1.727.422a3.37 3.37 0 0 0-1.173 1.134c-.308.475-.536 1.028-.686 1.661-.141.624-.211 1.292-.211 2.004zm22.122 3.955V97.535h2.452V111.8h-2.333l-.119-3.296zm.461-3.006l1.016-.026c0 .949-.102 1.828-.304 2.637-.193.799-.509 1.494-.949 2.083s-1.015 1.05-1.727 1.384c-.712.325-1.578.488-2.597.488-.694 0-1.332-.101-1.912-.304-.571-.202-1.063-.514-1.476-.936s-.734-.971-.963-1.648c-.219-.676-.329-1.489-.329-2.438v-9.203h2.439v9.229c0 .641.07 1.173.211 1.595.149.413.347.743.593.989.255.237.536.404.844.501.316.097.641.145.975.145 1.037 0 1.859-.198 2.466-.593.606-.405 1.041-.945 1.305-1.622.272-.686.408-1.446.408-2.281zm14.015 2.518c0-.351-.08-.676-.238-.975-.149-.308-.461-.585-.936-.831-.466-.255-1.169-.474-2.109-.659-.791-.167-1.507-.365-2.149-.593-.633-.229-1.173-.506-1.622-.831a3.49 3.49 0 0 1-1.015-1.147c-.237-.439-.356-.953-.356-1.542a3.57 3.57 0 0 1 .369-1.596c.255-.501.611-.945 1.068-1.332.466-.387 1.024-.69 1.675-.91s1.375-.33 2.175-.33c1.142 0 2.118.202 2.927.606s1.428.945 1.859 1.622a4.03 4.03 0 0 1 .646 2.228h-2.439c0-.396-.119-.778-.356-1.147-.229-.378-.567-.69-1.016-.936-.439-.246-.98-.369-1.621-.369-.677 0-1.226.106-1.648.316-.413.202-.716.461-.91.778a1.96 1.96 0 0 0-.277 1.002c0 .263.044.501.132.712.097.202.264.391.501.567.238.167.572.325 1.002.474s.98.299 1.648.448c1.169.264 2.131.581 2.887.95s1.319.821 1.688 1.358.554 1.186.554 1.951c0 .624-.132 1.195-.396 1.714-.255.518-.628.966-1.121 1.344-.483.369-1.063.66-1.74.87-.668.203-1.419.304-2.254.304-1.257 0-2.32-.224-3.191-.673s-1.529-1.028-1.977-1.74-.673-1.463-.673-2.254h2.453c.035.668.228 1.199.58 1.595a2.95 2.95 0 0 0 1.292.83c.509.159 1.015.238 1.516.238.668 0 1.226-.088 1.674-.264.457-.176.804-.417 1.042-.725a1.68 1.68 0 0 0 .356-1.055zm11.614-10.481v1.872h-7.712v-1.872h7.712zm-5.102-3.467h2.439v14.199c0 .483.075.848.224 1.094s.343.409.58.488.493.118.765.118a4.03 4.03 0 0 0 .633-.052l.514-.106.013 1.991c-.193.062-.448.119-.764.171-.308.062-.682.093-1.121.093-.598 0-1.147-.119-1.648-.356s-.901-.633-1.2-1.187c-.29-.562-.435-1.318-.435-2.267V94.068zm10.402 5.709V111.8h-2.439V97.535h2.373l.066 2.241zm4.456-2.32l-.013 2.267a3.52 3.52 0 0 0-.58-.079 6.2 6.2 0 0 0-.607-.026c-.562 0-1.059.088-1.489.264s-.796.422-1.094.738-.537.695-.712 1.134a5.46 5.46 0 0 0-.33 1.424l-.686.395c0-.861.084-1.669.251-2.425.176-.756.444-1.424.804-2.004a3.94 3.94 0 0 1 1.371-1.371c.563-.334 1.231-.501 2.004-.501.176 0 .378.022.607.066.228.035.386.075.474.119zm6.5 12.867l3.968-12.788h2.61l-5.721 16.467c-.132.351-.308.729-.528 1.133-.211.414-.483.805-.817 1.174a3.88 3.88 0 0 1-1.213.896c-.466.238-1.024.356-1.674.356-.194 0-.44-.026-.739-.079l-.632-.132-.014-1.977.33.026.33.026c.553 0 1.024-.074 1.41-.224a2.13 2.13 0 0 0 .976-.725c.272-.334.505-.795.699-1.384l1.015-2.769zm-2.914-12.788l3.705 11.075.633 2.57-1.754.897-5.247-14.542h2.663z" class="B"/><g filter="url(#I)"><rect x="51.126" y="93" width="293.4" height="55.35" rx="5.4" fill="#4478c6"/></g><mask id="D" maskUnits="userSpaceOnUse" x="301" y="106" width="28" height="28" mask-type="alpha"><path d="M301.776 106.5h27v27h-27z" class="G"/></mask><g mask="url(#D)" class="B"><use xlink:href="#O" y="22"/></g><path d="M72.508 109.605V128.8h-2.544v-19.195h2.544zm6.697 7.976V128.8h-2.439v-14.265h2.307l.132 3.046zm-.58 3.546l-1.015-.039c.009-.976.154-1.877.435-2.703.281-.835.677-1.56 1.187-2.175s1.116-1.09 1.819-1.424c.712-.343 1.498-.514 2.36-.514.703 0 1.336.096 1.898.29.563.184 1.041.483 1.437.896.404.413.712.949.923 1.609.211.65.316 1.445.316 2.386v9.347h-2.452v-9.374c0-.747-.11-1.344-.33-1.793-.22-.457-.541-.786-.962-.988-.422-.211-.94-.317-1.556-.317-.606 0-1.16.128-1.661.383-.492.255-.918.606-1.279 1.054a5.32 5.32 0 0 0-.831 1.543c-.193.571-.29 1.178-.29 1.819zm22.056 4.904V108.55h2.453v20.25h-2.242l-.211-2.769zm-9.597-4.205v-.277c0-1.09.132-2.079.395-2.966.273-.897.655-1.666 1.147-2.307.501-.642 1.094-1.134 1.78-1.477.694-.352 1.468-.527 2.32-.527.896 0 1.679.158 2.347.474.677.308 1.248.761 1.714 1.358.475.589.848 1.301 1.121 2.136s.461 1.78.566 2.834v1.213c-.096 1.046-.285 1.987-.566 2.822-.273.835-.646 1.546-1.121 2.135-.466.589-1.037 1.042-1.714 1.358-.677.308-1.468.462-2.373.462-.835 0-1.6-.181-2.294-.541-.686-.36-1.279-.866-1.78-1.516-.492-.65-.874-1.415-1.147-2.294-.264-.888-.395-1.85-.395-2.887zm2.452-.277v.277c0 .712.07 1.38.211 2.004.149.624.378 1.173.686 1.648s.699.848 1.173 1.12c.475.264 1.041.396 1.701.396.809 0 1.472-.172 1.991-.514.527-.343.949-.796 1.266-1.358s.562-1.174.738-1.833v-3.177c-.105-.483-.259-.949-.461-1.397a4.32 4.32 0 0 0-.765-1.213c-.308-.361-.69-.646-1.147-.857-.448-.211-.98-.317-1.595-.317-.668 0-1.244.141-1.727.422-.475.273-.866.651-1.173 1.134-.308.475-.536 1.028-.686 1.661-.141.624-.211 1.292-.211 2.004zm22.122 3.955v-10.969h2.452V128.8h-2.333l-.119-3.296zm.461-3.006l1.016-.026c0 .949-.102 1.828-.304 2.637-.193.799-.509 1.494-.949 2.083s-1.015 1.05-1.727 1.384c-.712.325-1.578.488-2.597.488-.694 0-1.332-.101-1.912-.304-.571-.202-1.063-.514-1.476-.936s-.734-.971-.963-1.648c-.219-.676-.329-1.489-.329-2.438v-9.203h2.439v9.229c0 .641.07 1.173.211 1.595.149.413.347.743.593.989.255.237.536.404.844.501.316.097.641.145.975.145 1.037 0 1.859-.198 2.466-.593.606-.405 1.041-.945 1.305-1.622.272-.686.408-1.446.408-2.281zm14.015 2.518c0-.351-.08-.676-.238-.975-.149-.308-.461-.585-.936-.831-.466-.255-1.169-.474-2.109-.659-.791-.167-1.507-.365-2.149-.593-.633-.229-1.173-.506-1.622-.831a3.49 3.49 0 0 1-1.015-1.147c-.237-.439-.356-.953-.356-1.542 0-.563.123-1.095.369-1.596.255-.5.611-.944 1.068-1.331.466-.387 1.024-.69 1.675-.91s1.375-.329 2.175-.329c1.142 0 2.118.202 2.927.606s1.428.945 1.859 1.622a4.03 4.03 0 0 1 .646 2.228h-2.439c0-.396-.119-.778-.356-1.147-.229-.378-.567-.69-1.016-.936-.439-.246-.98-.369-1.621-.369-.677 0-1.226.105-1.648.316-.413.202-.716.461-.91.778a1.96 1.96 0 0 0-.277 1.002c0 .263.044.501.132.712.097.202.264.391.501.567.238.167.572.325 1.002.474s.98.299 1.648.448c1.169.264 2.131.581 2.887.95s1.319.821 1.688 1.358.554 1.186.554 1.951c0 .624-.132 1.195-.396 1.714-.255.518-.628.966-1.121 1.344-.483.369-1.063.66-1.74.87-.668.203-1.419.304-2.254.304-1.257 0-2.32-.224-3.191-.673s-1.529-1.028-1.977-1.74-.673-1.463-.673-2.254h2.453c.035.668.228 1.199.58 1.595a2.95 2.95 0 0 0 1.292.83c.509.159 1.015.238 1.516.238.668 0 1.226-.088 1.674-.264.457-.176.804-.417 1.042-.725a1.68 1.68 0 0 0 .356-1.055zm11.614-10.481v1.872h-7.712v-1.872h7.712zm-5.102-3.467h2.439v14.199c0 .483.075.848.224 1.094s.343.409.58.488.493.118.765.118a4.03 4.03 0 0 0 .633-.052l.514-.106.013 1.991c-.193.062-.448.119-.764.171-.308.062-.682.093-1.121.093-.598 0-1.147-.119-1.648-.356s-.901-.633-1.2-1.187c-.29-.562-.435-1.318-.435-2.267v-14.186zm10.402 5.709V128.8h-2.439v-14.265h2.373l.066 2.242zm4.456-2.321l-.013 2.268a3.53 3.53 0 0 0-.58-.079 6.03 6.03 0 0 0-.607-.027c-.562 0-1.059.088-1.489.264s-.796.422-1.094.738-.537.695-.712 1.134a5.46 5.46 0 0 0-.33 1.424l-.686.395c0-.861.084-1.669.251-2.425.176-.756.444-1.424.804-2.004.36-.589.818-1.046 1.371-1.371.563-.334 1.231-.501 2.004-.501a3.26 3.26 0 0 1 .607.066c.228.035.386.074.474.118zm6.5 12.867l3.968-12.788h2.61l-5.721 16.467c-.132.351-.308.729-.528 1.133-.211.414-.483.805-.817 1.174a3.88 3.88 0 0 1-1.213.896c-.466.238-1.024.356-1.674.356-.194 0-.44-.026-.739-.079l-.632-.132-.014-1.977.33.026.33.026c.553 0 1.024-.074 1.41-.224a2.13 2.13 0 0 0 .976-.725c.272-.334.505-.795.699-1.384l1.015-2.769zm-2.914-12.788l3.705 11.075.633 2.57-1.754.897-5.247-14.542h2.663z" class="B"/><g filter="url(#J)" class="B"><rect x="51.126" y="180.75" width="293.4" height="220.05" rx="5.4"/></g><g style="mix-blend-mode:multiply" opacity=".8" class="H I K"><path d="M117.276 245.55h140.4"/></g><path d="M274.697 247.639a19.44 19.44 0 0 0 .119 2.149c.086.72.208 1.43.367 2.128l.583 2.052c.23.662.493 1.296.788 1.901.094.173.148.324.162.453.015.137 0 .256-.043.357-.036.101-.093.187-.173.259-.072.072-.154.137-.248.194l-1.49.864c-.526-.806-.976-1.627-1.35-2.462s-.681-1.681-.918-2.538a19.24 19.24 0 0 1-.53-2.635 22.65 22.65 0 0 1-.162-2.722 22.63 22.63 0 0 1 .162-2.721 18.89 18.89 0 0 1 .53-2.625c.237-.864.543-1.713.918-2.549s.824-1.659 1.35-2.473l1.49.864c.094.058.176.123.248.195.08.072.137.158.173.259a.7.7 0 0 1 .043.356 1.27 1.27 0 0 1-.162.454 16.87 16.87 0 0 0-.788 1.911l-.583 2.052a20.6 20.6 0 0 0-.367 2.128 19.44 19.44 0 0 0-.119 2.149zm35.098 0a18.1 18.1 0 0 0-.129-2.149 17.62 17.62 0 0 0-.368-2.128 18.58 18.58 0 0 0-.583-2.052c-.23-.669-.489-1.306-.777-1.911a1.27 1.27 0 0 1-.162-.454c-.015-.137-.004-.255.032-.356a.81.81 0 0 1 .173-.259 1.74 1.74 0 0 1 .259-.195l1.49-.864c1.044 1.627 1.797 3.301 2.258 5.022.468 1.721.702 3.503.702 5.346a20.32 20.32 0 0 1-.702 5.357c-.461 1.714-1.214 3.38-2.258 5l-1.49-.864c-.094-.057-.18-.122-.259-.194a.81.81 0 0 1-.173-.259.8.8 0 0 1-.032-.357c.014-.129.068-.28.162-.453.288-.605.547-1.239.777-1.901.231-.67.425-1.354.583-2.052.166-.698.288-1.408.368-2.128a18.1 18.1 0 0 0 .129-2.149z" fill="#e3e3e3"/><g style="mix-blend-mode:multiply" opacity=".8" class="H I"><path stroke-width="12.15" d="M286.701 247.575h12.15"/></g><circle cx="83.526" cy="246.9" r="9.45" stroke-width="2.7" class="E"/><g style="mix-blend-mode:multiply" opacity=".8" class="H I K"><path d="M117.276 207.75h70.2"/></g><circle cx="83.526" cy="210.45" r="7.425" stroke="#1b7499" stroke-width="6.75"/><g filter="url(#K)"><rect x="51.126" y="123" width="293.4" height="55.35" rx="5.4" fill="#4e89e7"/></g><mask id="E" maskUnits="userSpaceOnUse" x="301" y="136" width="28" height="28" mask-type="alpha"><path d="M301.776 136.5h27v27h-27z" class="G"/></mask><g mask="url(#E)" class="B"><use xlink:href="#O" y="52"/></g><path d="M81.368 152.696h2.531c-.132 1.213-.479 2.298-1.041 3.256s-1.358 1.719-2.386 2.281c-1.028.554-2.312.831-3.85.831-1.125 0-2.149-.211-3.072-.633-.914-.422-1.701-1.02-2.36-1.793-.659-.782-1.169-1.718-1.529-2.808-.352-1.099-.527-2.321-.527-3.665v-1.912c0-1.345.176-2.562.527-3.652.36-1.098.875-2.039 1.543-2.821.677-.782 1.49-1.384 2.439-1.806s2.017-.633 3.204-.633c1.45 0 2.676.272 3.678.817s1.78 1.301 2.334 2.268c.563.958.91 2.07 1.041 3.335h-2.531c-.123-.896-.352-1.665-.686-2.307-.334-.65-.809-1.151-1.424-1.503s-1.419-.527-2.413-.527c-.853 0-1.604.163-2.254.488-.642.325-1.182.786-1.622 1.384-.431.598-.756 1.314-.976 2.149s-.329 1.762-.329 2.782v1.938c0 .94.097 1.823.29 2.65.202.826.505 1.551.91 2.175a4.51 4.51 0 0 0 1.542 1.477c.624.351 1.362.527 2.215.527 1.081 0 1.942-.172 2.584-.514s1.125-.835 1.45-1.477c.334-.641.571-1.411.712-2.307zm8.279-14.146v20.25h-2.452v-20.25h2.452zm6.565 5.985V158.8H93.76v-14.265h2.452zm-2.637-3.783a1.47 1.47 0 0 1 .356-1.002c.246-.273.606-.409 1.081-.409.466 0 .822.136 1.068.409a1.41 1.41 0 0 1 .382 1.002c0 .378-.127.703-.382.975-.246.264-.602.396-1.068.396-.475 0-.835-.132-1.081-.396-.237-.272-.356-.597-.356-.975zm12.471 18.312c-.993 0-1.894-.167-2.702-.501a6.13 6.13 0 0 1-2.07-1.437 6.39 6.39 0 0 1-1.319-2.189c-.308-.844-.461-1.766-.461-2.768v-.554c0-1.16.171-2.193.514-3.098.343-.914.809-1.688 1.398-2.321s1.256-1.111 2.003-1.437 1.521-.487 2.321-.487c1.019 0 1.898.175 2.636.527.748.352 1.358.844 1.833 1.477.475.624.826 1.362 1.055 2.214.228.844.342 1.767.342 2.769v1.094h-10.652v-1.99h8.213v-.185c-.035-.633-.166-1.248-.395-1.846-.22-.597-.571-1.09-1.055-1.476s-1.142-.58-1.977-.58c-.554 0-1.064.118-1.53.356-.465.228-.865.571-1.199 1.028s-.594 1.015-.778 1.674-.277 1.42-.277 2.281v.554c0 .676.092 1.314.277 1.911a4.89 4.89 0 0 0 .83 1.556c.37.448.813.8 1.332 1.055.527.255 1.125.382 1.793.382.861 0 1.591-.176 2.188-.527s1.121-.822 1.569-1.411l1.477 1.173c-.308.466-.699.91-1.173 1.332s-1.06.764-1.754 1.028c-.685.264-1.498.396-2.439.396zm10.837-11.483V158.8h-2.439v-14.265h2.307l.132 3.046zm-.58 3.546l-1.015-.039c.009-.976.154-1.877.435-2.703.281-.835.677-1.56 1.186-2.175s1.117-1.09 1.82-1.424c.712-.343 1.498-.514 2.36-.514.703 0 1.336.096 1.898.29.563.184 1.042.483 1.437.896.404.413.712.949.923 1.609.211.65.316 1.445.316 2.386v9.347h-2.452v-9.374c0-.747-.11-1.344-.329-1.793-.22-.457-.541-.786-.963-.988-.422-.211-.94-.317-1.555-.317a3.61 3.61 0 0 0-1.662.383 3.97 3.97 0 0 0-1.278 1.054c-.352.449-.629.963-.831 1.543-.193.571-.29 1.178-.29 1.819zm19.037-6.592v1.872h-7.712v-1.872h7.712zm-5.102-3.467h2.439v14.199c0 .483.075.848.224 1.094s.343.409.58.488a2.41 2.41 0 0 0 .765.118 4.03 4.03 0 0 0 .633-.052l.514-.106.013 1.991a5.5 5.5 0 0 1-.765.171c-.307.062-.681.093-1.12.093-.598 0-1.147-.119-1.648-.356s-.901-.633-1.2-1.187c-.29-.562-.435-1.318-.435-2.267v-14.186zm21.872 8.754h-4.865l-.026-2.043h4.416c.73 0 1.367-.124 1.912-.37s.966-.597 1.265-1.054c.308-.466.462-1.02.462-1.661 0-.704-.137-1.275-.409-1.714-.264-.449-.672-.774-1.226-.976-.545-.211-1.239-.316-2.083-.316h-3.744V158.8h-2.545v-19.195h6.289c.984 0 1.863.101 2.637.303.773.193 1.428.501 1.964.923a3.92 3.92 0 0 1 1.239 1.582c.282.641.422 1.41.422 2.307a3.95 3.95 0 0 1-.606 2.149c-.405.633-.967 1.151-1.688 1.556-.712.404-1.547.663-2.505.777l-.909.62zm-.119 8.978h-5.748l1.437-2.07h4.311c.809 0 1.494-.14 2.057-.422.571-.281 1.006-.676 1.305-1.186.299-.519.448-1.13.448-1.833 0-.712-.127-1.327-.382-1.845a2.64 2.64 0 0 0-1.2-1.2c-.545-.281-1.248-.422-2.109-.422h-3.626l.027-2.043h4.957l.54.738c.923.079 1.705.343 2.347.791a4.3 4.3 0 0 1 1.463 1.687c.343.686.514 1.442.514 2.268 0 1.195-.263 2.206-.791 3.032-.518.818-1.252 1.442-2.201 1.872-.95.422-2.066.633-3.349.633zm18.457-3.296v-10.969h2.452V158.8h-2.333l-.119-3.296zm.461-3.006l1.016-.026c0 .949-.101 1.828-.304 2.637-.193.799-.509 1.494-.949 2.083s-1.015 1.05-1.727 1.384c-.712.325-1.578.488-2.597.488-.694 0-1.332-.101-1.912-.304-.571-.202-1.063-.514-1.476-.936s-.734-.971-.963-1.648c-.219-.676-.329-1.489-.329-2.438v-9.203h2.439v9.229c0 .641.07 1.173.211 1.595.149.413.347.743.593.989.255.237.536.404.844.501.316.097.641.145.975.145 1.037 0 1.859-.198 2.466-.593.606-.405 1.041-.945 1.305-1.622.272-.686.408-1.446.408-2.281zm14.7 3.533V138.55h2.452v20.25h-2.241l-.211-2.769zm-9.598-4.205v-.277c0-1.09.132-2.079.396-2.966.272-.897.655-1.666 1.147-2.307.501-.642 1.094-1.134 1.78-1.477.694-.352 1.468-.527 2.32-.527.897 0 1.679.158 2.347.474.677.308 1.248.761 1.714 1.358.474.589.848 1.301 1.12 2.136s.462 1.78.567 2.834v1.213c-.097 1.046-.286 1.987-.567 2.822-.272.835-.646 1.546-1.12 2.135-.466.589-1.037 1.042-1.714 1.358-.677.308-1.468.462-2.373.462-.835 0-1.6-.181-2.294-.541a5.41 5.41 0 0 1-1.78-1.516c-.492-.65-.875-1.415-1.147-2.294-.264-.888-.396-1.85-.396-2.887zm2.453-.277v.277c0 .712.07 1.38.211 2.004a5.26 5.26 0 0 0 .685 1.648 3.41 3.41 0 0 0 1.173 1.12c.475.264 1.042.396 1.701.396.809 0 1.472-.172 1.991-.514a3.85 3.85 0 0 0 1.266-1.358c.316-.563.562-1.174.738-1.833v-3.177a7.02 7.02 0 0 0-.462-1.397c-.193-.457-.448-.862-.764-1.213-.308-.361-.69-.646-1.147-.857-.449-.211-.98-.317-1.595-.317-.668 0-1.244.141-1.728.422a3.38 3.38 0 0 0-1.173 1.134c-.307.475-.536 1.028-.685 1.661-.141.624-.211 1.292-.211 2.004zm22.636-7.014h2.215v13.962c0 1.257-.255 2.329-.765 3.217s-1.222 1.56-2.136 2.017c-.905.465-1.951.698-3.137.698-.493 0-1.073-.079-1.741-.237-.659-.149-1.309-.409-1.951-.778-.633-.36-1.164-.848-1.595-1.463l1.279-1.45c.597.72 1.222 1.221 1.872 1.503.659.281 1.309.421 1.951.421.774 0 1.441-.145 2.004-.435a3.03 3.03 0 0 0 1.305-1.292c.317-.562.475-1.256.475-2.083v-10.942l.224-3.138zm-9.822 7.291v-.277c0-1.09.128-2.079.382-2.966.264-.897.638-1.666 1.121-2.307.492-.642 1.085-1.134 1.78-1.477.694-.352 1.476-.527 2.346-.527.897 0 1.679.158 2.347.474.677.308 1.248.761 1.714 1.358.475.589.848 1.301 1.121 2.136s.461 1.78.567 2.834v1.213c-.097 1.046-.286 1.987-.567 2.822-.273.835-.646 1.546-1.121 2.135-.466.589-1.037 1.042-1.714 1.358-.677.308-1.468.462-2.373.462-.852 0-1.626-.181-2.32-.541a5.28 5.28 0 0 1-1.767-1.516c-.492-.65-.87-1.415-1.134-2.294a10.46 10.46 0 0 1-.382-2.887zm2.439-.277v.277c0 .712.07 1.38.211 2.004.149.624.374 1.173.672 1.648.308.474.699.848 1.174 1.12.474.264 1.041.396 1.7.396.809 0 1.477-.172 2.004-.514s.945-.796 1.253-1.358c.316-.563.562-1.174.738-1.833v-3.177c-.097-.483-.246-.949-.448-1.397a4.3 4.3 0 0 0-.765-1.213c-.307-.361-.69-.646-1.147-.857s-.993-.317-1.608-.317c-.668 0-1.244.141-1.727.422-.475.273-.866.651-1.174 1.134-.298.475-.523 1.028-.672 1.661-.141.624-.211 1.292-.211 2.004zm19.222 7.515c-.993 0-1.894-.167-2.703-.501a6.13 6.13 0 0 1-2.07-1.437c-.571-.616-1.01-1.345-1.318-2.189s-.462-1.766-.462-2.768v-.554c0-1.16.172-2.193.515-3.098.342-.914.808-1.688 1.397-2.321a6.01 6.01 0 0 1 2.004-1.437 5.76 5.76 0 0 1 2.32-.487c1.02 0 1.899.175 2.637.527.747.352 1.358.844 1.833 1.477.474.624.826 1.362 1.054 2.214.229.844.343 1.767.343 2.769v1.094h-10.652v-1.99h8.213v-.185c-.035-.633-.167-1.248-.395-1.846a3.32 3.32 0 0 0-1.055-1.476c-.484-.387-1.143-.58-1.978-.58-.553 0-1.063.118-1.529.356a3.25 3.25 0 0 0-1.2 1.028c-.334.457-.593 1.015-.777 1.674s-.277 1.42-.277 2.281v.554c0 .676.092 1.314.277 1.911a4.89 4.89 0 0 0 .83 1.556c.369.448.813.8 1.332 1.055.527.255 1.125.382 1.793.382.861 0 1.59-.176 2.188-.527s1.121-.822 1.569-1.411l1.476 1.173a6.79 6.79 0 0 1-1.173 1.332c-.474.422-1.059.764-1.753 1.028-.686.264-1.499.396-2.439.396zm14.37-14.529v1.872h-7.713v-1.872h7.713zm-5.102-3.467h2.439v14.199c0 .483.074.848.224 1.094s.343.409.58.488.492.118.765.118c.202 0 .413-.017.632-.052l.515-.106.013 1.991c-.194.062-.448.119-.765.171-.307.062-.681.093-1.12.093-.598 0-1.147-.119-1.648-.356s-.901-.633-1.2-1.187c-.29-.562-.435-1.318-.435-2.267v-14.186z" class="B"/><g filter="url(#L)"><rect x="92.274" y="10" width="181.6" height="23.8" rx="4.4" class="B"/><path d="M109.421 17.158V26.4h-1.904l-3.714-6.195V26.4h-1.904v-9.242h1.904l3.72 6.202v-6.202h1.898zm5.249 7.693v-3.06c0-.22-.036-.408-.108-.565a.8.8 0 0 0-.336-.375c-.148-.089-.341-.133-.578-.133a1.19 1.19 0 0 0-.526.108c-.149.068-.263.167-.343.298a.82.82 0 0 0-.121.451h-1.828c0-.292.068-.569.203-.832s.332-.493.591-.692.564-.362.92-.476.762-.171 1.206-.171c.533 0 1.007.089 1.422.267a2.17 2.17 0 0 1 .977.8c.242.355.362.8.362 1.333v2.939c0 .377.024.685.07.927s.114.444.203.622v.108h-1.847c-.089-.186-.157-.419-.203-.698a5.8 5.8 0 0 1-.064-.851zm.242-2.634l.012 1.035h-1.022c-.241 0-.45.027-.628.082s-.324.133-.438.235a.91.91 0 0 0-.254.343 1.18 1.18 0 0 0-.076.432c0 .157.036.298.108.425s.175.22.311.292a1.05 1.05 0 0 0 .476.102c.275 0 .514-.055.717-.165s.36-.245.47-.406.173-.313.178-.457l.482.774a3.19 3.19 0 0 1-.279.54c-.115.186-.261.362-.438.527s-.392.294-.641.4-.546.152-.889.152c-.436 0-.832-.087-1.187-.26s-.631-.421-.838-.73-.305-.669-.305-1.066c0-.36.068-.679.204-.959a1.87 1.87 0 0 1 .596-.705c.267-.195.599-.341.997-.438a5.63 5.63 0 0 1 1.384-.152h1.06zm4.837-1.187v5.37h-1.829v-6.868h1.721l.108 1.498zm2.069-1.543l-.032 1.695-.324-.032-.336-.019c-.258 0-.482.034-.673.102s-.343.159-.47.286-.215.282-.279.463a2.27 2.27 0 0 0-.101.622l-.369-.114c0-.444.045-.853.134-1.225a3.4 3.4 0 0 1 .387-.984 1.93 1.93 0 0 1 .635-.647 1.61 1.61 0 0 1 .857-.229c.101 0 .205.008.311.025s.192.032.26.057zm2.691 1.543v5.37h-1.828v-6.868h1.72l.108 1.498zm2.07-1.543l-.032 1.695-.324-.032-.336-.019a2.01 2.01 0 0 0-.673.102c-.186.064-.343.159-.47.286s-.216.282-.279.463-.093.389-.102.622l-.368-.114c0-.444.045-.853.133-1.225s.218-.705.388-.984.385-.495.634-.647.536-.229.857-.229c.102 0 .206.008.311.025s.193.032.261.057zm.38 3.548v-.133c0-.503.072-.967.216-1.39a3.22 3.22 0 0 1 .629-1.111c.275-.313.613-.556 1.015-.73s.864-.267 1.384-.267.984.089 1.39.267.747.417 1.022.73.491.683.635 1.111.216.887.216 1.39v.133c0 .499-.072.963-.216 1.39a3.23 3.23 0 0 1-.635 1.111c-.275.313-.613.556-1.015.73s-.864.26-1.384.26-.984-.087-1.39-.26-.743-.417-1.022-.73a3.3 3.3 0 0 1-.629-1.111c-.144-.427-.216-.891-.216-1.39zm1.829-.133v.133a4.03 4.03 0 0 0 .076.806c.051.25.131.47.241.66s.262.332.444.438.404.159.667.159a1.28 1.28 0 0 0 .654-.159c.182-.106.328-.252.438-.438s.19-.41.241-.66.082-.518.082-.806v-.133c0-.279-.027-.542-.082-.787s-.133-.47-.248-.66a1.23 1.23 0 0 0-.438-.457c-.182-.11-.402-.165-.66-.165s-.478.055-.66.165-.324.262-.438.457-.19.41-.241.66-.076.508-.076.787zm7.763 1.72l1.428-5.091h1.162l-.375 2-1.428 4.869h-.971l.184-1.777zm-.724-5.091l1.022 5.084.095 1.784h-1.142l-1.74-6.868h1.765zm4.621 5.002l.997-5.002h1.771l-1.739 6.868h-1.137l.108-1.866zm-1.149-5.002l1.422 5.053.197 1.815h-.978l-1.428-4.862-.362-2.006h1.149zm10.004 0V26.4h-1.834v-6.868h1.834zm-1.949-1.79c0-.267.094-.487.28-.66s.436-.26.749-.26.556.087.742.26.286.394.286.66a.85.85 0 0 1-.286.66c-.186.173-.433.26-.742.26s-.563-.087-.749-.26-.28-.393-.28-.66zm5.25 3.256V26.4h-1.828v-6.868h1.714l.114 1.466zm-.267 1.727h-.495c0-.508.066-.965.197-1.371s.315-.76.552-1.047.519-.514.845-.666.698-.235 1.104-.235c.322 0 .616.046.882.14a1.69 1.69 0 0 1 .686.444c.195.203.343.472.444.806s.159.743.159 1.225v4.38h-1.841v-4.386c0-.305-.042-.542-.127-.711a.71.71 0 0 0-.374-.355c-.161-.072-.36-.108-.597-.108a1.34 1.34 0 0 0-.641.146c-.178.097-.326.233-.444.406a1.92 1.92 0 0 0-.261.597c-.059.229-.089.474-.089.736zm8.709.311v-.133c0-.503.072-.967.216-1.39a3.22 3.22 0 0 1 .629-1.111c.275-.313.613-.556 1.015-.73s.864-.267 1.384-.267.984.089 1.39.267.747.417 1.022.73a3.17 3.17 0 0 1 .635 1.111c.144.423.216.887.216 1.39v.133c0 .499-.072.963-.216 1.39s-.356.793-.635 1.111-.613.556-1.015.73-.864.26-1.384.26-.984-.087-1.39-.26-.743-.417-1.022-.73a3.3 3.3 0 0 1-.629-1.111c-.144-.427-.216-.891-.216-1.39zm1.829-.133v.133a4.03 4.03 0 0 0 .076.806c.05.25.131.47.241.66s.262.332.444.438.404.159.667.159a1.28 1.28 0 0 0 .654-.159c.182-.106.328-.252.438-.438s.19-.41.241-.66.082-.518.082-.806v-.133c0-.279-.027-.542-.082-.787a2.09 2.09 0 0 0-.248-.66 1.23 1.23 0 0 0-.438-.457c-.182-.11-.402-.165-.66-.165s-.478.055-.66.165-.324.262-.438.457a2.16 2.16 0 0 0-.241.66c-.051.245-.076.508-.076.787zm7.591-1.904V26.4h-1.828v-6.868h1.714l.114 1.466zm-.266 1.727h-.495c0-.508.065-.965.196-1.371s.316-.76.553-1.047.518-.514.844-.666.698-.235 1.104-.235c.322 0 .616.046.883.14s.495.241.685.444.343.472.445.806.158.743.158 1.225v4.38h-1.841v-4.386c0-.305-.042-.542-.127-.711a.71.71 0 0 0-.374-.355c-.161-.072-.36-.108-.597-.108a1.34 1.34 0 0 0-.641.146c-.178.097-.326.233-.444.406s-.201.368-.26.597a2.89 2.89 0 0 0-.089.736zm10.93-6.075v9.75h-1.834v-9.75h1.834zm1.219 6.386v-.133c0-.503.072-.967.216-1.39s.353-.798.628-1.111.614-.556 1.016-.73a3.39 3.39 0 0 1 1.384-.267c.52 0 .984.089 1.39.267s.747.417 1.022.73a3.17 3.17 0 0 1 .635 1.111c.144.423.215.887.215 1.39v.133c0 .499-.071.963-.215 1.39s-.356.793-.635 1.111-.614.556-1.016.73-.863.26-1.384.26-.983-.087-1.39-.26-.742-.417-1.022-.73a3.3 3.3 0 0 1-.628-1.111c-.144-.427-.216-.891-.216-1.39zm1.828-.133v.133c0 .288.026.556.076.806s.132.47.242.66.262.332.444.438.404.159.666.159a1.28 1.28 0 0 0 .654-.159c.182-.106.328-.252.438-.438s.191-.41.241-.66c.055-.25.083-.518.083-.806v-.133c0-.279-.028-.542-.083-.787-.05-.25-.133-.47-.247-.66a1.23 1.23 0 0 0-.438-.457c-.182-.11-.402-.165-.66-.165s-.478.055-.66.165-.324.262-.438.457-.191.41-.242.66a3.94 3.94 0 0 0-.076.787zm8.639 2.196c.225 0 .424-.042.597-.127a1 1 0 0 0 .406-.368 1.07 1.07 0 0 0 .159-.565h1.72c-.004.482-.133.912-.387 1.289s-.595.666-1.022.882a3.19 3.19 0 0 1-1.435.317c-.533 0-.998-.089-1.396-.267a2.72 2.72 0 0 1-.984-.736c-.262-.317-.459-.686-.59-1.105a4.57 4.57 0 0 1-.197-1.358v-.184a4.53 4.53 0 0 1 .197-1.358c.131-.423.328-.791.59-1.104s.59-.565.984-.743.855-.267 1.384-.267c.563 0 1.056.108 1.479.324s.762.525 1.003.927.37.87.374 1.416h-1.72a1.43 1.43 0 0 0-.146-.622 1.05 1.05 0 0 0-.394-.444c-.169-.114-.378-.171-.628-.171-.267 0-.484.057-.654.171s-.3.262-.393.457-.159.408-.197.654-.051.495-.051.762v.184c0 .267.017.523.051.768s.097.463.19.654c.098.19.231.341.4.451s.39.165.66.165zm7.649-.248v-3.06c0-.22-.036-.408-.108-.565s-.184-.286-.336-.375-.341-.133-.578-.133a1.19 1.19 0 0 0-.526.108c-.149.068-.263.167-.343.298a.82.82 0 0 0-.121.451h-1.828c0-.292.068-.569.203-.832a2.08 2.08 0 0 1 .59-.692 2.92 2.92 0 0 1 .921-.476c.36-.114.762-.171 1.206-.171.533 0 1.007.089 1.422.267a2.17 2.17 0 0 1 .977.8c.242.355.362.8.362 1.333v2.939c0 .377.023.685.07.927s.114.444.203.622v.108h-1.847c-.089-.186-.157-.419-.203-.698s-.064-.567-.064-.851zm.242-2.634l.012 1.035h-1.022c-.241 0-.45.027-.628.082s-.324.133-.438.235a.91.91 0 0 0-.254.343 1.18 1.18 0 0 0-.076.432c0 .157.036.298.108.425s.175.22.311.292a1.05 1.05 0 0 0 .476.102c.275 0 .514-.055.717-.165s.36-.245.47-.406.173-.313.178-.457l.482.774a3.19 3.19 0 0 1-.279.54c-.115.186-.261.362-.438.527s-.392.294-.641.4-.546.152-.889.152c-.436 0-.832-.087-1.187-.26s-.631-.421-.838-.73-.305-.669-.305-1.066c0-.36.068-.679.203-.959a1.88 1.88 0 0 1 .597-.705c.267-.195.599-.341.997-.438s.859-.152 1.383-.152h1.061zm4.938-5.567v9.75h-1.834v-9.75h1.834zm6.576 4.202v8.189h-1.828v-9.509h1.695l.133 1.32zm4.348 2.038v.133c0 .499-.059.963-.177 1.39s-.284.8-.508 1.117a2.41 2.41 0 0 1-.838.736 2.42 2.42 0 0 1-1.143.26c-.419 0-.783-.085-1.091-.254s-.57-.406-.781-.711-.375-.666-.502-1.073-.224-.842-.292-1.308v-.349c.068-.499.165-.956.292-1.371a3.94 3.94 0 0 1 .502-1.085 2.26 2.26 0 0 1 .774-.717c.309-.169.671-.254 1.086-.254.435 0 .818.082 1.149.247s.613.402.837.711.4.677.515 1.105.177.901.177 1.422zm-1.834.133v-.133a4.04 4.04 0 0 0-.076-.806c-.047-.25-.123-.468-.229-.654a1.11 1.11 0 0 0-.406-.432c-.165-.106-.366-.159-.603-.159-.25 0-.463.04-.641.121s-.315.197-.426.349-.192.334-.247.546-.089.451-.102.717v.882a2.88 2.88 0 0 0 .178.844 1.27 1.27 0 0 0 .451.584c.203.144.47.216.8.216.241 0 .444-.053.609-.159s.298-.26.4-.451.18-.41.222-.66a4.36 4.36 0 0 0 .07-.806zm4.799-1.993v5.37h-1.828v-6.868h1.72l.108 1.498zm2.069-1.543l-.032 1.695-.323-.032-.337-.019c-.258 0-.482.034-.673.102a1.2 1.2 0 0 0-.469.286c-.123.127-.216.282-.28.463a2.27 2.27 0 0 0-.101.622l-.368-.114a5.27 5.27 0 0 1 .133-1.225 3.4 3.4 0 0 1 .387-.984 1.94 1.94 0 0 1 .635-.647 1.61 1.61 0 0 1 .857-.229c.101 0 .205.008.311.025s.192.032.26.057zm.381 3.548v-.133c0-.503.072-.967.216-1.39s.353-.798.628-1.111.614-.556 1.016-.73a3.39 3.39 0 0 1 1.384-.267c.52 0 .983.089 1.39.267s.747.417 1.022.73a3.15 3.15 0 0 1 .634 1.111c.144.423.216.887.216 1.39v.133c0 .499-.072.963-.216 1.39a3.23 3.23 0 0 1-.634 1.111c-.275.313-.614.556-1.016.73s-.863.26-1.384.26-.984-.087-1.39-.26-.743-.417-1.022-.73a3.3 3.3 0 0 1-.628-1.111c-.144-.427-.216-.891-.216-1.39zm1.828-.133v.133a4.03 4.03 0 0 0 .076.806c.051.25.131.47.241.66.115.186.263.332.445.438s.404.159.666.159a1.28 1.28 0 0 0 .654-.159c.182-.106.328-.252.438-.438s.19-.41.241-.66.083-.518.083-.806v-.133c0-.279-.028-.542-.083-.787a2.09 2.09 0 0 0-.247-.66 1.23 1.23 0 0 0-.438-.457c-.182-.11-.402-.165-.66-.165s-.479.055-.661.165-.323.262-.438.457c-.11.19-.19.41-.241.66s-.076.508-.076.787zm8.036 2.165l1.524-5.535h1.91l-2.317 6.868h-1.155l.038-1.333zm-1.047-5.535l1.53 5.541.031 1.327h-1.161l-2.317-6.868h1.917zm7.23 0V26.4h-1.835v-6.868h1.835zm-1.949-1.79c0-.267.093-.487.279-.66s.436-.26.749-.26.557.087.743.26.286.394.286.66-.096.487-.286.66-.434.26-.743.26-.562-.087-.749-.26-.279-.393-.279-.66zm7.516 7.16V16.65h1.84v9.75h-1.656l-.184-1.498zm-4.342-1.854v-.133c0-.525.059-1.001.178-1.428a3.33 3.33 0 0 1 .52-1.111c.229-.309.51-.548.844-.717s.716-.254 1.143-.254c.402 0 .753.085 1.054.254a2.26 2.26 0 0 1 .774.724 3.96 3.96 0 0 1 .521 1.098c.131.419.226.878.285 1.377v.292c-.059.478-.154.923-.285 1.333s-.305.77-.521 1.079-.47.542-.774.711-.661.254-1.067.254c-.427 0-.808-.087-1.142-.26a2.42 2.42 0 0 1-.838-.73c-.225-.313-.396-.681-.514-1.104s-.178-.884-.178-1.384zm1.828-.133v.133a4.71 4.71 0 0 0 .063.793 2.29 2.29 0 0 0 .223.654c.105.186.241.332.406.438s.374.152.616.152c.313 0 .571-.07.774-.209s.358-.341.463-.59c.11-.25.174-.537.191-.863v-.831c-.013-.267-.051-.506-.114-.717s-.149-.4-.267-.552a1.17 1.17 0 0 0-.432-.355c-.169-.085-.37-.127-.603-.127s-.44.055-.609.165-.307.252-.413.438a2.35 2.35 0 0 0-.228.66c-.047.25-.07.521-.07.813zm8.944 3.612c-.533 0-1.012-.085-1.435-.254a3.15 3.15 0 0 1-1.079-.717c-.292-.305-.516-.658-.673-1.06a3.58 3.58 0 0 1-.235-1.295v-.254a4.38 4.38 0 0 1 .223-1.428c.148-.432.359-.806.634-1.123s.618-.561 1.016-.73.846-.26 1.346-.26c.486 0 .918.08 1.295.241s.692.389.945.686c.259.296.453.652.584 1.066s.197.868.197 1.371v.762h-5.459v-1.219h3.663v-.14c0-.254-.047-.48-.14-.679a1.08 1.08 0 0 0-.406-.483c-.182-.119-.415-.178-.698-.178-.242 0-.449.053-.622.159s-.316.254-.426.444-.186.415-.241.673-.076.533-.076.838v.254c0 .275.038.529.114.762s.193.434.337.603a1.53 1.53 0 0 0 .533.394 1.76 1.76 0 0 0 .717.14c.33 0 .637-.064.92-.19a1.99 1.99 0 0 0 .743-.59l.889.965c-.144.207-.341.406-.59.597s-.542.347-.889.47-.743.178-1.187.178zm5.687-5.497v5.37h-1.828v-6.868h1.72l.108 1.498zm2.07-1.543l-.032 1.695-.324-.032-.336-.019a2.01 2.01 0 0 0-.673.102c-.186.064-.343.159-.47.286s-.216.282-.279.463-.093.389-.102.622l-.368-.114c0-.444.045-.853.133-1.225s.218-.705.388-.984.385-.495.634-.647.536-.229.857-.229c.102 0 .206.008.311.025s.193.032.261.057zm4.576 5.015c0-.131-.038-.25-.114-.355s-.218-.203-.425-.292-.497-.178-.883-.254a6.9 6.9 0 0 1-.971-.286c-.296-.119-.554-.26-.774-.425a1.85 1.85 0 0 1-.508-.584 1.62 1.62 0 0 1-.184-.781 1.84 1.84 0 0 1 .184-.812c.127-.254.307-.478.54-.673s.524-.353.863-.463.728-.171 1.155-.171c.597 0 1.109.095 1.536.286.432.191.762.453.991.787s.349.707.349 1.13h-1.828a.98.98 0 0 0-.115-.476c-.072-.144-.186-.256-.343-.336s-.351-.127-.596-.127c-.203 0-.379.036-.527.108s-.262.161-.343.279-.114.241-.114.381c0 .106.021.201.063.286s.121.154.223.222.232.131.393.191a4.89 4.89 0 0 0 .609.152c.496.102.938.235 1.327.4s.698.381.927.66.343.637.343 1.085c0 .305-.068.584-.203.838a2.04 2.04 0 0 1-.584.666c-.254.186-.559.332-.914.438s-.747.152-1.188.152c-.639 0-1.18-.114-1.625-.343s-.774-.518-1.002-.87-.337-.719-.337-1.092h1.733c.009.25.072.451.19.603s.278.262.464.33.396.102.616.102c.237 0 .433-.032.59-.095s.275-.157.355-.267a.64.64 0 0 0 .127-.394z" class="F"/><rect x="92.824" y="10.55" width="180.5" height="22.7" rx="3.85" class="E J"/></g><g filter="url(#M)"><rect x="20.126" y="169" width="178" height="38.8" rx="4.4" class="B"/><path d="M33.351 182.106h-2.355v-1.486h2.355c.364 0 .66-.059.889-.178s.396-.292.501-.507.159-.459.159-.73-.053-.531-.159-.768-.273-.428-.501-.572-.525-.215-.889-.215h-1.695v7.75h-1.904v-9.242h3.599c.724 0 1.344.131 1.86.393s.918.616 1.193 1.073.413.98.413 1.568c0 .597-.138 1.113-.413 1.549s-.673.772-1.193 1.009-1.136.356-1.86.356zm6.494-2.076v5.37h-1.828v-6.868h1.72l.108 1.498zm2.069-1.543l-.032 1.695-.324-.032-.336-.019c-.258 0-.482.034-.673.102-.186.063-.343.159-.47.286s-.216.281-.279.463-.093.389-.102.622l-.368-.114c0-.444.044-.853.133-1.225s.218-.705.387-.984.385-.495.635-.648.535-.228.857-.228c.102 0 .205.008.311.025s.193.032.26.057zm2.793.045v6.868h-1.834v-6.868h1.834zm-1.949-1.79a.86.86 0 0 1 .279-.66c.186-.174.436-.261.749-.261s.556.087.743.261.286.393.286.66-.095.486-.286.66-.434.26-.743.26-.563-.087-.749-.26-.279-.394-.279-.66zm6.297 7.357c.224 0 .423-.043.597-.127a1.01 1.01 0 0 0 .406-.368c.102-.161.154-.35.159-.565h1.72c-.004.482-.133.912-.387 1.288a2.66 2.66 0 0 1-1.022.883c-.427.211-.906.317-1.434.317s-.999-.089-1.396-.267a2.72 2.72 0 0 1-.984-.736 3.23 3.23 0 0 1-.59-1.104 4.57 4.57 0 0 1-.197-1.359v-.184a4.52 4.52 0 0 1 .197-1.358c.131-.424.328-.792.59-1.105s.59-.565.984-.743.855-.266 1.384-.266c.563 0 1.056.108 1.479.324s.762.524 1.003.926.37.87.375 1.416h-1.72a1.43 1.43 0 0 0-.146-.622 1.06 1.06 0 0 0-.394-.445 1.1 1.1 0 0 0-.629-.171c-.267 0-.484.057-.654.171a1.1 1.1 0 0 0-.394.458 2.27 2.27 0 0 0-.197.653 5.48 5.48 0 0 0-.051.762v.184a5.6 5.6 0 0 0 .051.768c.034.246.097.464.19.654s.231.341.4.451.389.165.66.165zm5.872-5.567v6.868h-1.834v-6.868h1.834zm-1.949-1.79a.86.86 0 0 1 .279-.66c.186-.174.436-.261.749-.261s.556.087.743.261a.85.85 0 0 1 .286.66c0 .266-.095.486-.286.66s-.434.26-.743.26-.563-.087-.749-.26-.279-.394-.279-.66zm5.25 3.256v5.402h-1.828v-6.868h1.714l.114 1.466zm-.267 1.727h-.495c0-.508.066-.965.197-1.371.131-.411.315-.76.552-1.048s.518-.514.844-.666.698-.235 1.105-.235c.322 0 .616.046.882.14a1.69 1.69 0 0 1 .686.444c.195.203.343.472.444.806s.159.743.159 1.225v4.38h-1.841v-4.386c0-.305-.042-.542-.127-.711s-.209-.288-.374-.356-.36-.108-.597-.108c-.245 0-.459.049-.641.146a1.28 1.28 0 0 0-.444.407c-.114.169-.201.368-.26.596s-.089.474-.089.737zm10.112-3.193h1.657v6.639c0 .627-.14 1.158-.419 1.594a2.58 2.58 0 0 1-1.155.996c-.495.229-1.071.343-1.727.343a3.98 3.98 0 0 1-.914-.114c-.317-.076-.622-.195-.914-.356s-.529-.364-.724-.609l.806-1.079c.212.245.457.436.736.571a2.04 2.04 0 0 0 .927.21c.33 0 .609-.062.838-.184s.404-.295.527-.527.184-.506.184-.832v-5.065l.178-1.587zm-4.621 3.516v-.133a5 5 0 0 1 .19-1.428c.131-.432.315-.802.552-1.111s.533-.548.876-.717.73-.254 1.162-.254c.457 0 .84.085 1.149.254s.563.41.762.723.353.675.463 1.099a10.09 10.09 0 0 1 .267 1.377v.292c-.064.478-.159.923-.286 1.333s-.294.77-.501 1.079-.465.542-.774.711-.669.254-1.092.254-.806-.087-1.149-.26-.628-.417-.87-.73-.427-.682-.559-1.105-.19-.884-.19-1.384zm1.828-.133v.133a3.63 3.63 0 0 0 .082.794c.055.245.14.463.254.654.118.186.264.332.438.438a1.25 1.25 0 0 0 .628.152c.334 0 .607-.07.819-.209.212-.144.37-.341.476-.591s.167-.537.184-.863v-.832a2.81 2.81 0 0 0-.108-.717c-.064-.216-.152-.4-.267-.552a1.16 1.16 0 0 0-.444-.356c-.182-.084-.398-.127-.647-.127a1.17 1.17 0 0 0-.628.165c-.174.106-.32.252-.438.438a2.23 2.23 0 0 0-.26.661c-.059.249-.089.52-.089.812zm10.563-1.46l1.777-1.149c.262-.173.438-.34.527-.501a1.1 1.1 0 0 0 .133-.54.82.82 0 0 0-.222-.552c-.148-.174-.355-.26-.622-.26a.84.84 0 0 0-.483.133.81.81 0 0 0-.298.343 1.18 1.18 0 0 0-.095.482c0 .191.051.385.152.584s.239.402.413.622l.578.705 4.361 5.078h-2.076l-3.555-4.113-.787-1.022c-.224-.313-.4-.618-.527-.914a2.3 2.3 0 0 1-.191-.914c0-.483.104-.904.311-1.264a2.13 2.13 0 0 1 .876-.844c.377-.203.819-.304 1.327-.304.478 0 .893.099 1.244.298s.622.453.813.774a2.01 2.01 0 0 1 .292 1.06c0 .288-.053.555-.159.8s-.252.466-.438.673-.4.391-.641.565l-2.025 1.441c-.156.144-.275.285-.355.425s-.135.273-.165.4-.044.241-.044.355c0 .246.053.466.159.661a1.16 1.16 0 0 0 .444.457 1.31 1.31 0 0 0 .666.165 2.35 2.35 0 0 0 1.009-.229 2.75 2.75 0 0 0 .876-.654 3.28 3.28 0 0 0 .616-1.022c.152-.393.228-.827.228-1.301h1.549c0 .474-.047.925-.14 1.352a4.19 4.19 0 0 1-.451 1.181c-.207.36-.482.679-.825.958l-.108.096-.108.088c-.406.326-.829.57-1.27.73a4.36 4.36 0 0 1-1.473.235c-.618 0-1.153-.112-1.606-.336a2.52 2.52 0 0 1-1.041-.927c-.241-.393-.362-.844-.362-1.352 0-.372.072-.696.216-.971a2.9 2.9 0 0 1 .609-.775 9.72 9.72 0 0 1 .889-.717zm12.168-.603v8.189h-1.828v-9.509h1.695l.133 1.32zm4.348 2.038v.133c0 .499-.059.963-.178 1.39a3.46 3.46 0 0 1-.508 1.117c-.224.314-.504.559-.838.737s-.711.26-1.143.26c-.419 0-.783-.085-1.092-.254a2.27 2.27 0 0 1-.781-.711c-.207-.309-.374-.666-.501-1.073a8.46 8.46 0 0 1-.292-1.307v-.349a8.63 8.63 0 0 1 .292-1.371c.127-.419.294-.781.501-1.086s.47-.548.774-.717.671-.254 1.085-.254c.436 0 .819.082 1.149.247a2.26 2.26 0 0 1 .838.711c.228.309.4.677.514 1.105s.178.901.178 1.422zm-1.835.133v-.133c0-.292-.025-.561-.076-.806s-.123-.468-.229-.654-.237-.33-.406-.432-.366-.159-.603-.159c-.25 0-.463.041-.641.121a1.07 1.07 0 0 0-.425.349 1.62 1.62 0 0 0-.248.546c-.055.212-.089.451-.102.717v.883c.021.313.08.594.178.844s.248.44.451.584.47.216.8.216c.241 0 .444-.053.609-.159s.298-.26.4-.451a2.05 2.05 0 0 0 .222-.66c.047-.249.07-.518.07-.806zm6.678 1.828v-3.059c0-.22-.036-.409-.108-.565s-.184-.286-.337-.375-.341-.133-.578-.133c-.203 0-.379.036-.527.108a.76.76 0 0 0-.343.298c-.08.127-.121.277-.121.451h-1.828a1.79 1.79 0 0 1 .203-.832c.135-.262.332-.493.59-.692s.565-.361.92-.476a3.98 3.98 0 0 1 1.206-.171c.533 0 1.007.089 1.422.266s.741.445.978.8.362.8.362 1.333v2.939c0 .377.023.686.07.927s.114.444.203.622v.108h-1.847a2.64 2.64 0 0 1-.203-.698 5.76 5.76 0 0 1-.063-.851zm.241-2.634l.013 1.035h-1.022c-.241 0-.451.027-.628.082s-.324.133-.438.235-.199.212-.254.343-.076.275-.076.431a.85.85 0 0 0 .108.426c.072.122.176.22.311.292a1.06 1.06 0 0 0 .476.101c.275 0 .514-.055.717-.165s.36-.245.47-.406.173-.313.178-.457l.482.774c-.068.174-.161.354-.279.54s-.26.362-.438.527a2.26 2.26 0 0 1-.641.4c-.25.101-.546.152-.889.152-.436 0-.832-.087-1.187-.26s-.631-.421-.838-.73-.305-.669-.305-1.067c0-.359.068-.679.203-.958a1.88 1.88 0 0 1 .597-.705c.267-.194.599-.34.997-.438s.859-.152 1.384-.152h1.06zm5.846 2.882c.224 0 .423-.043.597-.127s.309-.212.406-.368c.102-.161.154-.35.159-.565h1.72c-.004.482-.133.912-.387 1.288s-.595.667-1.022.883a3.2 3.2 0 0 1-1.435.317c-.533 0-.999-.089-1.396-.267s-.722-.423-.984-.736-.459-.686-.591-1.104c-.131-.424-.196-.876-.196-1.359v-.184c0-.487.065-.939.196-1.358.132-.424.328-.792.591-1.105s.59-.565.984-.743.854-.266 1.383-.266c.563 0 1.056.108 1.479.324a2.4 2.4 0 0 1 1.003.926c.246.398.371.87.375 1.416h-1.72a1.44 1.44 0 0 0-.146-.622 1.06 1.06 0 0 0-.394-.445c-.169-.114-.379-.171-.628-.171-.267 0-.485.057-.654.171s-.301.263-.394.458a2.27 2.27 0 0 0-.196.653c-.034.242-.051.495-.051.762v.184c0 .267.017.523.051.768a2.12 2.12 0 0 0 .19.654c.097.19.231.341.4.451s.389.165.66.165zm5.77-8.455v9.756h-1.828v-9.756h1.828zm4.329 2.888l-2.983 3.402-1.6 1.619-.666-1.32 1.269-1.613 1.784-2.088h2.196zm-1.898 6.868l-2.031-3.174 1.263-1.104 2.876 4.278h-2.108zm6.392-1.549v-3.059c0-.22-.036-.409-.108-.565s-.184-.286-.336-.375-.341-.133-.578-.133c-.203 0-.378.036-.527.108s-.262.167-.342.298a.82.82 0 0 0-.121.451h-1.828c0-.292.068-.569.203-.832s.332-.493.59-.692a2.94 2.94 0 0 1 .921-.476c.36-.114.762-.171 1.206-.171.533 0 1.007.089 1.422.266s.74.445.977.8.362.8.362 1.333v2.939c0 .377.023.686.07.927s.114.444.203.622v.108h-1.847c-.089-.186-.157-.419-.203-.698a5.67 5.67 0 0 1-.064-.851zm.242-2.634l.012 1.035h-1.022c-.241 0-.45.027-.628.082a1.16 1.16 0 0 0-.438.235.91.91 0 0 0-.254.343 1.18 1.18 0 0 0-.076.431.85.85 0 0 0 .108.426.77.77 0 0 0 .311.292 1.06 1.06 0 0 0 .476.101c.275 0 .514-.055.717-.165a1.31 1.31 0 0 0 .47-.406c.114-.161.173-.313.178-.457l.482.774c-.068.174-.161.354-.279.54a2.57 2.57 0 0 1-.438.527c-.178.161-.392.294-.641.4s-.546.152-.889.152c-.436 0-.832-.087-1.187-.26s-.631-.421-.838-.73-.305-.669-.305-1.067c0-.359.068-.679.203-.958s.335-.514.597-.705.599-.34.997-.438.859-.152 1.383-.152h1.061zm7.356-2.685h1.657v6.639c0 .627-.139 1.158-.419 1.594a2.58 2.58 0 0 1-1.155.996c-.495.229-1.071.343-1.727.343-.287 0-.592-.038-.914-.114a3.65 3.65 0 0 1-.914-.356c-.287-.16-.529-.364-.723-.609l.806-1.079c.211.245.457.436.736.571.279.14.588.21.927.21.33 0 .609-.062.838-.184a1.23 1.23 0 0 0 .527-.527c.122-.229.184-.506.184-.832v-5.065l.177-1.587zm-4.621 3.516v-.133a5 5 0 0 1 .191-1.428c.131-.432.315-.802.552-1.111a2.5 2.5 0 0 1 .876-.717c.343-.169.73-.254 1.162-.254.457 0 .84.085 1.149.254a2.08 2.08 0 0 1 .761.723 3.76 3.76 0 0 1 .464 1.099c.114.419.203.878.266 1.377v.292c-.063.478-.158.923-.285 1.333s-.294.77-.502 1.079-.465.542-.774.711-.669.254-1.092.254-.806-.087-1.149-.26-.628-.417-.87-.73-.427-.682-.558-1.105-.191-.884-.191-1.384zm1.829-.133v.133a3.63 3.63 0 0 0 .082.794c.055.245.14.463.254.654.118.186.264.332.438.438a1.25 1.25 0 0 0 .628.152c.335 0 .608-.07.819-.209.212-.144.37-.341.476-.591a2.53 2.53 0 0 0 .184-.863v-.832a2.77 2.77 0 0 0-.108-.717c-.063-.216-.152-.4-.266-.552a1.16 1.16 0 0 0-.445-.356c-.181-.084-.397-.127-.647-.127-.241 0-.451.055-.628.165s-.32.252-.438.438-.201.407-.261.661a3.52 3.52 0 0 0-.088.812zm9.032 3.612c-.533 0-1.011-.085-1.434-.254a3.14 3.14 0 0 1-1.079-.717 3.18 3.18 0 0 1-.673-1.06c-.157-.407-.235-.838-.235-1.295v-.254c0-.521.074-.997.222-1.428s.36-.807.635-1.124a2.79 2.79 0 0 1 1.015-.73c.398-.173.847-.26 1.346-.26.487 0 .918.08 1.295.241a2.53 2.53 0 0 1 .946.686 2.95 2.95 0 0 1 .584 1.066 4.5 4.5 0 0 1 .197 1.371v.762h-5.459v-1.219h3.662v-.14c0-.253-.046-.48-.139-.679s-.225-.364-.407-.482-.414-.178-.698-.178a1.17 1.17 0 0 0-.622.159c-.174.106-.315.254-.425.444a2.42 2.42 0 0 0-.242.673 4.34 4.34 0 0 0-.076.838v.254c0 .275.038.529.115.761s.192.434.336.604a1.54 1.54 0 0 0 .533.393c.212.093.451.14.717.14.331 0 .637-.064.921-.191s.535-.328.743-.59l.888.965c-.144.207-.34.406-.59.596s-.542.347-.889.47-.742.178-1.187.178zm7.573-2.025a.59.59 0 0 0-.114-.355c-.076-.106-.218-.204-.426-.292-.203-.094-.497-.178-.882-.254-.347-.076-.671-.172-.971-.286a3.38 3.38 0 0 1-.775-.425 1.85 1.85 0 0 1-.507-.584c-.123-.229-.184-.489-.184-.781a1.84 1.84 0 0 1 .184-.813 2.09 2.09 0 0 1 .539-.672c.237-.199.525-.354.864-.464s.727-.171 1.155-.171c.596 0 1.109.095 1.536.286.432.19.762.452.99.787.233.33.349.706.349 1.13h-1.828c0-.178-.038-.337-.114-.477s-.186-.256-.343-.336c-.152-.085-.351-.127-.597-.127a1.19 1.19 0 0 0-.526.108c-.149.068-.263.161-.343.279s-.114.241-.114.381c0 .106.021.201.063.286a.71.71 0 0 0 .222.222c.102.068.233.131.394.19a4.97 4.97 0 0 0 .609.153c.495.101.937.235 1.327.4.389.16.698.38.927.66s.342.637.342 1.085c0 .305-.067.584-.203.838s-.33.476-.584.667c-.254.186-.558.332-.914.438s-.747.152-1.187.152c-.639 0-1.181-.114-1.625-.343s-.774-.518-1.003-.869-.336-.72-.336-1.092h1.733c.008.249.072.45.19.603.123.152.277.262.463.33a1.82 1.82 0 0 0 .616.101c.237 0 .434-.031.591-.095a.84.84 0 0 0 .355-.266c.085-.115.127-.246.127-.394zm8.163.121l1.428-5.091h1.162l-.375 1.999-1.428 4.869h-.971l.184-1.777zm-.724-5.091l1.022 5.084.096 1.784h-1.143l-1.739-6.868h1.764zm4.622 5.002l.996-5.002h1.771l-1.739 6.868h-1.136l.108-1.866zm-1.149-5.002l1.421 5.053.197 1.815h-.977l-1.429-4.862-.361-2.006h1.149zm6.766 0v6.868h-1.834v-6.868h1.834zm-1.949-1.79c0-.267.094-.487.28-.66s.436-.261.749-.261.556.087.742.261a.85.85 0 0 1 .286.66c0 .266-.095.486-.286.66s-.433.26-.742.26-.563-.087-.749-.26-.28-.394-.28-.66zm6.824 1.79v1.295h-3.999v-1.295h3.999zm-3.009-1.695h1.829v6.494c0 .199.025.351.076.457s.135.18.241.222.239.057.4.057l.305-.013.234-.038.007 1.346a3.47 3.47 0 0 1-.508.121c-.182.029-.383.044-.603.044-.402 0-.753-.066-1.054-.197s-.525-.351-.685-.647-.242-.686-.242-1.168v-6.678zm5.834-1.187v9.75h-1.828v-9.75h1.828zm-.26 6.075h-.502c.004-.478.068-.919.191-1.321a3.23 3.23 0 0 1 .526-1.053c.229-.301.502-.534.819-.699s.677-.247 1.067-.247c.338 0 .645.049.92.146a1.7 1.7 0 0 1 .717.457c.204.207.36.48.47.819s.165.749.165 1.231v4.342h-1.841v-4.354c0-.305-.044-.544-.133-.718s-.209-.302-.374-.374-.36-.115-.597-.115c-.263 0-.487.049-.673.146a1.16 1.16 0 0 0-.438.407c-.11.169-.19.368-.241.596s-.076.474-.076.737zm7.693-3.193v6.868h-1.834v-6.868h1.834zm-1.949-1.79a.86.86 0 0 1 .28-.66c.186-.174.435-.261.749-.261s.556.087.742.261a.85.85 0 0 1 .286.66c0 .266-.095.486-.286.66-.186.173-.433.26-.742.26s-.563-.087-.749-.26a.86.86 0 0 1-.28-.66zm5.25 3.256v5.402h-1.828v-6.868h1.714l.114 1.466zm-.267 1.727h-.495c0-.508.066-.965.197-1.371.131-.411.315-.76.552-1.048s.518-.514.844-.666.699-.235 1.105-.235c.321 0 .616.046.882.14a1.69 1.69 0 0 1 .686.444c.194.203.342.472.444.806s.159.743.159 1.225v4.38h-1.841v-4.386c0-.305-.042-.542-.127-.711s-.21-.288-.375-.356-.359-.108-.596-.108c-.246 0-.459.049-.641.146a1.28 1.28 0 0 0-.445.407c-.114.169-.201.368-.26.596a2.94 2.94 0 0 0-.089.737zM29.637 190.65h1.828v8.176l-.184 1.574h-1.644v-9.75zm6.176 6.246v.133c0 .512-.055.982-.165 1.41s-.271.797-.495 1.11a2.37 2.37 0 0 1-.838.724c-.33.169-.719.254-1.168.254-.419 0-.783-.085-1.092-.254s-.561-.408-.768-.717-.375-.671-.502-1.086-.222-.867-.286-1.358v-.292c.064-.491.159-.944.286-1.358s.294-.777.502-1.086.463-.548.768-.717.664-.254 1.079-.254c.453 0 .846.087 1.181.26s.618.411.838.724.389.677.495 1.104.165.891.165 1.403zm-1.828.133v-.133c0-.279-.021-.542-.063-.787a2.08 2.08 0 0 0-.203-.654 1.16 1.16 0 0 0-.4-.451c-.165-.11-.379-.165-.641-.165-.25 0-.461.043-.635.127s-.317.204-.432.356a1.61 1.61 0 0 0-.247.546c-.055.207-.089.436-.102.685v.832c.013.334.068.63.165.889.102.253.254.454.457.603.207.143.476.215.806.215.258 0 .472-.05.641-.152s.3-.245.394-.432a2.08 2.08 0 0 0 .203-.653c.038-.254.057-.529.057-.826zm7.027 1.727v-5.224h1.828v6.868h-1.72l-.108-1.644zm.203-1.409l.54-.013c0 .457-.053.882-.159 1.276a3.05 3.05 0 0 1-.476 1.016 2.23 2.23 0 0 1-.8.666c-.322.157-.7.235-1.136.235a2.96 2.96 0 0 1-.927-.14c-.279-.097-.52-.247-.724-.45-.199-.208-.356-.472-.47-.794s-.165-.717-.165-1.174v-4.437h1.828v4.45a1.64 1.64 0 0 0 .07.514c.051.139.121.254.209.342s.193.153.311.191a1.37 1.37 0 0 0 .406.057c.377 0 .673-.076.889-.228s.375-.36.463-.623.14-.562.14-.888zm7.078 1.555v-8.252h1.841v9.75h-1.657l-.184-1.498zm-4.342-1.854v-.133c0-.525.059-1.001.178-1.428s.292-.802.52-1.111.51-.548.844-.717.715-.254 1.143-.254c.402 0 .753.085 1.054.254s.563.41.774.723.389.675.521 1.099.226.878.286 1.377v.292c-.059.478-.154.923-.286 1.333s-.305.77-.521 1.079a2.29 2.29 0 0 1-.774.711c-.305.169-.66.254-1.066.254a2.45 2.45 0 0 1-1.142-.26 2.43 2.43 0 0 1-.838-.73c-.224-.313-.396-.682-.514-1.105s-.178-.884-.178-1.384zm1.828-.133v.133c0 .284.021.548.063.794a2.3 2.3 0 0 0 .222.654c.106.186.241.332.406.438s.374.152.616.152c.313 0 .571-.07.774-.209a1.35 1.35 0 0 0 .463-.591c.11-.249.173-.537.19-.863v-.832a3 3 0 0 0-.114-.717c-.059-.216-.148-.4-.267-.552s-.258-.271-.432-.356-.37-.127-.603-.127-.44.055-.609.165-.307.252-.413.438-.178.407-.228.661a4.43 4.43 0 0 0-.07.812zm10.131-3.383h1.657v6.639c0 .627-.14 1.158-.419 1.594a2.58 2.58 0 0 1-1.155.996c-.495.229-1.071.343-1.727.343a3.98 3.98 0 0 1-.914-.114c-.317-.076-.622-.195-.914-.356s-.529-.364-.724-.609l.806-1.079c.212.245.457.436.736.571a2.04 2.04 0 0 0 .927.21c.33 0 .609-.062.838-.184s.404-.295.527-.527.184-.506.184-.832v-5.065l.178-1.587zm-4.621 3.516v-.133a5 5 0 0 1 .19-1.428c.131-.432.315-.802.552-1.111s.533-.548.876-.717.73-.254 1.162-.254c.457 0 .84.085 1.149.254s.563.41.762.723.353.675.463 1.099a10.09 10.09 0 0 1 .267 1.377v.292c-.063.478-.159.923-.286 1.333s-.294.77-.501 1.079-.465.542-.774.711-.669.254-1.092.254-.806-.087-1.149-.26-.628-.417-.87-.73-.427-.682-.559-1.105-.19-.884-.19-1.384zm1.828-.133v.133a3.63 3.63 0 0 0 .083.794c.055.245.14.463.254.654.118.186.264.332.438.438a1.25 1.25 0 0 0 .628.152c.334 0 .607-.07.819-.209.212-.144.37-.341.476-.591s.167-.537.184-.863v-.832a2.81 2.81 0 0 0-.108-.717c-.064-.216-.152-.4-.267-.552a1.16 1.16 0 0 0-.444-.356c-.182-.084-.398-.127-.648-.127a1.17 1.17 0 0 0-.628.165c-.173.106-.319.252-.438.438a2.23 2.23 0 0 0-.26.661c-.059.249-.089.52-.089.812zm9.033 3.612c-.533 0-1.011-.085-1.435-.254s-.783-.413-1.079-.717a3.19 3.19 0 0 1-.673-1.06c-.157-.407-.235-.838-.235-1.295v-.254c0-.521.074-.997.222-1.428s.36-.807.635-1.124a2.79 2.79 0 0 1 1.016-.73c.398-.173.846-.26 1.346-.26.487 0 .918.08 1.295.241s.692.389.946.686.453.651.584 1.066.197.868.197 1.371v.762h-5.459v-1.219h3.663v-.14c0-.253-.047-.48-.14-.679s-.224-.364-.406-.482-.415-.178-.698-.178a1.17 1.17 0 0 0-.622.159 1.23 1.23 0 0 0-.425.444c-.106.191-.186.415-.241.673s-.076.533-.076.838v.254a2.43 2.43 0 0 0 .114.761c.08.233.193.434.337.604s.326.3.533.393.451.14.717.14c.33 0 .637-.064.92-.191s.535-.328.743-.59l.889.965a2.7 2.7 0 0 1-.59.596c-.245.191-.542.347-.889.47s-.743.178-1.187.178zm7.224-6.995v1.295h-3.999v-1.295h3.999zm-3.009-1.695h1.828v6.494c0 .199.025.351.076.457a.46.46 0 0 0 .241.222c.106.038.239.057.4.057l.305-.013.235-.038.006 1.346c-.157.051-.326.091-.508.121a3.84 3.84 0 0 1-.603.044c-.402 0-.753-.066-1.054-.197a1.45 1.45 0 0 1-.686-.647c-.161-.297-.241-.686-.241-1.168v-6.678z" class="F"/><rect x="20.676" y="169.55" width="176.9" height="37.7" rx="3.85" class="E J"/></g><g filter="url(#N)"><rect x="198.274" y="78" width="177.6" height="23.8" rx="4.4" class="B"/><path d="M209.803 85.158V94.4h-1.904v-9.242h1.904zm3.682 3.948v1.485h-4.202v-1.485h4.202zm.444-3.948v1.492h-4.646v-1.492h4.646zm2.92 2.374V94.4h-1.834v-6.868h1.834zm-1.949-1.79a.86.86 0 0 1 .28-.66c.186-.173.436-.26.749-.26s.556.087.742.26c.191.174.286.394.286.66a.85.85 0 0 1-.286.66c-.186.174-.433.26-.742.26s-.563-.087-.749-.26a.86.86 0 0 1-.28-.66zm5.39-1.092v9.75h-1.835v-9.75h1.835zm4.875 2.882v1.295h-3.999v-1.295h3.999zm-3.009-1.695h1.828v6.494c0 .199.025.351.076.457s.135.18.241.222.239.057.4.057l.305-.013.235-.038.006 1.346c-.157.051-.326.091-.508.121a3.77 3.77 0 0 1-.603.044 2.61 2.61 0 0 1-1.053-.197 1.45 1.45 0 0 1-.686-.648c-.161-.296-.241-.685-.241-1.168v-6.678zm7.211 8.69c-.534 0-1.012-.085-1.435-.254a3.15 3.15 0 0 1-1.079-.717c-.292-.305-.516-.658-.673-1.06a3.58 3.58 0 0 1-.235-1.295v-.254a4.38 4.38 0 0 1 .222-1.428c.149-.432.36-.806.635-1.124s.618-.561 1.016-.73.846-.26 1.346-.26c.486 0 .918.08 1.294.241s.692.389.946.685.453.652.584 1.066.197.868.197 1.371v.762h-5.459v-1.219h3.663v-.14c0-.254-.047-.48-.14-.679a1.08 1.08 0 0 0-.406-.483c-.182-.118-.415-.178-.698-.178-.242 0-.449.053-.623.159a1.23 1.23 0 0 0-.425.444 2.41 2.41 0 0 0-.241.673c-.051.254-.076.533-.076.838v.254c0 .275.038.529.114.762s.193.434.336.603a1.54 1.54 0 0 0 .534.394 1.76 1.76 0 0 0 .717.14c.33 0 .637-.063.92-.19a1.99 1.99 0 0 0 .743-.59l.889.965c-.144.207-.341.406-.591.597s-.541.347-.888.47-.743.178-1.187.178zm5.687-5.497v5.37h-1.828v-6.868h1.72l.108 1.498zm2.07-1.543l-.032 1.695-.324-.032-.336-.019c-.259 0-.483.034-.673.102s-.343.159-.47.286-.216.281-.279.463-.093.389-.102.622l-.368-.114a5.27 5.27 0 0 1 .133-1.225c.089-.377.218-.705.388-.984s.385-.495.634-.648.536-.228.857-.228c.102 0 .205.008.311.025s.193.032.261.057zm6.43 6.913h-1.841v-7.478c0-.521.101-.959.305-1.314a1.99 1.99 0 0 1 .869-.812c.377-.186.823-.279 1.34-.279.169 0 .332.013.488.038l.457.082-.019 1.377a1.59 1.59 0 0 0-.254-.044c-.088-.008-.192-.013-.311-.013-.22 0-.408.038-.565.114-.152.072-.268.18-.349.324a1.07 1.07 0 0 0-.12.527V94.4zm1.371-6.868v1.295h-4.234v-1.295h4.234zm.666 3.504v-.133c0-.504.072-.967.216-1.39s.353-.798.629-1.111.613-.556 1.015-.73a3.39 3.39 0 0 1 1.384-.267c.52 0 .984.089 1.39.267s.747.417 1.022.73a3.17 3.17 0 0 1 .635 1.111c.144.423.216.887.216 1.39v.133c0 .499-.072.963-.216 1.39s-.356.793-.635 1.111-.614.556-1.016.73-.863.26-1.383.26-.984-.087-1.39-.26-.743-.417-1.022-.73-.485-.688-.629-1.111-.216-.891-.216-1.39zm1.828-.133v.133c0 .288.026.556.077.806s.131.47.241.66.262.332.444.438.404.159.667.159c.254 0 .471-.053.653-.159s.328-.252.438-.438.191-.41.242-.66.082-.518.082-.806v-.133c0-.279-.027-.542-.082-.787a2.09 2.09 0 0 0-.248-.66 1.23 1.23 0 0 0-.438-.457c-.182-.11-.402-.165-.66-.165s-.478.055-.66.165-.324.262-.438.457a2.16 2.16 0 0 0-.241.66c-.051.245-.077.508-.077.787zm7.63-1.873v5.37h-1.828v-6.868h1.72l.108 1.498zm2.07-1.543l-.032 1.695-.324-.032-.336-.019a2.01 2.01 0 0 0-.673.102c-.186.063-.343.159-.47.286s-.216.281-.279.463-.093.389-.102.622l-.368-.114c0-.444.045-.853.133-1.225s.218-.705.388-.984.385-.495.634-.648.536-.228.857-.228c.102 0 .206.008.311.025s.193.032.261.057zm6.03.044V94.4h-1.835v-6.868h1.835zm-1.949-1.79c0-.267.093-.487.279-.66s.436-.26.75-.26c.308 0 .556.087.742.26s.286.394.286.66a.85.85 0 0 1-.286.66c-.186.174-.434.26-.742.26-.314 0-.563-.087-.75-.26s-.279-.394-.279-.66zm5.25 3.256V94.4h-1.828v-6.868h1.713l.115 1.466zm-.267 1.727h-.495c0-.508.066-.965.197-1.371s.315-.76.552-1.047.518-.514.844-.666.698-.235 1.105-.235c.321 0 .615.047.882.14a1.69 1.69 0 0 1 .686.444c.194.203.342.472.444.806s.159.743.159 1.225v4.38h-1.841v-4.386c0-.305-.043-.542-.127-.711s-.21-.288-.375-.355-.359-.108-.596-.108c-.246 0-.459.049-.641.146a1.28 1.28 0 0 0-.445.406c-.114.169-.201.368-.26.597s-.089.474-.089.736zm9.82 2.177V84.65h1.841v9.75h-1.657l-.184-1.498zm-4.342-1.853v-.133c0-.525.059-1.001.178-1.428a3.33 3.33 0 0 1 .52-1.111 2.37 2.37 0 0 1 .845-.717c.334-.169.715-.254 1.142-.254.402 0 .753.085 1.054.254s.563.41.774.724c.216.309.39.675.521 1.098s.226.878.285 1.377v.292c-.059.478-.154.922-.285 1.333s-.305.77-.521 1.079c-.211.305-.469.542-.774.711s-.66.254-1.067.254c-.427 0-.808-.087-1.142-.26a2.43 2.43 0 0 1-.838-.73c-.224-.313-.396-.681-.514-1.105s-.178-.884-.178-1.384zm1.828-.133v.133c0 .284.021.548.064.793s.12.463.222.654a1.23 1.23 0 0 0 .406.438c.169.102.375.152.616.152.313 0 .571-.07.774-.209s.358-.341.464-.59.173-.537.19-.863v-.832c-.013-.267-.051-.506-.114-.717a1.55 1.55 0 0 0-.267-.552c-.114-.152-.258-.271-.431-.356s-.371-.127-.603-.127c-.237 0-.441.055-.61.165s-.307.252-.412.438a2.32 2.32 0 0 0-.229.66c-.046.25-.07.52-.07.813zm9.845 1.841v-5.224h1.829V94.4h-1.721l-.108-1.644zm.204-1.409l.539-.013c0 .457-.053.882-.159 1.276a3.02 3.02 0 0 1-.476 1.016 2.22 2.22 0 0 1-.799.666c-.322.157-.701.235-1.137.235a2.95 2.95 0 0 1-.926-.14 1.88 1.88 0 0 1-.724-.451c-.199-.207-.356-.472-.47-.793s-.165-.717-.165-1.174v-4.437h1.828v4.45c0 .203.024.374.07.514s.121.254.21.343.192.152.311.19a1.36 1.36 0 0 0 .406.057c.377 0 .673-.076.889-.228s.374-.36.463-.622.14-.563.14-.889zm6.734 1.155c0-.131-.038-.25-.114-.355s-.218-.203-.425-.292-.497-.178-.882-.254c-.347-.076-.671-.171-.972-.286s-.554-.26-.774-.425a1.85 1.85 0 0 1-.508-.584 1.62 1.62 0 0 1-.184-.781 1.84 1.84 0 0 1 .184-.812c.127-.254.307-.478.54-.673s.524-.353.863-.463.728-.171 1.155-.171c.597 0 1.109.095 1.536.286.432.191.762.453.991.787s.349.707.349 1.13h-1.828a.97.97 0 0 0-.115-.476c-.072-.144-.186-.256-.342-.336s-.352-.127-.597-.127c-.203 0-.379.036-.527.108s-.262.161-.343.279-.114.241-.114.381a.62.62 0 0 0 .064.286c.046.08.12.154.222.222s.232.131.393.191.368.106.61.152c.495.102.937.235 1.326.4s.699.381.927.66.343.637.343 1.085c0 .305-.068.584-.203.838s-.33.476-.584.666-.559.332-.914.438-.747.152-1.187.152c-.639 0-1.181-.114-1.625-.343s-.775-.518-1.003-.87-.337-.719-.337-1.092h1.733c.009.25.072.451.191.603s.277.262.463.33.396.102.616.102c.237 0 .433-.032.59-.095s.275-.157.356-.267.126-.245.126-.394zm6.329-4.97v1.295h-3.999v-1.295h3.999zm-3.009-1.695h1.828v6.494c0 .199.026.351.077.457s.135.18.241.222.239.057.4.057l.304-.013.235-.038.007 1.346c-.157.051-.326.091-.508.121a3.77 3.77 0 0 1-.603.044c-.402 0-.754-.066-1.054-.197s-.525-.351-.686-.648-.241-.685-.241-1.168v-6.678zm5.878 3.193v5.37h-1.828v-6.868h1.72l.108 1.498zm2.07-1.543l-.032 1.695-.324-.032-.336-.019a2.01 2.01 0 0 0-.673.102c-.186.063-.343.159-.47.286s-.216.281-.279.463-.093.389-.102.622l-.368-.114a5.27 5.27 0 0 1 .133-1.225c.089-.377.218-.705.388-.984s.385-.495.634-.648.536-.228.857-.228c.102 0 .205.008.311.025s.193.032.261.057zm3.015 6.138l1.821-6.094h1.962l-2.761 7.903a4.34 4.34 0 0 1-.242.559c-.097.199-.23.387-.399.565a1.87 1.87 0 0 1-.629.444c-.25.114-.556.171-.92.171-.174 0-.316-.011-.426-.032l-.393-.089v-1.339h.146l.146.006c.241 0 .438-.027.59-.082a.82.82 0 0 0 .368-.254 1.22 1.22 0 0 0 .223-.432l.514-1.327zm-.762-6.094l1.492 4.977.26 1.936-1.244.133-2.469-7.046h1.961zm11.673 6.995c-.533 0-1.011-.085-1.434-.254a3.15 3.15 0 0 1-1.079-.717 3.18 3.18 0 0 1-.673-1.06 3.56 3.56 0 0 1-.235-1.295v-.254a4.38 4.38 0 0 1 .222-1.428 3.36 3.36 0 0 1 .635-1.124 2.79 2.79 0 0 1 1.015-.73c.398-.173.847-.26 1.346-.26.487 0 .918.08 1.295.241s.692.389.946.685.453.652.584 1.066.197.868.197 1.371v.762h-5.459v-1.219h3.662v-.14c0-.254-.046-.48-.139-.679a1.08 1.08 0 0 0-.407-.483c-.182-.118-.414-.178-.698-.178-.241 0-.448.053-.622.159a1.23 1.23 0 0 0-.425.444 2.41 2.41 0 0 0-.241.673 4.26 4.26 0 0 0-.077.838v.254c0 .275.038.529.115.762s.192.434.336.603.326.3.533.394.451.14.718.14c.33 0 .636-.063.92-.19s.535-.328.743-.59l.888.965c-.144.207-.34.406-.59.597-.245.19-.542.347-.889.47s-.742.178-1.187.178zm5.332-6.995l1.137 2.088 1.168-2.088h1.948l-1.942 3.358 2.031 3.51h-1.955l-1.238-2.209-1.238 2.209h-1.955l2.032-3.51-1.943-3.358h1.955zm6.97 1.32v8.189h-1.828v-9.509h1.695l.133 1.32zm4.348 2.038v.133c0 .499-.059.963-.178 1.39-.114.427-.283.8-.507 1.117a2.42 2.42 0 0 1-1.981.996c-.419 0-.783-.085-1.092-.254s-.569-.406-.78-.711-.375-.666-.502-1.073-.224-.842-.292-1.308v-.349c.068-.499.165-.956.292-1.371a3.94 3.94 0 0 1 .502-1.085 2.26 2.26 0 0 1 .774-.717c.309-.169.671-.254 1.085-.254.436 0 .819.082 1.149.248s.614.402.838.711c.229.309.4.677.514 1.105.119.427.178.901.178 1.422zm-1.834.133v-.133a4.04 4.04 0 0 0-.076-.806c-.047-.25-.123-.468-.229-.654s-.237-.33-.406-.432-.366-.159-.603-.159c-.25 0-.464.04-.641.121a1.07 1.07 0 0 0-.426.349c-.11.152-.192.334-.247.546s-.089.451-.102.717v.882a2.85 2.85 0 0 0 .178.844 1.27 1.27 0 0 0 .451.584c.203.144.469.216.799.216.242 0 .445-.053.61-.159s.298-.26.4-.451.18-.41.222-.66a4.45 4.45 0 0 0 .07-.806zm6.132 3.504c-.534 0-1.012-.085-1.435-.254a3.15 3.15 0 0 1-1.079-.717c-.292-.305-.516-.658-.673-1.06a3.56 3.56 0 0 1-.235-1.295v-.254a4.38 4.38 0 0 1 .222-1.428 3.36 3.36 0 0 1 .635-1.124c.279-.317.618-.561 1.016-.73s.846-.26 1.345-.26c.487 0 .919.08 1.295.241s.692.389.946.685.453.652.584 1.066.197.868.197 1.371v.762h-5.459v-1.219h3.663v-.14c0-.254-.047-.48-.14-.679a1.08 1.08 0 0 0-.406-.483c-.182-.118-.415-.178-.699-.178-.241 0-.448.053-.622.159a1.23 1.23 0 0 0-.425.444 2.41 2.41 0 0 0-.241.673c-.051.254-.076.533-.076.838v.254c0 .275.038.529.114.762s.192.434.336.603a1.53 1.53 0 0 0 .534.394 1.76 1.76 0 0 0 .717.14c.33 0 .637-.063.92-.19a1.99 1.99 0 0 0 .743-.59l.889.965c-.144.207-.341.406-.591.597-.245.19-.541.347-.888.47s-.743.178-1.187.178zm5.687-5.497v5.37h-1.828v-6.868h1.72l.108 1.498zm2.069-1.543l-.031 1.695-.324-.032-.336-.019c-.259 0-.483.034-.673.102s-.343.159-.47.286-.216.281-.279.463-.093.389-.102.622l-.368-.114a5.27 5.27 0 0 1 .133-1.225 3.4 3.4 0 0 1 .387-.984 1.95 1.95 0 0 1 .635-.648c.25-.152.536-.228.857-.228.102 0 .205.008.311.025a1.13 1.13 0 0 1 .26.057zm4.545.044v1.295h-3.999v-1.295h3.999zm-3.008-1.695h1.828v6.494c0 .199.025.351.076.457s.135.18.241.222.239.057.4.057l.305-.013.235-.038.006 1.346c-.157.051-.326.091-.508.121a3.77 3.77 0 0 1-.603.044c-.402 0-.753-.066-1.054-.197a1.45 1.45 0 0 1-.685-.648c-.161-.296-.241-.685-.241-1.168v-6.678zm5.979 1.695V94.4h-1.834v-6.868h1.834zm-1.949-1.79a.86.86 0 0 1 .28-.66c.186-.173.435-.26.749-.26.309 0 .556.087.742.26.191.174.286.394.286.66a.85.85 0 0 1-.286.66c-.186.174-.433.26-.742.26-.314 0-.563-.087-.749-.26a.86.86 0 0 1-.28-.66zm7.173 6.76c0-.131-.038-.25-.114-.355s-.218-.203-.425-.292-.498-.178-.883-.254a6.9 6.9 0 0 1-.971-.286c-.296-.118-.554-.26-.774-.425a1.85 1.85 0 0 1-.508-.584 1.62 1.62 0 0 1-.184-.781 1.84 1.84 0 0 1 .184-.812c.127-.254.307-.478.539-.673s.525-.353.864-.463.728-.171 1.155-.171c.597 0 1.109.095 1.536.286s.762.453.99.787a1.91 1.91 0 0 1 .349 1.13h-1.828a.98.98 0 0 0-.114-.476c-.072-.144-.186-.256-.343-.336-.152-.085-.351-.127-.596-.127a1.19 1.19 0 0 0-.527.108c-.148.068-.263.161-.343.279s-.114.241-.114.381c0 .106.021.201.063.286.047.08.121.154.222.222s.233.131.394.191a4.89 4.89 0 0 0 .609.152c.495.102.938.235 1.327.4s.698.381.927.66.342.637.342 1.085c0 .305-.067.584-.203.838s-.33.476-.584.666-.558.332-.914.438a4.27 4.27 0 0 1-1.187.152c-.639 0-1.18-.114-1.625-.343-.44-.229-.774-.518-1.003-.87s-.336-.719-.336-1.092h1.733c.008.25.072.451.19.603a1.04 1.04 0 0 0 .464.33 1.82 1.82 0 0 0 .615.102c.237 0 .434-.032.591-.095s.275-.157.355-.267a.64.64 0 0 0 .127-.394zm6.126 2.025c-.534 0-1.012-.085-1.435-.254a3.15 3.15 0 0 1-1.079-.717c-.292-.305-.516-.658-.673-1.06a3.58 3.58 0 0 1-.235-1.295v-.254a4.38 4.38 0 0 1 .222-1.428c.149-.432.36-.806.635-1.124s.618-.561 1.016-.73.846-.26 1.346-.26c.486 0 .918.08 1.294.241s.692.389.946.685.453.652.584 1.066.197.868.197 1.371v.762h-5.459v-1.219h3.663v-.14c0-.254-.047-.48-.14-.679a1.08 1.08 0 0 0-.406-.483c-.182-.118-.415-.178-.699-.178-.241 0-.448.053-.622.159a1.23 1.23 0 0 0-.425.444 2.41 2.41 0 0 0-.241.673c-.051.254-.076.533-.076.838v.254c0 .275.038.529.114.762s.193.434.336.603a1.54 1.54 0 0 0 .534.394 1.76 1.76 0 0 0 .717.14c.33 0 .637-.063.92-.19a1.99 1.99 0 0 0 .743-.59l.889.965c-.144.207-.341.406-.591.597s-.541.347-.888.47-.743.178-1.187.178z" class="F"/><rect x="198.824" y="78.55" width="176.5" height="22.7" rx="3.85" class="E J"/></g><defs><filter id="F" x="45.525" y="16.6" width="304.2" height="66.15" filterUnits="userSpaceOnUse" class="C"><feFlood result="A" class="D"/><feColorMatrix in="SourceAlpha" values="0 0 0 0 0 0 0 0 0 0 0 0 0 0 0 0 0 0 127 0"/><feOffset/><feGaussianBlur stdDeviation="2.7"/><feColorMatrix values="0 0 0 0 0 0 0 0 0 0 0 0 0 0 0 0 0 0 0.2 0"/><feBlend in2="A"/><feBlend in="SourceGraphic"/></filter><filter id="G" x="45.726" y="65.6" width="304.2" height="66.15" filterUnits="userSpaceOnUse" class="C"><feFlood result="A" class="D"/><feColorMatrix in="SourceAlpha" values="0 0 0 0 0 0 0 0 0 0 0 0 0 0 0 0 0 0 127 0"/><feOffset/><feGaussianBlur stdDeviation="2.7"/><feColorMatrix values="0 0 0 0 0 0 0 0 0 0 0 0 0 0 0 0 0 0 0.2 0"/><feBlend in2="A"/><feBlend in="SourceGraphic"/></filter><filter id="H" x="45.726" y="70.6" width="304.2" height="66.15" filterUnits="userSpaceOnUse" class="C"><feFlood result="A" class="D"/><feColorMatrix in="SourceAlpha" values="0 0 0 0 0 0 0 0 0 0 0 0 0 0 0 0 0 0 127 0"/><feOffset/><feGaussianBlur stdDeviation="2.7"/><feColorMatrix values="0 0 0 0 0 0 0 0 0 0 0 0 0 0 0 0 0 0 0.2 0"/><feBlend in2="A"/><feBlend in="SourceGraphic"/></filter><filter id="I" x="45.726" y="87.6" width="304.2" height="66.15" filterUnits="userSpaceOnUse" class="C"><feFlood result="A" class="D"/><feColorMatrix in="SourceAlpha" values="0 0 0 0 0 0 0 0 0 0 0 0 0 0 0 0 0 0 127 0"/><feOffset/><feGaussianBlur stdDeviation="2.7"/><feColorMatrix values="0 0 0 0 0 0 0 0 0 0 0 0 0 0 0 0 0 0 0.2 0"/><feBlend in2="A"/><feBlend in="SourceGraphic"/></filter><filter id="J" x="45.726" y="175.35" width="304.2" height="230.85" filterUnits="userSpaceOnUse" class="C"><feFlood result="A" class="D"/><feColorMatrix in="SourceAlpha" values="0 0 0 0 0 0 0 0 0 0 0 0 0 0 0 0 0 0 127 0"/><feOffset/><feGaussianBlur stdDeviation="2.7"/><feColorMatrix values="0 0 0 0 0 0 0 0 0 0 0 0 0 0 0 0 0 0 0.2 0"/><feBlend in2="A"/><feBlend in="SourceGraphic"/></filter><filter id="K" x="45.726" y="117.6" width="304.2" height="66.15" filterUnits="userSpaceOnUse" class="C"><feFlood result="A" class="D"/><feColorMatrix in="SourceAlpha" values="0 0 0 0 0 0 0 0 0 0 0 0 0 0 0 0 0 0 127 0"/><feOffset/><feGaussianBlur stdDeviation="2.7"/><feColorMatrix values="0 0 0 0 0 0 0 0 0 0 0 0 0 0 0 0 0 0 0.2 0"/><feBlend in2="A"/><feBlend in="SourceGraphic"/></filter><filter id="L" x="72.274" y="0" width="221.6" height="63.8" filterUnits="userSpaceOnUse" class="C"><feFlood result="A" class="D"/><feColorMatrix in="SourceAlpha" values="0 0 0 0 0 0 0 0 0 0 0 0 0 0 0 0 0 0 127 0"/><feOffset/><feGaussianBlur stdDeviation=".5"/><feColorMatrix values="0 0 0 0 0 0 0 0 0 0 0 0 0 0 0 0 0 0 0.08 0"/><feBlend in2="A" result="C"/><feColorMatrix in="SourceAlpha" values="0 0 0 0 0 0 0 0 0 0 0 0 0 0 0 0 0 0 127 0"/><feOffset dy="2"/><feGaussianBlur stdDeviation="3"/><feColorMatrix values="0 0 0 0 0 0 0 0 0 0 0 0 0 0 0 0 0 0 0.08 0"/><feBlend in2="C" result="D"/><feColorMatrix in="SourceAlpha" values="0 0 0 0 0 0 0 0 0 0 0 0 0 0 0 0 0 0 127 0"/><feOffset dy="10"/><feGaussianBlur stdDeviation="10"/><feColorMatrix values="0 0 0 0 0 0 0 0 0 0 0 0 0 0 0 0 0 0 0.08 0"/><feBlend in2="D"/><feBlend in="SourceGraphic"/></filter><filter id="M" x=".126" y="159" width="218" height="78.8" filterUnits="userSpaceOnUse" class="C"><feFlood result="A" class="D"/><feColorMatrix in="SourceAlpha" values="0 0 0 0 0 0 0 0 0 0 0 0 0 0 0 0 0 0 127 0"/><feOffset/><feGaussianBlur stdDeviation=".5"/><feColorMatrix values="0 0 0 0 0 0 0 0 0 0 0 0 0 0 0 0 0 0 0.08 0"/><feBlend in2="A" result="C"/><feColorMatrix in="SourceAlpha" values="0 0 0 0 0 0 0 0 0 0 0 0 0 0 0 0 0 0 127 0"/><feOffset dy="2"/><feGaussianBlur stdDeviation="3"/><feColorMatrix values="0 0 0 0 0 0 0 0 0 0 0 0 0 0 0 0 0 0 0.08 0"/><feBlend in2="C" result="D"/><feColorMatrix in="SourceAlpha" values="0 0 0 0 0 0 0 0 0 0 0 0 0 0 0 0 0 0 127 0"/><feOffset dy="10"/><feGaussianBlur stdDeviation="10"/><feColorMatrix values="0 0 0 0 0 0 0 0 0 0 0 0 0 0 0 0 0 0 0.08 0"/><feBlend in2="D"/><feBlend in="SourceGraphic"/></filter><filter id="N" x="178.274" y="68" width="217.6" height="63.8" filterUnits="userSpaceOnUse" class="C"><feFlood result="A" class="D"/><feColorMatrix in="SourceAlpha" values="0 0 0 0 0 0 0 0 0 0 0 0 0 0 0 0 0 0 127 0"/><feOffset/><feGaussianBlur stdDeviation=".5"/><feColorMatrix values="0 0 0 0 0 0 0 0 0 0 0 0 0 0 0 0 0 0 0.08 0"/><feBlend in2="A" result="C"/><feColorMatrix in="SourceAlpha" values="0 0 0 0 0 0 0 0 0 0 0 0 0 0 0 0 0 0 127 0"/><feOffset dy="2"/><feGaussianBlur stdDeviation="3"/><feColorMatrix values="0 0 0 0 0 0 0 0 0 0 0 0 0 0 0 0 0 0 0.08 0"/><feBlend in2="C" result="D"/><feColorMatrix in="SourceAlpha" values="0 0 0 0 0 0 0 0 0 0 0 0 0 0 0 0 0 0 127 0"/><feOffset dy="10"/><feGaussianBlur stdDeviation="10"/><feColorMatrix values="0 0 0 0 0 0 0 0 0 0 0 0 0 0 0 0 0 0 0.08 0"/><feBlend in2="D"/><feBlend in="SourceGraphic"/></filter><path id="O" d="M317.455 101.796l-6.797-6.75 1.586-1.575 5.211 5.175 5.212-5.175 1.586 1.575-6.798 6.75z"/></defs></svg>